<svg xmlns="http://www.w3.org/2000/svg" viewBox="0 0 385.9 242.9"><path fill="#fcfcfc" d="M385.9 142.3c0-.2 0-.4-.1-.6v-.1c0-.1 0-.1-.1-.2s-.1-.3-.2-.4v-.1c-.1-.2-.3-.3-.4-.5h-.1c-.2-.1-.4-.3-.6-.3-.2-.1-.4-.1-.6-.2h-.3l-139.6-.3.2-68v-.3c0-.2-.1-.4-.2-.6l-.3-.6-.1-.1c-.1-.2-.3-.3-.5-.4l-.1-.1c-.1-.1-.3-.2-.4-.2h-.3c-.2-.1-.4-.1-.6-.1l-67.5-.2.2-66v-.3c0-.2-.1-.4-.2-.6l-.3-.6v-.1c-.1-.2-.3-.3-.5-.4h-.1c-.1-.1-.3-.2-.4-.2h-.3c-.2-.1-.4-.1-.6-.1L33.7 0c-.7 0-1.3.3-1.8.8L.7 33.1c-.1.1-.3.3-.3.5 0 0 0 .1-.1.1-.1.3-.2.5-.3.7v69c0 1.4 1.1 2.5 2.5 2.5h67.1v66c0 1.4 1.1 2.5 2.5 2.5h67v66c0 1.4 1.1 2.5 2.5 2.5h211.6c.9 0 1.7-.5 2.2-1.3l29.7-29.5c.5-.5.7-1.1.7-1.8l.1-68z"/><path fill="none" d="M139 99.6V37.4H74.5v63.5H139v-1.3zM111.9 83l-7.1-10.4-2.8 3.1V83h-7.8l.1-28h7.8v11.4l9.7-11.3h9.2l-10.6 12 10.9 16-9.4-.1zM34.8 5L8.4 32.4l132.2-.2 25.3-26.9zm134.4 4.1l-9.8 10.4-15.3 16.2-.1 61.2 25.1-26.6zm39.4 135.3v-38.5h-64.5v63.5h64.5v-25zm-18.9-6.8c0 8.1-5.9 14.1-16 14H163l.1-28h10.8c10.1.1 15.8 5.8 15.8 14z"/><path fill="none" d="M174.1 130.5h-3.2v14.3h3.2c4.7 0 7.8-2.5 7.8-7.1v-.1c-.1-4.5-3.2-7.1-7.8-7.1zm34.9-29.6h.4l26.3-27-63.1-.1-25.2 26.9zM74.6 169.4h64.5v-63.5H74.6v63.5zm19.7-45.8l24.5.1v6.6h-16.2v4.3h14.6v6.1h-14.6v4.4H119v6.6l-24.8-.1.1-28zM5 100.9h64.5V37.4H5v63.5zm31.6-28.8c-6-1.4-10.5-3.1-10.5-8.8v-.1c0-5.2 4.1-8.9 10.9-8.9 4.8 0 8.5 1.3 11.5 3.7l-3.9 5.5c-2.6-1.8-5.4-2.8-7.8-2.8-1.9 0-2.8.8-2.8 1.8v.1c0 1.3 1 1.8 4.9 2.7 6.4 1.4 10.4 3.5 10.4 8.7v.1c0 5.7-4.5 9.1-11.3 9.1-5 0-9.6-1.6-13.1-4.7l4.3-5.1c2.8 2.2 5.8 3.4 9.1 3.4 2.1 0 3.2-.7 3.2-1.9v-.1c-.1-1.2-1-1.8-4.9-2.7zm177 67.3v26.5l21.6-21.4 3.7-3.7v-1.3l.1-61.8-25.4 26.7zm75.7 62.4l-3 7.7h6zm-47-57.3l-25.1 24.9h134.5l25.6-24.6z"/><path fill="none" d="M211.1 174.4h-67v63.5h206.6v-63.5H211.1zm-25.6 37.2c0 5.5-4.4 8.8-10.9 8.8-4.8 0-9.3-1.5-12.6-4.5l4.2-5c2.7 2.1 5.6 3.3 8.7 3.3 2 0 3.1-.7 3.1-1.8v-.1c0-1.2-.9-1.7-4.6-2.6-5.7-1.3-10.2-3-10.2-8.5v-.1c0-5 4-8.6 10.5-8.6 4.6 0 8.2 1.3 11.1 3.6l-3.8 5.3c-2.5-1.8-5.2-2.7-7.6-2.7-1.8 0-2.7.7-2.7 1.7v.1c0 1.2.9 1.8 4.7 2.6 6.3 1.4 10.1 3.4 10.1 8.5zM311 193.2h7.5v20.4h13.1v6.6H311v-27zm-25.2-.2h7.2l11.4 27.2h-8l-1.9-4.9H284l-1.9 4.9h-7.8l11.5-27.2zm-25.6.1h7.5l-.1 27h-7.5l.1-27zM227 206.5c0-7.9 6-14 14.2-14 5.5 0 9.1 2.3 11.4 5.6l-5.6 4.3c-1.5-1.9-3.3-3.2-5.9-3.2-3.8 0-6.4 3.2-6.5 7.2v.1c0 4 2.6 7.2 6.4 7.2 2.8 0 4.5-1.3 6.1-3.3l5.6 4c-2.6 3.5-6 6.1-11.9 6.1-7.6.1-13.8-5.8-13.8-14zm-5.8-.1c0 7.8-6.3 14.1-14.6 14.1s-14.5-6.2-14.5-14v-.1c0-7.8 6.3-14 14.6-14 8.4.1 14.5 6.3 14.5 14z"/><path fill="none" d="M199.8 206.4c0 4 2.8 7.4 6.9 7.4 4.1 0 6.8-3.3 6.8-7.2v-.1c0-3.9-2.8-7.3-6.9-7.3-4.1 0-6.8 3.3-6.8 7.2zm155.9 27.8l25.1-24.9.1-61-25 24.5z"/><path d="M385.9 142.3c0-.2 0-.4-.1-.6v-.1c0-.1 0-.1-.1-.2s-.1-.3-.2-.4v-.1c-.1-.2-.3-.3-.4-.5h-.1c-.2-.1-.4-.3-.6-.3-.2-.1-.4-.1-.6-.2h-.3l-139.6-.3.2-68v-.3c0-.2-.1-.4-.2-.6l-.3-.6-.1-.1c-.1-.2-.3-.3-.5-.4l-.1-.1c-.1-.1-.3-.2-.4-.2h-.3c-.2-.1-.4-.1-.6-.1l-67.5-.2.2-66v-.3c0-.2-.1-.4-.2-.6l-.3-.6v-.1c-.1-.2-.3-.3-.5-.4h-.1c-.1-.1-.3-.2-.4-.2h-.3c-.2-.1-.4-.1-.6-.1L33.7 0c-.7 0-1.3.3-1.8.8L.7 33.1c-.1.1-.3.3-.3.5 0 0 0 .1-.1.1-.1.3-.2.5-.3.7v69c0 1.4 1.1 2.5 2.5 2.5h67.1v66c0 1.4 1.1 2.5 2.5 2.5h67v66c0 1.4 1.1 2.5 2.5 2.5h211.6c.9 0 1.7-.5 2.2-1.3l29.7-29.5c.5-.5.7-1.1.7-1.8l.1-68zM172.6 73.8l63 .1-26.2 26.9h-.4l-61.6-.1 25.2-26.9zm66.4 3.9l-.2 61.8v1.3l-3.7 3.7-21.5 21.4v-61.5L239 77.7zM69.5 100.9H5V37.4h64.5v63.5zm69.6 68.5H74.6v-63.5h64.5v63.5zm-64.6-68.5V37.4H139v63.5H74.5zm66.1-68.7l-132.2.2L34.8 5l131.2.3-25.4 26.9zm3.5 3.5l15.3-16.2 9.8-10.4-.1 61.2L144 96.9l.1-61.2zm0 70.2h64.5v63.5h-64.5v-63.5zm206.6 132H144.2v-63.5h206.6v63.5zm1-68.5H217.2l25-24.9 135 .3-25.5 24.6zm29.1 39.9l-25.1 24.9.1-61.4 25.1-24.5-.1 61z"/><path d="M175.5 203.1c-3.8-.9-4.7-1.4-4.7-2.6v-.1c0-1 .9-1.7 2.7-1.7 2.4 0 5.1.9 7.6 2.7l3.8-5.3c-2.9-2.4-6.5-3.6-11.1-3.6-6.5 0-10.5 3.6-10.5 8.6v.1c0 5.5 4.4 7.1 10.2 8.5 3.7.9 4.6 1.5 4.6 2.6v.1c0 1.2-1.1 1.8-3.1 1.8-3.1 0-6.1-1.1-8.7-3.3l-4.2 5c3.3 3 7.9 4.5 12.6 4.5 6.6 0 10.9-3.3 10.9-8.8v-.1c-.1-5-3.9-7-10.1-8.4zm16.6 3.3c0 7.8 6.1 14.1 14.5 14.1 8.3 0 14.6-6.3 14.6-14v-.1c0-7.8-6.1-14-14.5-14-8.3 0-14.6 6.3-14.6 14zm21.4.1c0 4-2.8 7.3-6.8 7.3-4.1 0-6.9-3.4-6.9-7.3v-.1c0-3.9 2.8-7.2 6.9-7.2 4.1 0 6.8 3.4 6.8 7.3zm27.4 14.1c5.9 0 9.4-2.6 11.9-6.1l-5.6-4c-1.6 2-3.3 3.3-6.1 3.3-3.8 0-6.4-3.2-6.4-7.2v-.1c0-3.9 2.7-7.2 6.5-7.2 2.6 0 4.4 1.3 5.9 3.2l5.6-4.3c-2.4-3.3-5.9-5.6-11.4-5.6-8.2 0-14.2 6.1-14.2 14v.1c-.1 8 6.1 13.9 13.8 13.9zm19.25-.51l.063-27 7.5.017-.062 27zM284 215.3h10.5l1.9 4.9h8L293 193h-7.2l-11.5 27.2h7.8l1.9-4.9zm5.3-13.5l3 7.6h-6.1l3.1-7.6zm42.2 11.9h-13.1v-20.5H311l-.1 27 20.6.1zM38.2 76.8c-3.2 0-6.3-1.2-9.1-3.4l-4.3 5.1c3.5 3.1 8.1 4.7 13.1 4.7 6.8 0 11.3-3.4 11.3-9.1V74c0-5.2-4-7.3-10.4-8.7-3.9-.9-4.9-1.5-4.9-2.7v-.1c0-1 .9-1.8 2.8-1.8 2.5 0 5.3.9 7.8 2.8l3.9-5.5c-3-2.4-6.8-3.7-11.5-3.7-6.7 0-10.8 3.7-10.9 8.9v.1c0 5.7 4.6 7.4 10.5 8.8 3.8.9 4.8 1.5 4.8 2.7v.1c.1 1.2-1 1.9-3.1 1.9zM120.9 55h-9.2L102 66.3V55l-7.7-.1-.1 28h7.8v-7.2l2.8-3.1 7.1 10.4h9.3l-10.9-16zm-1.9 90h-16.4v-4.4h14.7v-6.1h-14.7v-4.3h16.2v-6.6H94.3l-.1 28H119zm55-21.4h-10.8l-.1 28h10.7c10 0 15.9-6 16-14v-.1c-.1-8.1-5.8-13.8-15.8-13.9zm7.8 14.1c0 4.5-3.1 7.1-7.8 7.1h-3.2v-14.3h3.2c4.7 0 7.8 2.6 7.8 7.2z"/></svg>