<?xml version="1.0" encoding="UTF-8" standalone="no"?>
<!-- Created with Inkscape (http://www.inkscape.org/) -->

<svg
   version="1.1"
   id="svg824"
   xml:space="preserve"
   width="512.57782"
   height="97.373428"
   viewBox="0 0 512.57782 97.373425"
   sodipodi:docname="logo_medinet.svg"
   inkscape:version="1.1 (c68e22c387, 2021-05-23)"
   xmlns:inkscape="http://www.inkscape.org/namespaces/inkscape"
   xmlns:sodipodi="http://sodipodi.sourceforge.net/DTD/sodipodi-0.dtd"
   xmlns="http://www.w3.org/2000/svg"
   xmlns:svg="http://www.w3.org/2000/svg"><defs
     id="defs828"><clipPath
       clipPathUnits="userSpaceOnUse"
       id="clipPath838"><path
         d="M 0,110.736 H 437.957 V 0 H 0 Z"
         id="path836" /></clipPath><linearGradient
       x1="0"
       y1="0"
       x2="1"
       y2="0"
       gradientUnits="userSpaceOnUse"
       gradientTransform="matrix(11.906213,-24.782968,24.782968,11.906213,27.284489,84.935341)"
       spreadMethod="pad"
       id="linearGradient860"><stop
         style="stop-opacity:1;stop-color:#7093ff"
         offset="0"
         id="stop856" /><stop
         style="stop-opacity:1;stop-color:#243f6d"
         offset="1"
         id="stop858" /></linearGradient><clipPath
       clipPathUnits="userSpaceOnUse"
       id="clipPath870"><path
         d="M 0,110.736 H 437.957 V 0 H 0 Z"
         id="path868" /></clipPath><linearGradient
       x1="0"
       y1="0"
       x2="1"
       y2="0"
       gradientUnits="userSpaceOnUse"
       gradientTransform="matrix(13.747724,-27.473988,27.473988,13.747724,57.136013,92.663429)"
       spreadMethod="pad"
       id="linearGradient892"><stop
         style="stop-opacity:1;stop-color:#7093ff"
         offset="0"
         id="stop888" /><stop
         style="stop-opacity:1;stop-color:#243f6d"
         offset="1"
         id="stop890" /></linearGradient><clipPath
       clipPathUnits="userSpaceOnUse"
       id="clipPath902"><path
         d="M 0,110.736 H 437.957 V 0 H 0 Z"
         id="path900" /></clipPath><linearGradient
       x1="0"
       y1="0"
       x2="1"
       y2="0"
       gradientUnits="userSpaceOnUse"
       gradientTransform="matrix(15.357561,-29.791716,29.791716,15.357561,87.55899,98.823791)"
       spreadMethod="pad"
       id="linearGradient924"><stop
         style="stop-opacity:1;stop-color:#7093ff"
         offset="0"
         id="stop920" /><stop
         style="stop-opacity:1;stop-color:#243f6d"
         offset="1"
         id="stop922" /></linearGradient><clipPath
       clipPathUnits="userSpaceOnUse"
       id="clipPath934"><path
         d="M 0,110.736 H 437.957 V 0 H 0 Z"
         id="path932" /></clipPath><linearGradient
       x1="0"
       y1="0"
       x2="1"
       y2="0"
       gradientUnits="userSpaceOnUse"
       gradientTransform="matrix(0.5889551,-17.109634,17.109634,0.5889551,164.37311,74.157043)"
       spreadMethod="pad"
       id="linearGradient956"><stop
         style="stop-opacity:1;stop-color:#7093ff"
         offset="0"
         id="stop952" /><stop
         style="stop-opacity:1;stop-color:#243f6d"
         offset="1"
         id="stop954" /></linearGradient><clipPath
       clipPathUnits="userSpaceOnUse"
       id="clipPath966"><path
         d="M 0,110.736 H 437.957 V 0 H 0 Z"
         id="path964" /></clipPath><linearGradient
       x1="0"
       y1="0"
       x2="1"
       y2="0"
       gradientUnits="userSpaceOnUse"
       gradientTransform="matrix(0.5889551,-17.109634,17.109634,0.5889551,210.09366,75.730858)"
       spreadMethod="pad"
       id="linearGradient988"><stop
         style="stop-opacity:1;stop-color:#7093ff"
         offset="0"
         id="stop984" /><stop
         style="stop-opacity:1;stop-color:#243f6d"
         offset="1"
         id="stop986" /></linearGradient><clipPath
       clipPathUnits="userSpaceOnUse"
       id="clipPath998"><path
         d="M 0,110.736 H 437.957 V 0 H 0 Z"
         id="path996" /></clipPath><linearGradient
       x1="0"
       y1="0"
       x2="1"
       y2="0"
       gradientUnits="userSpaceOnUse"
       gradientTransform="matrix(0.5889551,-17.109634,17.109634,0.5889551,250.59985,77.125175)"
       spreadMethod="pad"
       id="linearGradient1020"><stop
         style="stop-opacity:1;stop-color:#7093ff"
         offset="0"
         id="stop1016" /><stop
         style="stop-opacity:1;stop-color:#243f6d"
         offset="1"
         id="stop1018" /></linearGradient><clipPath
       clipPathUnits="userSpaceOnUse"
       id="clipPath1030"><path
         d="M 0,110.736 H 437.957 V 0 H 0 Z"
         id="path1028" /></clipPath><linearGradient
       x1="0"
       y1="0"
       x2="1"
       y2="0"
       gradientUnits="userSpaceOnUse"
       gradientTransform="matrix(0.5889551,-17.109634,17.109634,0.5889551,284.06735,78.277214)"
       spreadMethod="pad"
       id="linearGradient1050"><stop
         style="stop-opacity:1;stop-color:#7093ff"
         offset="0"
         id="stop1046" /><stop
         style="stop-opacity:1;stop-color:#243f6d"
         offset="1"
         id="stop1048" /></linearGradient><clipPath
       clipPathUnits="userSpaceOnUse"
       id="clipPath1060"><path
         d="M 0,110.736 H 437.957 V 0 H 0 Z"
         id="path1058" /></clipPath><linearGradient
       x1="0"
       y1="0"
       x2="1"
       y2="0"
       gradientUnits="userSpaceOnUse"
       gradientTransform="matrix(0.5889551,-17.109634,17.109634,0.5889551,319.30698,79.490242)"
       spreadMethod="pad"
       id="linearGradient1082"><stop
         style="stop-opacity:1;stop-color:#7093ff"
         offset="0"
         id="stop1078" /><stop
         style="stop-opacity:1;stop-color:#243f6d"
         offset="1"
         id="stop1080" /></linearGradient><clipPath
       clipPathUnits="userSpaceOnUse"
       id="clipPath1092"><path
         d="M 0,110.736 H 437.957 V 0 H 0 Z"
         id="path1090" /></clipPath><linearGradient
       x1="0"
       y1="0"
       x2="1"
       y2="0"
       gradientUnits="userSpaceOnUse"
       gradientTransform="matrix(0.5889551,-17.109634,17.109634,0.5889551,363.07263,80.996765)"
       spreadMethod="pad"
       id="linearGradient1114"><stop
         style="stop-opacity:1;stop-color:#7093ff"
         offset="0"
         id="stop1110" /><stop
         style="stop-opacity:1;stop-color:#243f6d"
         offset="1"
         id="stop1112" /></linearGradient><clipPath
       clipPathUnits="userSpaceOnUse"
       id="clipPath1124"><path
         d="M 0,110.736 H 437.957 V 0 H 0 Z"
         id="path1122" /></clipPath><linearGradient
       x1="0"
       y1="0"
       x2="1"
       y2="0"
       gradientUnits="userSpaceOnUse"
       gradientTransform="matrix(0.5889551,-17.109634,17.109634,0.5889551,400.80371,82.295563)"
       spreadMethod="pad"
       id="linearGradient1146"><stop
         style="stop-opacity:1;stop-color:#7093ff"
         offset="0"
         id="stop1142" /><stop
         style="stop-opacity:1;stop-color:#243f6d"
         offset="1"
         id="stop1144" /></linearGradient></defs><sodipodi:namedview
     id="namedview826"
     pagecolor="#ffffff"
     bordercolor="#666666"
     borderopacity="1.0"
     inkscape:pageshadow="2"
     inkscape:pageopacity="0.0"
     inkscape:pagecheckerboard="0"
     showgrid="false"
     fit-margin-top="0"
     fit-margin-left="0"
     fit-margin-right="0"
     fit-margin-bottom="0"
     inkscape:snap-global="false"
     inkscape:zoom="1.902584"
     inkscape:cx="275.67771"
     inkscape:cy="44.938884"
     inkscape:window-width="1920"
     inkscape:window-height="1017"
     inkscape:window-x="-8"
     inkscape:window-y="-8"
     inkscape:window-maximized="1"
     inkscape:current-layer="g830" /><g
     id="g830"
     inkscape:groupmode="layer"
     inkscape:label="logo-medinet"
     transform="matrix(1.3333333,0,0,-1.3333333,-37.651518,121.56133)"><g
       id="g832"
       style="fill:#ffffff;fill-opacity:1"><g
         id="g834"
         clip-path="url(#clipPath838)"
         style="fill:#ffffff;fill-opacity:1"><g
           id="g840"
           transform="translate(61.067,65.1839)"
           style="fill:#ffffff;fill-opacity:1"><path
             d="m 0,0 -14.695,-40.375 c -1.766,-4.851 -7.13,-7.352 -11.981,-5.586 -4.85,1.765 -7.352,7.129 -5.586,11.98 l 14.695,40.375 c 1.766,4.851 7.129,7.352 11.981,5.586 C -0.735,10.215 1.766,4.851 0,0"
             style="fill:#ffffff;fill-opacity:1;fill-rule:evenodd;stroke:none"
             id="path842" /></g></g></g><g
       id="g844"
       style="fill:#ffffff;fill-opacity:1"><g
         id="g846"
         style="fill:#ffffff;fill-opacity:1"><g
           id="g852"
           style="fill:#ffffff;fill-opacity:1"><g
             id="g854"
             style="fill:#ffffff;fill-opacity:1"><path
               d="M 43.5,71.578 28.805,31.203 C 27.04,26.352 29.541,20.988 34.391,19.222 v 0 c 4.852,-1.765 10.215,0.736 11.981,5.587 v 0 l 14.695,40.375 c 1.766,4.851 -0.736,10.214 -5.587,11.98 v 0 c -1.055,0.384 -2.134,0.567 -3.196,0.567 v 0 C 48.466,77.73 44.881,75.373 43.5,71.578"
               style="fill:#ffffff;stroke:none;fill-opacity:1"
               id="path862" /></g></g></g></g><g
       id="g864"
       style="fill:#ffffff;fill-opacity:1"><g
         id="g866"
         clip-path="url(#clipPath870)"
         style="fill:#ffffff;fill-opacity:1"><g
           id="g872"
           transform="translate(95.006,72.6512)"
           style="fill:#ffffff;fill-opacity:1"><path
             d="m 0,0 -17.41,-47.832 c -1.765,-4.851 -7.129,-7.353 -11.98,-5.587 -4.851,1.766 -7.352,7.129 -5.587,11.981 l 17.41,47.832 c 1.766,4.851 7.129,7.352 11.981,5.586 C -0.736,10.215 1.766,4.851 0,0"
             style="fill:#ffffff;fill-opacity:1;fill-rule:evenodd;stroke:none"
             id="path874" /></g></g></g><g
       id="g876"
       style="fill:#ffffff;fill-opacity:1"><g
         id="g878"
         style="fill:#ffffff;fill-opacity:1"><g
           id="g884"
           style="fill:#ffffff;fill-opacity:1"><g
             id="g886"
             style="fill:#ffffff;fill-opacity:1"><path
               d="M 77.439,79.045 60.029,31.213 c -1.765,-4.851 0.736,-10.215 5.586,-11.981 v 0 c 4.852,-1.766 10.215,0.736 11.981,5.587 v 0 l 17.41,47.833 c 1.766,4.851 -0.735,10.214 -5.587,11.98 v 0 c -1.055,0.384 -2.134,0.566 -3.196,0.566 v 0 c -3.818,0 -7.403,-2.357 -8.784,-6.153"
               style="fill:#ffffff;stroke:none;fill-opacity:1"
               id="path894" /></g></g></g></g><g
       id="g896"
       style="fill:#ffffff;fill-opacity:1"><g
         id="g898"
         clip-path="url(#clipPath902)"
         style="fill:#ffffff;fill-opacity:1"><g
           id="g904"
           transform="translate(128.9981,78.6244)"
           style="fill:#ffffff;fill-opacity:1"><path
             d="m 0,0 -19.775,-54.331 c -1.766,-4.851 -7.129,-7.352 -11.98,-5.586 -4.851,1.766 -7.352,7.129 -5.587,11.98 l 19.775,54.331 c 1.766,4.851 7.129,7.352 11.981,5.586 C -0.735,10.215 1.766,4.851 0,0"
             style="fill:#ffffff;fill-opacity:1;fill-rule:evenodd;stroke:none"
             id="path906" /></g></g></g><g
       id="g908"
       style="fill:#ffffff;fill-opacity:1"><g
         id="g910"
         style="fill:#ffffff;fill-opacity:1"><g
           id="g916"
           style="fill:#ffffff;fill-opacity:1"><g
             id="g918"
             style="fill:#ffffff;fill-opacity:1"><path
               d="M 111.431,85.019 91.656,30.688 c -1.765,-4.851 0.736,-10.215 5.587,-11.981 v 0 c 4.851,-1.765 10.214,0.736 11.98,5.587 v 0 l 19.775,54.33 c 1.766,4.851 -0.735,10.215 -5.586,11.981 v 0 c -1.056,0.384 -2.135,0.566 -3.197,0.566 v 0 c -3.818,0 -7.403,-2.357 -8.784,-6.152"
               style="fill:#ffffff;stroke:none;fill-opacity:1"
               id="path926" /></g></g></g></g><g
       id="g928"
       style="fill:#ffffff;fill-opacity:1"><g
         id="g930"
         clip-path="url(#clipPath934)"
         style="fill:#ffffff;fill-opacity:1"><g
           id="g936"
           transform="translate(179.3194,36.2147)"
           style="fill:#ffffff;fill-opacity:1"><path
             d="m 0,0 v 33.175 h -3.541 l -10.53,-23.529 -10.81,23.529 h -3.541 V 0 h 3.541 v 25.208 l 9.225,-19.989 h 3.029 l 9.086,19.989 V 0 Z"
             style="fill:#ffffff;fill-opacity:1;fill-rule:nonzero;stroke:none"
             id="path938" /></g></g></g><g
       id="g940"
       style="fill:#ffffff;fill-opacity:1"><g
         id="g942"
         style="fill:#ffffff;fill-opacity:1"><g
           id="g948"
           style="fill:#ffffff;fill-opacity:1"><g
             id="g950"
             style="fill:#ffffff;fill-opacity:1"><path
               d="m 175.778,69.39 -10.53,-23.53 -10.81,23.53 h -3.541 V 36.215 h 3.541 v 25.207 l 9.226,-19.989 h 3.029 l 9.085,19.989 V 36.215 h 3.542 V 69.39 Z"
               style="fill:#ffffff;stroke:none;fill-opacity:1"
               id="path958" /></g></g></g></g><g
       id="g960"
       style="fill:#ffffff;fill-opacity:1"><g
         id="g962"
         clip-path="url(#clipPath966)"
         style="fill:#ffffff;fill-opacity:1"><g
           id="g968"
           transform="translate(221.1803,36.2147)"
           style="fill:#ffffff;fill-opacity:1"><path
             d="m 0,0 v 3.168 h -17.054 v 11.976 h 14.538 v 3.168 H -17.054 V 30.007 H 0 v 3.168 H -20.595 V 0 Z"
             style="fill:#ffffff;fill-opacity:1;fill-rule:nonzero;stroke:none"
             id="path970" /></g></g></g><g
       id="g972"
       style="fill:#ffffff;fill-opacity:1"><g
         id="g974"
         style="fill:#ffffff;fill-opacity:1"><g
           id="g980"
           style="fill:#ffffff;fill-opacity:1"><g
             id="g982"
             style="fill:#ffffff;fill-opacity:1"><path
               d="M 200.586,69.39 V 36.215 h 20.594 v 3.168 h -17.054 v 11.976 h 14.538 v 3.168 h -14.538 v 11.695 h 17.054 v 3.168 z"
               style="fill:#ffffff;stroke:none;fill-opacity:1"
               id="path990" /></g></g></g></g><g
       id="g992"
       style="fill:#ffffff;fill-opacity:1"><g
         id="g994"
         clip-path="url(#clipPath998)"
         style="fill:#ffffff;fill-opacity:1"><g
           id="g1000"
           transform="translate(259.649,52.8026)"
           style="fill:#ffffff;fill-opacity:1"><path
             d="m 0,0 c 0,-4.613 -0.046,-8.713 -2.19,-10.997 -1.677,-1.863 -4.007,-2.422 -6.523,-2.422 h -7.222 v 26.838 h 7.222 c 2.516,0 4.846,-0.559 6.523,-2.423 C -0.046,8.713 0,4.613 0,0 m 3.54,0 c 0,5.079 0,9.925 -2.934,13.093 -2.236,2.423 -4.986,3.494 -8.713,3.494 h -11.369 v -33.175 h 11.369 c 3.727,0 6.477,1.072 8.713,3.495 C 3.54,-9.925 3.54,-5.079 3.54,0"
             style="fill:#ffffff;fill-opacity:1;fill-rule:nonzero;stroke:none"
             id="path1002" /></g></g></g><g
       id="g1004"
       style="fill:#ffffff;fill-opacity:1"><g
         id="g1006"
         style="fill:#ffffff;fill-opacity:1"><g
           id="g1012"
           style="fill:#ffffff;fill-opacity:1"><g
             id="g1014"
             style="fill:#ffffff;fill-opacity:1"><path
               d="M 240.173,69.39 V 36.215 h 11.369 c 3.727,0 6.476,1.071 8.713,3.494 v 0 c 2.934,3.169 2.934,8.015 2.934,13.094 v 0 c 0,5.078 0,9.924 -2.934,13.093 v 0 c -2.237,2.423 -4.986,3.494 -8.713,3.494 v 0 z m 3.541,-3.168 h 7.222 c 2.517,0 4.846,-0.56 6.523,-2.424 v 0 c 2.143,-2.282 2.19,-6.383 2.19,-10.995 v 0 c 0,-4.613 -0.047,-8.714 -2.19,-10.997 v 0 c -1.677,-1.864 -4.006,-2.423 -6.523,-2.423 v 0 h -7.222 z"
               style="fill:#ffffff;stroke:none;fill-opacity:1"
               id="path1022" /></g></g></g></g><g
       id="g1024"
       style="fill:#ffffff;fill-opacity:1"><g
         id="g1026"
         clip-path="url(#clipPath1030)"
         style="fill:#ffffff;fill-opacity:1"><path
           d="m 286.715,69.39 h -3.542 V 36.215 h 3.542 z"
           style="fill:#ffffff;fill-opacity:1;fill-rule:nonzero;stroke:none"
           id="path1032" /></g></g><g
       id="g1034"
       style="fill:#ffffff;fill-opacity:1"><g
         id="g1036"
         style="fill:#ffffff;fill-opacity:1"><g
           id="g1042"
           style="fill:#ffffff;fill-opacity:1"><g
             id="g1044"
             style="fill:#ffffff;fill-opacity:1"><path
               d="m 283.173,36.215 h 3.542 V 69.39 h -3.542 z"
               style="fill:#ffffff;stroke:none;fill-opacity:1"
               id="path1052" /></g></g></g></g><g
       id="g1054"
       style="fill:#ffffff;fill-opacity:1"><g
         id="g1056"
         clip-path="url(#clipPath1060)"
         style="fill:#ffffff;fill-opacity:1"><g
           id="g1062"
           transform="translate(332.4801,36.2147)"
           style="fill:#ffffff;fill-opacity:1"><path
             d="M 0,0 V 33.175 H -3.541 V 6.663 l -17.613,26.512 h -3.355 V 0 h 3.541 V 26.605 L -3.355,0 Z"
             style="fill:#ffffff;fill-opacity:1;fill-rule:nonzero;stroke:none"
             id="path1064" /></g></g></g><g
       id="g1066"
       style="fill:#ffffff;fill-opacity:1"><g
         id="g1068"
         style="fill:#ffffff;fill-opacity:1"><g
           id="g1074"
           style="fill:#ffffff;fill-opacity:1"><g
             id="g1076"
             style="fill:#ffffff;fill-opacity:1"><path
               d="M 328.939,69.39 V 42.878 L 311.326,69.39 h -3.355 V 36.215 h 3.541 V 62.82 l 17.613,-26.605 h 3.355 V 69.39 Z"
               style="fill:#ffffff;stroke:none;fill-opacity:1"
               id="path1084" /></g></g></g></g><g
       id="g1086"
       style="fill:#ffffff;fill-opacity:1"><g
         id="g1088"
         clip-path="url(#clipPath1092)"
         style="fill:#ffffff;fill-opacity:1"><g
           id="g1094"
           transform="translate(374.3404,36.2147)"
           style="fill:#ffffff;fill-opacity:1"><path
             d="m 0,0 v 3.168 h -17.054 v 11.976 h 14.538 v 3.168 H -17.054 V 30.007 H 0 v 3.168 H -20.595 V 0 Z"
             style="fill:#ffffff;fill-opacity:1;fill-rule:nonzero;stroke:none"
             id="path1096" /></g></g></g><g
       id="g1098"
       style="fill:#ffffff;fill-opacity:1"><g
         id="g1100"
         style="fill:#ffffff;fill-opacity:1"><g
           id="g1106"
           style="fill:#ffffff;fill-opacity:1"><g
             id="g1108"
             style="fill:#ffffff;fill-opacity:1"><path
               d="M 353.746,69.39 V 36.215 h 20.595 v 3.168 h -17.055 v 11.976 h 14.538 v 3.168 h -14.538 v 11.695 h 17.055 v 3.168 z"
               style="fill:#ffffff;stroke:none;fill-opacity:1"
               id="path1116" /></g></g></g></g><g
       id="g1118"
       style="fill:#ffffff;fill-opacity:1"><g
         id="g1120"
         clip-path="url(#clipPath1124)"
         style="fill:#ffffff;fill-opacity:1"><g
           id="g1126"
           transform="translate(412.672,66.222)"
           style="fill:#ffffff;fill-opacity:1"><path
             d="M 0,0 V 3.168 H -22.739 V 0 h 9.599 v -30.007 h 3.541 V 0 Z"
             style="fill:#ffffff;fill-opacity:1;fill-rule:nonzero;stroke:none"
             id="path1128" /></g></g></g><g
       id="g1130"
       style="fill:#ffffff;fill-opacity:1"><g
         id="g1132"
         style="fill:#ffffff;fill-opacity:1"><g
           id="g1138"
           style="fill:#ffffff;fill-opacity:1"><g
             id="g1140"
             style="fill:#ffffff;fill-opacity:1"><path
               d="m 389.933,69.39 v -3.168 h 9.6 V 36.215 h 3.54 v 30.007 h 9.599 v 3.168 z"
               style="fill:#ffffff;stroke:none;fill-opacity:1"
               id="path1148" /></g></g></g></g></g></svg>
