<?xml version="1.0" encoding="UTF-8" standalone="no"?>
<svg
   xmlns:dc="http://purl.org/dc/elements/1.1/"
   xmlns:cc="http://creativecommons.org/ns#"
   xmlns:rdf="http://www.w3.org/1999/02/22-rdf-syntax-ns#"
   xmlns:svg="http://www.w3.org/2000/svg"
   xmlns="http://www.w3.org/2000/svg"
   xmlns:sodipodi="http://sodipodi.sourceforge.net/DTD/sodipodi-0.dtd"
   xmlns:inkscape="http://www.inkscape.org/namespaces/inkscape"
   width="176.39986mm"
   height="73.550629mm"
   viewBox="0 0 176.39986 73.550629"
   version="1.1"
   id="svg8"
   inkscape:version="1.0.1 (3bc2e813f5, 2020-09-07)"
   sodipodi:docname="logo_vitasalud.svg">
  <defs
     id="defs2" />
  <sodipodi:namedview
     id="base"
     pagecolor="#ffffff"
     bordercolor="#666666"
     borderopacity="1.0"
     inkscape:pageopacity="0.0"
     inkscape:pageshadow="2"
     inkscape:zoom="0.98994949"
     inkscape:cx="505.09172"
     inkscape:cy="144.74155"
     inkscape:document-units="mm"
     inkscape:current-layer="layer1"
     inkscape:document-rotation="0"
     showgrid="false"
     fit-margin-top="0"
     fit-margin-left="0"
     fit-margin-right="0"
     fit-margin-bottom="0"
     inkscape:window-width="1920"
     inkscape:window-height="986"
     inkscape:window-x="-11"
     inkscape:window-y="-11"
     inkscape:window-maximized="1" />
  <metadata
     id="metadata5">
    <rdf:RDF>
      <cc:Work
         rdf:about="">
        <dc:format>image/svg+xml</dc:format>
        <dc:type
           rdf:resource="http://purl.org/dc/dcmitype/StillImage" />
        <dc:title></dc:title>
      </cc:Work>
    </rdf:RDF>
  </metadata>
  <g
     inkscape:label="Capa 1"
     inkscape:groupmode="layer"
     id="layer1"
     transform="translate(-17.36324,-46.165168)">
    <path
       id="circle1454"
       style="fill:#ffffff;fill-opacity:1;stroke:none;stroke-width:0.689306;paint-order:stroke fill markers"
       d="M 63.633751,57.355203 A 19.989002,19.989002 0 0 0 43.644434,77.344521 19.989002,19.989002 0 0 0 63.633751,97.333472 19.989002,19.989002 0 0 0 83.622705,77.344521 19.989002,19.989002 0 0 0 63.633751,57.355203 Z m 0,8.300464 A 11.688746,11.688746 0 0 1 75.322241,77.344521 11.688746,11.688746 0 0 1 63.633751,89.03301 11.688746,11.688746 0 0 1 51.944897,77.344521 11.688746,11.688746 0 0 1 63.633751,65.655667 Z" />
    <path
       style="fill:#ffffff;fill-opacity:1;stroke-width:0.185744"
       d="m 90.36812,108.39167 c -1.134202,-0.40813 -2.207096,-1.03447 -2.328131,-1.35909 -0.103334,-0.27715 1.548622,-3.48925 1.854944,-3.6068 0.121598,-0.0467 0.58191,0.12596 1.022917,0.38362 1.283269,0.74973 3.565258,1.29846 4.844007,1.16481 1.301853,-0.13608 1.769838,-0.36196 1.999099,-0.96497 0.238668,-0.62774 -0.102285,-1.29697 -0.838837,-1.64649 -0.328381,-0.15582 -1.77813,-0.65036 -3.221666,-1.09898 -3.284953,-1.02087 -4.420833,-1.842698 -5.019908,-3.631982 -0.259848,-0.776112 -0.273895,-2.85105 -0.02534,-3.745747 0.224761,-0.809065 1.315036,-2.118258 2.107976,-2.531224 0.8897,-0.463359 2.646256,-0.786263 4.316646,-0.793516 2.708329,-0.01176 6.205723,1.183979 6.205723,2.121706 0,0.247647 -0.0714,0.494427 -0.15877,0.5484 -0.0873,0.05396 -0.34011,0.595449 -0.56174,1.203287 -0.22163,0.607828 -0.55356,1.291132 -0.737615,1.518435 l -0.334656,0.413283 -0.821744,-0.476024 c -1.882289,-1.090386 -4.312103,-1.543763 -5.145423,-0.960084 -1.043957,0.731217 -0.04121,1.675467 2.676548,2.520317 2.322185,0.721894 4.20308,1.701358 4.91364,2.558749 0.78703,0.94966 1.17058,2.40141 1.04144,3.94183 -0.172,2.05159 -1.03139,3.37162 -2.756195,4.23352 l -1.146734,0.57304 -3.453047,-0.007 c -2.912225,-0.005 -3.606544,-0.0619 -4.433124,-0.3594 z m 17.51135,0.0357 c -1.84787,-0.61185 -3.43628,-2.95041 -3.43628,-5.05913 0,-1.83977 1.28598,-3.692857 3.14017,-4.524955 1.07007,-0.480226 2.0069,-0.647872 5.58983,-1.000264 l 1.39308,-0.137017 0.0567,-0.782317 c 0.0692,-0.954268 -0.17474,-1.446957 -0.95091,-1.920222 -1.15566,-0.704666 -3.63172,-0.269745 -5.47692,0.962008 -0.4393,0.293257 -0.87598,0.533194 -0.97039,0.533194 -0.22842,0 -0.63911,-0.816974 -1.21939,-2.425632 -0.4573,-1.267747 -0.46327,-1.335756 -0.14798,-1.684151 0.18071,-0.199681 0.83497,-0.602108 1.45391,-0.894283 4.34081,-2.049109 9.93528,-1.139993 11.37073,1.847771 0.38479,0.800929 0.40346,1.114545 0.46436,7.799908 l 0.0634,6.96542 -2.41468,0.10969 c -1.32808,0.0603 -2.70668,0.20661 -3.06356,0.32506 -0.98828,0.32801 -4.73662,0.2543 -5.85218,-0.11508 z m 5.83152,-3.83876 c 0.31111,-0.16088 0.6443,-0.43946 0.74043,-0.61907 0.28281,-0.52847 0.44402,-1.67187 0.31062,-2.20336 l -0.12373,-0.493 -1.81968,0.11085 c -2.30382,0.14037 -3.3082,0.51685 -3.6665,1.37437 -0.34261,0.81998 -0.0446,1.50021 0.86361,1.9719 0.77977,0.40494 2.78702,0.32797 3.69525,-0.14169 z m 11.58023,3.77726 c -0.43517,-0.21541 -0.96758,-0.63932 -1.18313,-0.94203 -0.87705,-1.2317 -0.90469,-1.61119 -0.90469,-12.420782 0,-9.099226 0.0309,-10.178399 0.29382,-10.279306 0.42005,-0.161192 3.28556,-0.134174 3.5492,0.03346 0.16331,0.103828 0.25371,2.588675 0.34627,9.516569 0.10363,7.757969 0.17224,9.450969 0.39752,9.810129 0.2476,0.39471 0.38164,0.42845 1.47815,0.37206 0.92506,-0.0476 1.24199,0.003 1.36099,0.21603 0.0853,0.15293 0.21531,1.04923 0.28886,1.99181 l 0.13371,1.71375 -0.50008,0.19013 c -0.27503,0.10456 -1.39317,0.19006 -2.48473,0.18997 -1.64453,-1.2e-4 -2.12027,-0.0672 -2.77589,-0.39179 z m 11.91077,0.18965 c -0.3203,-0.0928 -0.9871,-0.44052 -1.48178,-0.77265 -1.09356,-0.73424 -1.83457,-2.08796 -2.10988,-3.85442 -0.20143,-1.29242 -0.2619,-11.51107 -0.0723,-12.218758 0.11042,-0.412125 0.16874,-0.422508 2.0871,-0.37149 l 1.9735,0.05248 0.0929,5.977051 c 0.0886,5.701867 0.1108,6.001037 0.48217,6.498047 0.54512,0.72958 1.696,1.03742 3.47139,0.92856 1.5934,-0.0977 2.24742,-0.40004 2.59736,-1.20066 0.14966,-0.34238 0.23143,-2.32474 0.2582,-6.259165 0.0215,-3.166948 0.0446,-5.823604 0.0513,-5.90368 0.007,-0.08008 0.91066,-0.121869 2.00888,-0.09287 l 1.99675,0.05272 0.14185,1.393085 c 0.14445,1.418547 -0.002,14.49909 -0.16823,15.09176 -0.0794,0.28212 -0.34131,0.32531 -1.98289,0.32706 -1.13732,0.002 -2.25487,0.11229 -2.80318,0.27862 -1.02658,0.31142 -5.5478,0.36278 -6.5431,0.0743 z m 19.52832,0.0253 c -2.23387,-0.55713 -3.67098,-2.00205 -4.27732,-4.30056 -0.63614,-2.41154 -0.49591,-7.215456 0.28326,-9.703882 0.72418,-2.312789 2.45216,-3.66563 5.19221,-4.064996 1.35273,-0.197161 2.41402,-0.14199 5.11716,0.26601 0.35603,0.05373 0.37365,-0.06332 0.42296,-2.809986 0.031,-1.72751 0.13228,-2.96345 0.25491,-3.111223 0.2243,-0.270253 3.16888,-0.245427 3.55963,0.0027 0.18439,0.117069 0.22354,2.590726 0.18573,11.745505 l -0.0479,11.597202 -2.70367,0.0213 c -0.91943,0.0633 -1.96369,0.20965 -2.32057,0.32505 -0.71278,0.23049 -4.77945,0.25404 -5.66644,0.0328 z m 5.33233,-4.1747 c 1.0237,-0.48577 1.31594,-1.27871 1.41066,-3.82752 0.14571,-3.920566 -0.37703,-5.112299 -2.47344,-5.638896 -1.10662,-0.277974 -1.30506,-0.279694 -2.20143,-0.0191 -1.23406,0.358743 -1.89088,1.032288 -2.1729,2.228182 -0.28145,1.193569 -0.29025,4.603824 -0.0144,5.593924 0.25066,0.89975 0.9642,1.67503 1.77148,1.92478 0.83399,0.25801 2.89384,0.11171 3.68004,-0.26135 z M 129.6116,81.750312 c -2.16067,-0.532012 -3.39672,-1.600797 -3.91561,-3.385762 -0.44152,-1.518753 -0.29258,-3.477668 0.34742,-4.569769 0.50673,-0.864652 1.92999,-2.066466 3.20483,-2.706186 0.79472,-0.39879 2.90643,-0.754815 4.9141,-0.828492 l 1.20734,-0.04431 v -1.00155 c 0,-0.883033 -0.0622,-1.047882 -0.52507,-1.393085 -0.43523,-0.324544 -0.78868,-0.391535 -2.06572,-0.391535 -1.44986,0 -1.63447,0.04757 -3.13234,0.807207 -0.87542,0.443965 -1.66836,0.759819 -1.76209,0.701896 -0.0937,-0.05792 -0.49248,-0.828189 -0.88618,-1.711703 l -0.71578,-1.606389 0.45721,-0.376345 c 0.71233,-0.586351 2.21656,-1.220535 3.91179,-1.649224 1.91538,-0.484357 3.97947,-0.404383 5.64691,0.218787 1.44212,0.538968 3.11692,2.141723 3.41999,3.272915 0.1383,0.516162 0.19061,2.975874 0.15794,7.429786 l -0.0487,6.658175 -2.32181,0.112778 c -1.27699,0.06202 -2.78152,0.249102 -3.3434,0.415721 -1.18913,0.352627 -3.22431,0.373683 -4.55074,0.04708 z m 4.93163,-4.109589 c 0.70854,-0.366402 1.14448,-1.337846 1.06846,-2.380929 l -0.0562,-0.771871 -1.95031,0.01776 c -1.59238,0.01451 -2.09033,0.08941 -2.71315,0.408137 -1.5831,0.810136 -1.45074,2.473967 0.24015,3.018827 0.73086,0.235502 2.72044,0.06524 3.41111,-0.29193 z m -16.81929,4.009828 c -1.24939,-0.305513 -2.08559,-0.904762 -2.53442,-1.816256 -0.42398,-0.861063 -0.43926,-1.053413 -0.4944,-6.22866 l -0.0569,-5.340158 -0.77895,-0.0028 c -1.20226,-0.0044 -1.30134,-0.137316 -1.26206,-1.693234 0.0212,-0.837883 0.12078,-1.411637 0.25873,-1.489782 0.8435,-0.477791 1.89044,-1.395938 2.31936,-2.034018 0.27799,-0.413552 0.74395,-1.038171 1.03548,-1.388039 0.50813,-0.60983 0.58218,-0.636126 1.79114,-0.636126 1.46959,0 1.48658,0.02034 1.48658,1.779767 v 1.192148 h 1.65844 c 2.21626,0 2.3098,0.09403 2.20814,2.219955 -0.0419,0.876717 -0.13991,1.697114 -0.21777,1.823102 -0.0959,0.15508 -0.70068,0.229069 -1.87258,0.229069 h -1.731 l -0.134,3.39508 c -0.14497,3.673054 -0.0253,5.380518 0.40201,5.735139 0.21338,0.177093 0.51433,0.175502 1.39985,-0.0074 1.32857,-0.274411 1.35603,-0.251703 1.52504,1.26098 0.0639,0.571722 0.15638,1.332041 0.20556,1.6896 0.1195,0.868926 -0.0869,1.126358 -1.05282,1.312929 -0.97696,0.188706 -3.38156,0.187976 -4.15544,-0.0013 z M 91.516236,80.900895 c -0.30979,-0.125253 -0.69276,-1.060777 -1.877101,-4.585408 -2.739947,-8.154142 -3.956153,-11.875639 -3.956153,-12.105518 0,-0.170743 0.572241,-0.214995 2.275372,-0.17596 l 2.27537,0.05215 0.773514,2.377926 c 0.425429,1.30786 0.947835,2.748792 1.160907,3.202071 0.213066,0.45328 0.387393,0.94852 0.387393,1.100536 0,0.451897 1.143637,3.699884 1.399737,3.975325 0.395585,0.425455 0.611318,0.0875 1.205099,-1.887883 1.236179,-4.112415 2.641272,-8.408249 2.822303,-8.628666 0.273552,-0.333077 4.341383,-0.326517 4.469433,0.0072 0.0505,0.131663 -0.32039,1.364544 -0.82425,2.739733 -0.50386,1.375189 -1.15339,3.294404 -1.44339,4.26492 -0.869134,2.908708 -3.306109,9.512303 -3.572767,9.681326 -0.320882,0.203394 -4.58524,0.188527 -5.095467,-0.01775 z m 13.916364,-0.05128 c -0.0809,-0.1277 -0.13566,-3.858203 -0.1218,-8.290007 0.0204,-6.524148 0.0729,-8.090661 0.27534,-8.230333 0.24733,-0.17057 3.58954,-0.0463 3.89902,0.144972 0.23505,0.145271 0.20287,15.806819 -0.0334,16.24827 -0.17024,0.318087 -0.40323,0.359277 -2.03223,0.359277 -1.26974,0 -1.8855,-0.07195 -1.98694,-0.232179 z m 0.77516,-18.60628 c -0.30647,-0.137199 -0.84977,-0.556495 -1.20733,-0.93177 -0.85831,-0.90083 -0.90383,-1.936782 -0.12972,-2.951708 1.25587,-1.646519 3.35962,-1.649248 4.47637,-0.0059 1.54905,2.279627 -0.64979,5.003756 -3.13932,3.889285 z"
       id="path863"
       sodipodi:nodetypes="csccsssssssssssscssssssccccssssccssssssssccsssssscsssssssssssccscsssssssscssssscscsscssscssssssssccscccsssscsccssssscsssssscssssscsssscccssscccsccscssssscsssscssssssccsssscsssscscscsssccsssscccssccc" />
  </g>
</svg>
