<?xml version="1.0" encoding="UTF-8" standalone="no"?>
<!-- Created with Inkscape (http://www.inkscape.org/) -->

<svg
   width="264.22748mm"
   height="63.476673mm"
   viewBox="0 0 264.22748 63.476675"
   version="1.1"
   id="svg5"
   inkscape:version="1.1 (c68e22c387, 2021-05-23)"
   sodipodi:docname="logo_dentalsoft.svg"
   xmlns:inkscape="http://www.inkscape.org/namespaces/inkscape"
   xmlns:sodipodi="http://sodipodi.sourceforge.net/DTD/sodipodi-0.dtd"
   xmlns="http://www.w3.org/2000/svg"
   xmlns:svg="http://www.w3.org/2000/svg">
  <sodipodi:namedview
     id="namedview7"
     pagecolor="#ffffff"
     bordercolor="#666666"
     borderopacity="1.0"
     inkscape:pageshadow="2"
     inkscape:pageopacity="0.0"
     inkscape:pagecheckerboard="0"
     inkscape:document-units="mm"
     showgrid="false"
     fit-margin-top="0"
     fit-margin-left="0"
     fit-margin-right="0"
     fit-margin-bottom="0"
     inkscape:zoom="0.37059484"
     inkscape:cx="292.77256"
     inkscape:cy="-125.47396"
     inkscape:window-width="1920"
     inkscape:window-height="1017"
     inkscape:window-x="-8"
     inkscape:window-y="-8"
     inkscape:window-maximized="1"
     inkscape:current-layer="layer1" />
  <defs
     id="defs2" />
  <g
     inkscape:label="Capa 1"
     inkscape:groupmode="layer"
     id="layer1"
     transform="translate(63.588197,-138.38227)">
    <path
       style="fill:#ffffff;stroke-width:0.264583;fill-opacity:1"
       d="m -43.833606,201.44205 c -1.58965,-0.56288 -3.621611,-2.49051 -4.432774,-4.20517 -0.375353,-0.79343 -0.838562,-1.4426 -1.029354,-1.4426 -0.63135,0 -4.686508,-2.60037 -6.396901,-4.10201 -3.190493,-2.8011 -5.823938,-6.98934 -7.161186,-11.38917 -0.64181,-2.11169 -0.721263,-2.79805 -0.733566,-6.33694 -0.01132,-3.25665 0.09185,-4.38923 0.57501,-6.31216 0.939163,-3.73779 1.546224,-4.40347 4.015682,-4.40347 1.667133,0 2.06239,0.16812 2.532517,1.07726 0.514789,0.99549 0.490028,1.62619 -0.172426,4.39195 -1.036329,4.3267 -0.26692,9.27634 2.069969,13.31621 0.547154,0.94588 2.015309,2.7449 3.262565,3.99781 1.886218,1.89478 2.688149,2.48453 4.766631,3.50545 3.425894,1.68276 5.299361,2.13105 8.848892,2.11738 4.399656,-0.0169 7.994709,-1.18225 11.290565,-3.65979 2.024253,-1.52166 3.05924,-1.60899 4.011094,-0.33846 1.163415,1.55293 1.138211,1.89359 -0.249894,3.37759 -2.182249,2.333 -6.57107,4.88601 -10.21004,5.93925 -0.962533,0.27859 -1.563008,0.60899 -1.659538,0.91312 -0.08319,0.26212 -0.689677,1.02271 -1.347746,1.69021 -2.051743,2.08114 -5.253363,2.82885 -7.9795,1.86354 z m 3.896101,-13.20827 c -4.396423,-0.75141 -7.264844,-2.07579 -9.639913,-4.45086 -3.041381,-3.04138 -4.517351,-7.12223 -4.337516,-11.99262 0.109074,-2.95397 0.533957,-4.09213 2.119515,-5.67769 3.508158,-3.50816 10.104335,-3.77208 13.262336,-0.53062 1.320437,1.35533 2.014032,3.09038 2.360599,5.90517 0.447839,3.63727 1.459714,4.76263 4.744969,5.27715 2.88013,0.45107 4.031234,1.69711 3.991448,4.32066 -0.05348,3.52663 -1.912389,5.58818 -6.019146,6.67526 -1.406157,0.37222 -5.377659,0.66235 -6.482292,0.47355 z m 19.824613,-2.33576 c -2.472108,-1.67984 -2.336115,-4.92513 0.28103,-6.70634 2.388067,-1.62531 5.824967,0.35001 5.822537,3.34641 -0.003,3.19382 -3.50813,5.12357 -6.103567,3.35993 z m 24.6253867,-3.08375 c -2.60851,-0.28256 -3.43958,-0.58171 -3.43958,-1.23809 0,-0.25911 0.99484,-6.105 2.21077,-12.99086 1.76833,-10.01421 2.31107,-12.6173 2.71198,-13.00714 1.14285,-1.11133 10.6146803,-1.47284 13.6913603,-0.52255 3.36369,1.03894 5.40485,3.40251 6.00908,6.95824 0.29283,1.72325 0.25736,2.29497 -0.38499,6.20573 -1.2561,7.64742 -2.92889,10.85888 -6.83133,13.11496 -2.04366,1.18148 -3.76597,1.53857 -7.88187,1.63419 -2.1100503,0.049 -4.8484903,-0.0205 -6.0854203,-0.15448 z m 10.2586003,-7.08446 c 0.47623,-0.33968 1.09457,-1.06587 1.37409,-1.61377 0.68996,-1.35244 1.61342,-5.9651 1.78827,-8.93236 l 0.14333,-2.43248 -0.80867,-0.80867 c -0.76511,-0.76512 -0.92104,-0.80867 -2.89524,-0.80867 h -2.08658 l -1.27833,7.34219 c -0.70308,4.0382 -1.3387903,7.50396 -1.4127003,7.70168 -0.10824,0.28958 0.29783,0.34104 2.0877803,0.26459 1.80828,-0.0772 2.38343,-0.20994 3.08805,-0.71251 z m 18.44869,7.01483 c -3.61134,-1.20018 -5.68854,-3.97113 -5.68854,-7.5884 0,-2.56414 0.94159,-6.79143 1.98426,-8.90841 1.82649,-3.70842 4.55538,-5.34688 9.29105,-5.57846 3.27554,-0.16017 4.94173,0.3018 6.5994,1.82979 2.03231,1.87332 2.78292,4.66393 2.23302,8.30192 -0.50022,3.30938 0.12798,3.03278 -6.88787,3.03278 h -6.07611 v 1.18453 c 0,1.93187 0.39637,2.06248 5.92782,1.95332 2.53851,-0.0501 4.69422,-0.0123 4.79047,0.0839 0.31059,0.3106 -0.44725,4.1483 -0.89732,4.54402 -1.19525,1.05092 -9.13375,1.857 -11.27618,1.145 z m 7.75413,-14.13326 c 0.21483,-2.96658 -3.69474,-3.36973 -4.99098,-0.51466 -0.82049,1.80718 -0.83507,1.79583 2.19779,1.7115 l 2.71198,-0.0754 z m 36.09357,14.09418 c -0.62231,-0.19433 -1.42445,-0.5453 -1.78253,-0.77992 -0.9702,-0.6357 -1.71621,-2.3041 -1.71621,-3.83817 0,-2.10985 3.37441,-20.74264 3.8156,-21.06895 0.61757,-0.45677 6.49394,-1.29137 6.8171,-0.96822 0.25444,0.25445 -0.0314,2.87257 -0.47555,4.35595 -0.12591,0.42051 0.11807,0.46303 2.65731,0.46303 3.3433,0 3.17828,-0.36497 2.11949,4.68743 -0.11642,0.55552 -0.27246,0.59034 -2.96435,0.66146 l -2.84147,0.0751 -0.83895,4.7625 c -0.46142,2.61937 -0.84837,5.13557 -0.8599,5.59154 -0.0254,1.00545 0.351,1.14655 3.07229,1.15172 1.04644,0.002 1.96628,0.10662 2.04409,0.23251 0.20358,0.32941 -0.53467,4.00553 -0.87219,4.34305 -0.6941,0.6941 -6.28677,0.92055 -8.17473,0.331 z m 17.88044,0.0375 c -2.51252,-0.71494 -4.65213,-2.7588 -5.26303,-5.02751 -0.4248,-1.57759 -0.32677,-3.94167 0.29089,-7.01477 0.79001,-3.93061 1.63946,-5.86157 3.30739,-7.51831 1.90988,-1.89707 4.18179,-2.57869 8.585425,-2.57581 4.0842,0.003 8.84133,0.74116 9.07419,1.40865 0.18118,0.51933 -3.25006,19.33699 -3.58814,19.67816 -0.9052,0.91347 -10.139635,1.69469 -12.406725,1.04959 z m 6.236455,-5.94489 c 0.22358,-0.36176 1.8245,-9.86031 1.68535,-9.99946 -0.2815,-0.28149 -3.270835,-0.19224 -3.833975,0.11447 -0.87736,0.47785 -1.53127,1.99215 -2.01736,4.6717 -0.84837,4.67661 -0.52711,5.42395 2.33161,5.42395 0.937295,0 1.762765,-0.0948 1.834375,-0.21066 z m 27.4177,6.11616 c -2.11476,-0.21748 -4.80136,-0.93639 -4.95036,-1.32466 -0.18239,-0.47531 0.60959,-5.1084 0.92759,-5.4264 0.12032,-0.12033 1.34256,-0.10043 2.71608,0.0442 3.75942,0.39591 6.63881,0.34668 7.31228,-0.12504 0.71759,-0.50262 1.04293,-1.85805 0.5799,-2.41597 -0.18727,-0.22564 -1.89444,-1.46468 -3.79372,-2.75342 -4.39115,-2.97957 -5.4002,-4.40792 -5.426,-7.6807 -0.0349,-4.42419 2.47504,-7.34897 7.16658,-8.35116 3.07726,-0.65736 11.65579,-0.1169 12.57239,0.79207 0.22846,0.22656 0.18744,0.94302 -0.16557,2.89209 -0.2581,1.425 -0.53174,2.65339 -0.6081,2.72974 -0.0764,0.0764 -2.14497,0.0371 -4.59693,-0.0873 -5.1859,-0.26308 -5.89247,-0.17834 -6.4251,0.77061 -0.53792,0.95838 -0.33455,1.1536 3.79064,3.63867 4.77084,2.87401 5.66855,3.94389 5.91813,7.05312 0.19445,2.42243 -0.63464,4.93906 -2.20114,6.68139 -2.51708,2.79959 -7.3025,4.12984 -12.81667,3.56276 z m 23.58843,-0.19007 c -2.63688,-0.67014 -4.42422,-2.39225 -5.20234,-5.01246 -0.5237,-1.76349 -0.49737,-3.21336 0.11611,-6.39203 1.05405,-5.46152 2.52313,-7.90253 5.70717,-9.483 2.83996,-1.40968 7.49087,-1.61547 9.98747,-0.44193 1.4134,0.66438 2.97673,2.26724 3.55036,3.64013 0.93899,2.24733 0.48312,7.68613 -0.96553,11.51939 -1.10132,2.91419 -3.32687,5.03336 -6.17399,5.87886 -1.95897,0.58175 -5.32605,0.72136 -7.01925,0.29104 z m 5.78683,-6.51615 c 0.86516,-0.92616 1.54831,-3.47807 1.76885,-6.60761 0.12543,-1.77983 0.0826,-2.03582 -0.41544,-2.48347 -0.63402,-0.56987 -2.26751,-0.66784 -3.16112,-0.1896 -0.84439,0.45191 -1.5431,2.01364 -2.01585,4.50579 -0.83647,4.40951 -0.44771,5.57561 1.85881,5.57561 1.01315,0 1.34193,-0.13399 1.96475,-0.80072 z m 31.25492,6.61877 c -1.44953,-0.30619 -2.60771,-0.97895 -3.31207,-1.9239 -1.03719,-1.39148 -0.89972,-3.35418 0.97387,-13.90448 0.93897,-5.2874 1.81941,-9.72565 1.95653,-9.86277 0.22102,-0.22102 5.72,-1.28732 6.66194,-1.29181 0.37293,-0.002 0.34681,0.76382 -0.13311,3.90085 l -0.17201,1.12448 h 2.65861 c 1.78139,0 2.69238,0.10124 2.7609,0.30685 0.0563,0.16877 -0.0849,1.32963 -0.31369,2.57969 l -0.41597,2.27284 -2.82422,0.0749 c -2.40432,0.0638 -2.843,0.14248 -2.9505,0.52917 -0.0695,0.24982 -0.51562,2.75489 -0.99148,5.56683 -0.74061,4.37637 -0.81032,5.14733 -0.48407,5.35376 0.20962,0.13263 1.42292,0.24297 2.69623,0.2452 2.63864,0.005 2.49804,-0.18424 1.97046,2.64707 -0.26202,1.40624 -0.43961,1.77433 -0.98129,2.03395 -0.87738,0.42052 -5.64867,0.65392 -7.10013,0.34733 z m -139.828795,-0.1736 c -0.31446,-0.31446 -0.19599,-1.23363 1.11068,-8.61788 1.38418,-7.82221 1.88107,-9.38389 3.50788,-11.02478 0.49148,-0.49573 1.54844,-1.21011 2.3488,-1.5875 1.37087,-0.6464 1.6929,-0.68617 5.55625,-0.68617 3.71968,0 4.22376,0.0566 5.42067,0.60824 1.59467,0.73501 2.40795,1.46032 3.05755,2.72682 0.95627,1.86442 0.91198,3.07576 -0.38437,10.51103 -0.66807,3.8318 -1.21468,7.06775 -1.21468,7.19099 0,0.12325 -0.1871,0.41119 -0.41577,0.63986 -0.32894,0.32894 -1.03352,0.41493 -3.37344,0.41173 -1.62671,-0.002 -3.10937,-0.10033 -3.29478,-0.218 -0.26574,-0.16866 -0.0815,-1.66358 0.86994,-7.06025 1.34978,-7.65585 1.43898,-8.53556 0.89999,-8.87673 -0.52023,-0.3293 -3.07585,-0.30484 -3.71183,0.0355 -0.76625,0.41008 -0.88548,0.86595 -2.22116,8.49212 -0.66955,3.82285 -1.34448,7.10381 -1.49985,7.29101 -0.30027,0.3618 -6.30999,0.50986 -6.65588,0.16398 z m 62.366225,-0.20675 c -0.18812,-0.49024 4.63989,-27.94889 4.99183,-28.39031 0.31092,-0.38997 6.69156,-0.47746 6.92794,-0.095 0.26741,0.43269 -4.7859,28.38361 -5.17625,28.6309 -0.1992,0.12619 -1.7649,0.23126 -3.47933,0.23349 -2.47977,0.003 -3.14722,-0.0743 -3.26419,-0.37909 z m 56.69975,-0.0799 c -0.19689,-0.33695 3.98338,-23.61879 4.46915,-24.89077 0.25162,-0.65884 0.96629,-1.7067 1.58816,-2.32857 1.64679,-1.64679 3.21148,-2.03816 7.62441,-1.90707 1.90774,0.0567 3.60084,0.1858 3.76244,0.28695 0.316,0.19779 -0.2235,4.08005 -0.61917,4.45558 -0.1121,0.10639 -1.31481,0.23383 -2.67269,0.28319 -2.72217,0.099 -3.21966,0.38637 -3.21966,1.86011 v 0.74318 h 2.63021 c 1.44662,0 2.68463,0.0893 2.75113,0.19843 0.11431,0.18762 -0.4619,3.63496 -0.77393,4.63022 -0.12598,0.40184 -0.50739,0.46302 -2.88669,0.46302 h -2.74154 l -0.27686,1.38906 c -0.15228,0.76398 -0.75744,4.18703 -1.34479,7.60677 -0.58736,3.41974 -1.12832,6.4856 -1.20214,6.81302 -0.13071,0.57972 -0.22376,0.59531 -3.55315,0.59531 -1.88041,0 -3.47111,-0.0893 -3.53488,-0.19843 z m -188.430903,-6.19852 c -2.162569,-0.80662 -4.218546,-2.93573 -4.997842,-5.17561 -0.190415,-0.5473 -0.419761,-1.97434 -0.509656,-3.1712 -0.284419,-3.78673 -1.424869,-5.16493 -4.752607,-5.74336 -2.436389,-0.4235 -3.450413,-0.95617 -3.991719,-2.09689 -0.572963,-1.20743 -0.546648,-1.59545 0.164248,-2.42192 0.501968,-0.58357 0.932895,-0.73493 2.711979,-0.95252 2.880059,-0.35226 3.961043,-0.66709 5.819347,-1.69488 2.091722,-1.15688 3.42556,-1.48303 6.095524,-1.49047 4.408274,-0.0123 8.473404,1.95316 9.8950137,4.78413 1.264,2.51714 1.37302,6.62356 0.28407,10.70062 -0.9918697,3.71358 -2.2541397,5.52051 -4.7652297,6.82139 -1.36245,0.70581 -4.59984,0.94548 -5.953128,0.44071 z M -59.516672,160.4185 c -1.504109,-0.5473 -2.98461,-3.73547 -3.347664,-7.20898 -0.174092,-1.66562 0.556261,-5.08424 1.50481,-7.04368 0.694496,-1.43464 1.794838,-1.96641 2.76014,-1.33392 1.154338,0.75635 2.449603,5.93221 2.702641,10.79971 0.18685,3.59429 -0.04489,4.23446 -1.699196,4.69388 -1.080758,0.30013 -1.319678,0.3117 -1.920731,0.093 z m 10.451042,-0.57246 c -2.650702,-1.20833 -4.093962,-3.43653 -4.098457,-6.32745 -0.0058,-3.7084 2.490566,-6.47625 6.184844,-6.85753 3.099962,-0.31995 6.284956,1.77192 7.154128,4.69874 0.521274,1.75532 0.522091,2.44421 0.005,4.18555 -1.107996,3.73102 -5.754131,5.89224 -9.245489,4.30069 z m 25.067247,-8.63249 c -3.719187,-1.61639 -5.256316,-5.89116 -3.365667,-9.35994 1.261938,-2.31529 3.225276,-3.47581 5.872734,-3.47133 5.704871,0.01 8.707431,6.51962 5.052251,10.95399 -1.63924,1.98869 -5.243476,2.88376 -7.559318,1.87728 z"
       id="path1177" />
  </g>
</svg>
