<?xml version="1.0" encoding="UTF-8" standalone="no"?>
<!-- Created with Inkscape (http://www.inkscape.org/) -->

<svg
   width="525.26984mm"
   height="86.488319mm"
   viewBox="0 0 525.26984 86.488322"
   version="1.1"
   id="svg5"
   xmlns="http://www.w3.org/2000/svg"
   xmlns:svg="http://www.w3.org/2000/svg">
  <defs
     id="defs2" />
  <g
     id="layer1"
     transform="translate(194.90305,-112.16807)">
    <path
       style="fill:#ffffff;stroke-width:0.264583;fill-opacity:1"
       d="m -179.02807,198.45163 c -2.44608,-0.79339 -4.53986,-2.56062 -5.74545,-4.84939 -0.66322,-1.2591 -0.73643,-1.66113 -0.73643,-4.04393 0,-2.3828 0.0732,-2.78482 0.73643,-4.04393 0.98244,-1.86511 2.56258,-3.39764 4.38339,-4.2513 1.26945,-0.59516 1.85274,-0.7006 3.8756,-0.7006 2.06865,0 2.57797,0.0966 3.87976,0.73589 1.92023,0.94298 3.5606,2.58107 4.42966,4.42348 0.58019,1.23002 0.68642,1.82371 0.68642,3.83646 0,2.02286 -0.10545,2.60615 -0.70061,3.87561 -1.50731,3.215 -4.38012,5.06475 -8.03064,5.17078 -1.16417,0.0338 -2.41433,-0.0351 -2.77813,-0.15307 z m 26.98893,-0.19067 c -2.5207,-0.9155 -4.35696,-2.62032 -5.52637,-5.13077 -0.54683,-1.17391 -0.6793,-1.86546 -0.68531,-3.57744 -0.007,-1.86929 0.0953,-2.33103 0.855,-3.87413 1.00375,-2.03891 2.43811,-3.43817 4.52975,-4.41892 1.24207,-0.5824 1.85835,-0.69722 3.74203,-0.69722 2.01551,0 2.44296,0.0925 4.02379,0.87101 6.71284,3.30574 6.7383,12.93212 0.0429,16.22825 -2.13266,1.0499 -5.05126,1.30039 -6.98181,0.59922 z m 27.32999,-0.0513 c -2.54058,-0.90713 -4.03177,-2.23782 -5.39559,-4.81484 -0.53498,-1.01086 -0.63062,-1.57013 -0.63349,-3.70417 -0.003,-2.17098 0.0922,-2.71747 0.69812,-4.00986 0.86569,-1.84652 2.44706,-3.41617 4.41563,-4.38289 1.30062,-0.63871 1.81045,-0.73537 3.8787,-0.73537 2.06471,0 2.57907,0.0971 3.86941,0.73082 1.76066,0.86464 3.74776,2.89275 4.54194,4.63566 0.80853,1.7744 0.80853,5.4843 0,7.2587 -0.78934,1.73228 -2.77899,3.7704 -4.50525,4.61497 -1.93334,0.9459 -4.87248,1.12003 -6.86947,0.40698 z m 334.73773,0.1192 c -1.06354,-0.48242 -2.14929,-1.80166 -2.48878,-3.02403 -0.37134,-1.33704 -0.36983,-31.19897 0.003,-34.19611 0.33086,-2.66906 1.43788,-6.03832 2.66811,-8.12071 1.2582,-2.12967 4.5143,-5.34617 6.71124,-6.6296 3.43159,-2.00469 7.26924,-2.8862 11.37708,-2.61331 7.41204,0.4924 13.23702,4.36034 16.39734,10.88827 1.43827,2.9709 1.9912,5.43139 1.9912,8.86078 0,7.2956 -3.05308,13.26862 -8.66696,16.95594 -5.98458,3.93083 -14.07339,3.74925 -19.97479,-0.4484 -0.69157,-0.4919 -1.31665,-0.89437 -1.38906,-0.89437 -0.0724,0 -0.13169,3.64318 -0.13169,8.09595 0,9.02252 -0.0463,9.29872 -1.78289,10.62324 -1.09802,0.83749 -3.42646,1.0857 -4.71252,0.50235 z m 20.00729,-23.8751 c 2.97124,-0.86884 5.26915,-2.89374 6.69218,-5.89713 0.79296,-1.67358 0.83032,-1.90126 0.83032,-5.05972 0,-3.16872 -0.0353,-3.38183 -0.8427,-5.08617 -1.8148,-3.83099 -4.96287,-6.03012 -8.93016,-6.23835 -5.97702,-0.31372 -10.39059,3.3813 -11.33621,9.4906 -1.28547,8.30482 5.87489,15.04579 13.58657,12.79077 z m -248.858735,23.69786 c -5.30914,-0.5556 -10.169239,-2.91757 -13.569473,-6.59466 -2.561614,-2.77018 -2.495344,-5.50043 0.174603,-7.19366 2.146544,-1.36129 4.368366,-0.86112 6.39323,1.43925 2.913248,3.30963 8.335555,4.80699 12.754887,3.52226 4.0005717,-1.163 6.9015188,-4.91372 7.2809313,-9.41374 l 0.1441582,-1.7098 -1.429795,1.25912 c -5.0012045,4.40419 -12.9160425,5.08589 -19.4214585,1.67275 -2.122111,-1.11339 -5.600377,-4.57476 -6.821452,-6.78832 -3.576492,-6.48344 -3.57581,-15.29414 0.0016,-21.42279 0.549428,-0.94124 1.832396,-2.55924 2.851041,-3.59555 3.71982,-3.78434 8.426254,-5.66932 14.155208,-5.66932 5.810816,0 10.4020801,1.86733 14.3338491,5.8298 1.64086098,1.65366 2.25858638,2.52191 3.2176057,4.52253 2.1246912,4.43234 2.1613252,4.71792 2.1504252,16.76346 -0.0092,10.12167 -0.03531,10.67566 -0.59952,12.69999 -1.4126234,5.0684 -4.1110875,8.90613 -8.205361,11.66958 -3.5147195,2.37228 -8.597558,3.51278 -13.41054,3.0091 z m 7.161056,-24.30522 c 3.2813487,-1.53553 5.4976442,-4.71902 5.8987551,-8.47298 0.8623511,-8.0707 -3.8868612,-13.64461 -11.2351871,-13.18616 -4.58054,0.28577 -8.074069,3.0302 -9.39556,7.38092 -0.741452,2.44107 -0.616815,6.47158 0.270778,8.75649 0.678624,1.74696 2.720948,4.13012 4.36523,5.09373 2.863734,1.67826 7.045404,1.85553 10.095984,0.428 z m -59.019387,9.10357 c -5.224788,-1.14737 -9.694344,-4.56015 -12.241879,-9.34743 -3.303545,-6.20796 -3.20167,-14.49031 0.250688,-20.38062 1.338786,-2.28419 5.270515,-6.08048 7.493274,-7.23513 3.363148,-1.74705 5.321501,-2.19921 9.525,-2.19921 3.144491,0 4.002585,0.0936 5.679217,0.61912 6.577703,2.06193 11.085999,6.52558 13.268497,13.13708 0.589272,1.7851 0.61432,2.2205 0.69257,12.03854 l 0.08119,10.18646 -0.605713,1.05294 c -1.917028,3.33246 -7.214539,2.80403 -8.417049,-0.83961 l -0.280197,-0.849 -1.679175,1.14961 c -3.825383,2.61896 -9.223576,3.66486 -13.766421,2.66725 z m 9.793297,-9.24266 c 4.070729,-2.01186 6.182572,-5.9646 5.879235,-11.00415 -0.30321,-5.03747 -3.015729,-8.71785 -7.436636,-10.09012 -4.807497,-1.49226 -10.014169,0.59628 -12.394376,4.97175 -2.506263,4.60719 -1.863802,10.21255 1.594239,13.90947 2.29398,2.45245 4.851513,3.45336 8.354676,3.26968 1.727718,-0.0906 2.415659,-0.27219 4.002862,-1.05663 z m 89.690031,9.24538 c -7.204585,-1.32337 -12.950882,-6.25157 -15.12064,-12.96792 -0.534445,-1.65434 -0.715137,-2.8557 -0.819558,-5.44895 -0.273888,-6.80199 1.655861,-11.8943 6.048592,-15.9613 3.279902,-3.03668 7.141075,-4.5936 12.013456,-4.84409 10.937152,-0.56231 18.230921,6.20318 19.065586,17.68469 0.14555,2.00217 0.100607,2.32607 -0.46957,3.38421 -0.411003,0.76274 -0.995341,1.3615 -1.678363,1.71979 -1.011235,0.53046 -1.485016,0.55239 -13.563379,0.62793 l -12.515543,0.0783 0.173747,0.58319 c 0.660341,2.21645 3.008603,4.78129 5.491249,5.99771 4.054205,1.98642 8.157929,1.70797 12.431352,-0.84352 1.459619,-0.87148 2.055016,-1.07615 3.175,-1.09142 2.334279,-0.0318 4.108934,1.47386 4.359741,3.69901 0.17712,1.57139 -0.312603,2.58546 -1.757194,3.63862 -4.625519,3.37218 -11.063305,4.80386 -16.834476,3.74378 z m 12.30054,-24.01989 c -0.0061,-0.77964 -1.386113,-3.20185 -2.506832,-4.39999 -1.526265,-1.6317 -3.360214,-2.45296 -5.844915,-2.61739 -4.606203,-0.30483 -8.470546,1.78795 -10.251017,5.55155 -0.390077,0.82456 -0.709234,1.56611 -0.709234,1.64788 0,0.0818 4.345781,0.14868 9.657291,0.14868 7.550822,0 9.656728,-0.0721 9.654707,-0.33073 z m 81.758828,24.02391 c -10.42678,-2.23499 -17.03006,-11.64485 -15.62341,-22.26378 0.80749,-6.0957 3.71372,-10.99627 8.36692,-14.10852 5.97612,-3.99706 14.83429,-3.81145 20.4003,0.42747 l 1.10985,0.84524 0.0831,-8.27352 0.083,-8.27352 0.704,-1.06317 c 0.87818,-1.32626 2.13784,-1.9409 3.96619,-1.93528 1.75792,0.005 3.27837,0.81336 3.96737,2.10819 0.46355,0.87116 0.49057,1.89203 0.49057,18.54465 0,16.52867 -0.0316,17.74639 -0.50941,19.61445 -1.00189,3.91738 -3.51858,7.91037 -6.52073,10.34584 -1.83748,1.49063 -5.14107,3.1772 -7.38965,3.77261 -2.20639,0.58424 -6.97971,0.71986 -9.12813,0.25934 z m 8.06783,-8.89399 c 2.11347,-0.79678 4.34142,-3.00598 5.47545,-5.42933 0.70146,-1.49901 0.84738,-2.16734 0.95327,-4.36606 0.0754,-1.56671 -2.1e-4,-3.09342 -0.19079,-3.85027 -0.82206,-3.26469 -3.10452,-6.08078 -6.03684,-7.4482 -1.33477,-0.62245 -1.84756,-0.7093 -4.16788,-0.70594 -3.38812,0.005 -5.05087,0.61733 -7.28051,2.68158 -3.76187,3.48284 -4.66847,9.12389 -2.25208,14.01309 2.47047,4.9987 8.11731,7.13419 13.49938,5.10513 z m 40.26482,8.88656 c -2.34735,-0.48928 -5.76069,-2.16104 -7.55377,-3.69964 -5.11352,-4.3878 -7.53708,-10.70527 -6.87729,-17.92688 0.65217,-7.13817 5.21933,-13.41466 11.76655,-16.17035 5.56913,-2.34401 12.83197,-1.86789 18.03326,1.18218 2.41646,1.41703 5.8139,5.00483 7.14452,7.5448 2.10724,4.02254 2.25983,5.01926 2.3804,15.55125 0.11993,10.4742 0.0552,10.99637 -1.54295,12.44018 -2.36074,2.1328 -6.31547,1.27319 -7.37033,-1.60205 -0.2077,-0.56606 -0.40818,-1.07093 -0.44551,-1.12192 -0.0373,-0.051 -0.52226,0.26976 -1.07759,0.71278 -1.24516,0.99327 -3.70608,2.22047 -5.63994,2.81246 -1.99348,0.61025 -6.53458,0.75301 -8.81735,0.27719 z m 9.15723,-8.86596 c 3.2874,-1.2397 5.91357,-4.68527 6.53473,-8.57366 1.09853,-6.87644 -3.2853,-12.87492 -9.73224,-13.3168 -4.63971,-0.31801 -8.42907,1.94254 -10.46726,6.24427 -0.79296,1.67358 -0.83032,1.90126 -0.83032,5.05973 0,3.17047 0.0349,3.38107 0.84484,5.09078 1.38078,2.91485 4.17314,5.26178 7.15772,6.01593 1.53966,0.38905 4.76705,0.13043 6.49253,-0.52025 z m 127.06514,8.96271 c -4.24916,-0.61894 -7.59175,-2.33238 -10.72867,-5.4996 -2.48624,-2.51026 -3.75383,-4.6171 -4.79169,-7.96416 -0.53056,-1.7111 -0.61613,-2.54914 -0.62134,-6.08541 -0.005,-3.56998 0.0742,-4.35801 0.61359,-6.08542 1.66352,-5.32752 5.06167,-9.40715 9.69912,-11.64414 3.35553,-1.61862 4.98052,-1.9553 9.39271,-1.94603 3.57706,0.007 4.00643,0.0642 6.35,0.83755 6.1736,2.03731 10.77815,6.90979 12.47973,13.20593 0.43678,1.61612 0.55679,2.83021 0.55679,5.63211 0,4.24494 -0.51845,6.54842 -2.20241,9.7852 -3.74793,7.20397 -11.92012,11.04982 -20.74783,9.76397 z m 7.59774,-8.94596 c 1.85534,-0.71556 4.06088,-2.66635 5.03217,-4.45093 1.88166,-3.45723 1.9517,-8.52818 0.16613,-12.02818 -0.90789,-1.77963 -2.97667,-3.7626 -4.80785,-4.60843 -1.49746,-0.69169 -1.90955,-0.76046 -4.55676,-0.76046 -2.61816,0 -3.06552,0.0727 -4.45492,0.72356 -2.89071,1.35424 -4.85259,3.59893 -5.76186,6.5925 -0.74144,2.44107 -0.6168,6.47158 0.2708,8.75649 1.06447,2.74027 3.9479,5.34099 6.844,6.17297 1.82386,0.52395 5.38388,0.32925 7.26829,-0.39752 z m -251.419289,8.69299 c -0.872807,-0.36689 -1.799484,-1.2501 -2.340374,-2.23058 -0.390165,-0.70726 -0.446866,-2.43717 -0.520317,-15.875 -0.04534,-8.29468 -0.0078,-15.70031 0.08352,-16.45696 0.18076,-1.4985 0.901515,-2.76211 2.06883,-3.62704 0.587216,-0.4351 1.134903,-0.55349 2.560293,-0.55349 2.000356,0 2.852949,0.42112 3.835241,1.89436 l 0.52795,0.7918 1.876583,-1.01221 c 2.617497,-1.41187 5.388875,-2.07083 8.709184,-2.07083 9.135321,0 15.650631,5.54815 17.041361,14.51166 0.16989,1.09486 0.28885,5.88282 0.28885,11.62501 0,9.68135 -0.005,9.77311 -0.60926,10.91557 -1.66624,3.15088 -6.465146,3.14994 -8.055848,-0.002 -0.584279,-1.15761 -0.595391,-1.35604 -0.599228,-10.71453 -0.0048,-11.71349 -0.157215,-12.6424 -2.491131,-15.1811 -1.114822,-1.21266 -2.955369,-2.09735 -5.144267,-2.47271 -4.181396,-0.71703 -8.516805,1.16937 -10.072317,4.38263 -0.520806,1.07587 -0.544883,1.57529 -0.550942,11.4264 -0.0034,5.66575 -0.114617,10.76839 -0.247015,11.33922 -0.272944,1.17682 -0.909373,2.12623 -1.942279,2.8974 -0.819812,0.61209 -3.375898,0.85041 -4.418833,0.41199 z m 197.246729,0.006 c -1.06431,-0.34666 -1.54591,-0.7478 -2.21448,-1.84451 -0.5566,-0.91308 -0.56168,-1.06969 -0.56266,-17.4218 0,-16.47468 -8e-5,-16.50203 0.57689,-17.52862 1.54414,-2.7474 6.49531,-2.74616 7.80823,0.002 l 0.47596,0.99624 1.40396,-0.89811 c 0.77216,-0.49396 2.20125,-1.21518 3.17574,-1.60272 1.63877,-0.65172 2.0697,-0.70506 5.74053,-0.71042 3.61556,-0.005 4.09218,0.05 5.35559,0.62114 1.54972,0.70056 3.22241,2.36979 3.28327,3.27642 0.13689,2.03988 -0.39577,3.32348 -1.71837,4.14088 -1.04579,0.64634 -1.53466,0.66974 -5.00837,0.2397 -3.20432,-0.39668 -6.10754,-0.0441 -8.18076,0.99349 -1.74723,0.87445 -2.4882,1.54111 -3.21596,2.8934 -0.55211,1.0259 -0.57362,1.41657 -0.70186,12.74726 -0.12861,11.36364 -0.1478,11.7097 -0.68911,12.43541 -0.30625,0.41057 -0.91985,0.9591 -1.36353,1.21895 -0.97687,0.57212 -3.07948,0.79491 -4.16507,0.44133 z m -439.40783,-11.63588 c -2.68333,-0.67616 -5.23269,-2.77201 -6.3723,-5.23872 -0.45867,-0.9928 -0.57157,-1.73346 -0.57173,-3.75064 -1.9e-4,-2.36128 0.0548,-2.61492 0.90728,-4.1873 0.99613,-1.83726 2.37094,-3.16261 4.2319,-4.07966 1.01173,-0.49857 1.6453,-0.59658 3.85645,-0.59658 2.5124,0 2.73035,0.0458 4.32166,0.90858 1.85083,1.00346 3.16343,2.42431 4.06865,4.40416 0.8972,1.9623 0.85561,5.2664 -0.0917,7.28672 -0.96314,2.05409 -2.37494,3.5235 -4.29224,4.46738 -1.80372,0.88797 -4.34495,1.21771 -6.05797,0.78606 z m 27.41026,-0.004 c -4.83627,-0.95682 -8.10851,-6.22264 -6.87028,-11.05594 1.7756,-6.93083 10.24965,-9.3176 15.26716,-4.30009 1.90719,1.90719 2.62475,3.70612 2.62446,6.57953 -1.7e-4,1.6994 -0.12688,2.30603 -0.75779,3.62809 -1.26742,2.65587 -3.23199,4.30403 -5.97832,5.01545 -1.70784,0.44242 -2.58374,0.46959 -4.28523,0.13296 z m 27.26238,0.0401 c -2.51274,-0.64744 -4.92579,-2.5861 -6.12882,-4.92392 -0.52921,-1.02842 -0.70542,-1.82355 -0.79155,-3.57187 -0.15107,-3.06621 0.5105,-4.84621 2.56462,-6.90033 4.52238,-4.52238 12.06036,-3.22759 14.75651,2.53471 0.64289,1.374 0.74226,1.90775 0.73887,3.96875 -0.005,2.8545 -0.52228,4.20713 -2.36277,6.17476 -2.09704,2.2419 -5.96983,3.44117 -8.77686,2.7179 z m -71.00498,-30.25778 c 0.008,-5.28676 1.12746,-8.46417 3.99367,-11.33702 2.87046,-2.8771 6.32951,-4.03522 11.61215,-3.88787 l 2.77812,0.0775 0.1435,3.57188 c 0.12751,3.17395 0.22036,3.71983 0.83349,4.90003 0.86193,1.65911 2.99602,3.68173 4.61842,4.37717 3.54884,1.52121 7.55269,0.58547 10.24473,-2.39429 1.72249,-1.90658 2.11008,-3.10286 2.27294,-7.0152 l 0.14317,-3.43959 h 9.12813 9.12812 l 0.1435,3.57188 c 0.12748,3.17335 0.22035,3.71948 0.83232,4.89479 0.91188,1.75128 2.64915,3.43037 4.44482,4.29596 2.1011,1.01283 5.06699,1.02405 7.19341,0.0272 2.00808,-0.94135 3.75178,-2.6 4.6446,-4.41803 0.66887,-1.36204 0.74115,-1.80221 0.82589,-5.03036 l 0.0929,-3.53771 3.87587,0.12631 c 3.30231,0.10762 4.14158,0.22546 5.67134,0.79635 3.92088,1.46322 6.78208,4.41112 8.11143,8.35724 0.44655,1.32555 0.54415,2.2812 0.54415,5.3278 v 3.71251 h -45.64062 -45.64063 l 0.005,-2.97656 z m 25.45431,-6.45872 c -1.13263,-0.55826 -2.08783,-1.71551 -2.42851,-2.9422 -0.35981,-1.29552 -0.35981,-14.69534 0,-15.99086 0.32542,-1.17174 1.35145,-2.45827 2.38798,-2.99428 0.412,-0.21306 1.39224,-0.38737 2.17831,-0.38737 1.65425,0 2.84746,0.65829 3.82649,2.11108 l 0.61181,0.90786 -0.0764,8.47855 c -0.0756,8.40104 -0.082,8.48646 -0.69394,9.34443 -1.236,1.73291 -3.90461,2.40987 -5.80579,1.47279 z m 36.5125,0 c -1.13263,-0.55826 -2.08783,-1.71551 -2.42852,-2.9422 -0.15707,-0.56555 -0.2739,-4.05353 -0.27475,-8.20237 -0.001,-5.91918 0.0722,-7.39479 0.40803,-8.19847 0.84508,-2.02257 2.26092,-2.97167 4.43302,-2.97167 1.65424,0 2.84746,0.65829 3.82649,2.11108 l 0.61181,0.90786 -0.0764,8.47855 c -0.0756,8.40104 -0.082,8.48646 -0.69394,9.34443 -1.236,1.73291 -3.90461,2.40987 -5.80579,1.47279 z"
       id="path908" />
  </g>
</svg>
