<?xml version="1.0" encoding="UTF-8" standalone="no"?>
<!-- Created with Inkscape (http://www.inkscape.org/) -->

<svg
   width="416.38416mm"
   height="102.1747mm"
   viewBox="0 0 416.38416 102.1747"
   version="1.1"
   id="svg5"
   inkscape:version="1.1 (c68e22c387, 2021-05-23)"
   sodipodi:docname="logo_rezebra.svg"
   xmlns:inkscape="http://www.inkscape.org/namespaces/inkscape"
   xmlns:sodipodi="http://sodipodi.sourceforge.net/DTD/sodipodi-0.dtd"
   xmlns="http://www.w3.org/2000/svg"
   xmlns:svg="http://www.w3.org/2000/svg">
  <sodipodi:namedview
     id="namedview7"
     pagecolor="#ffffff"
     bordercolor="#666666"
     borderopacity="1.0"
     inkscape:pageshadow="2"
     inkscape:pageopacity="0.0"
     inkscape:pagecheckerboard="0"
     inkscape:document-units="mm"
     showgrid="false"
     fit-margin-top="0"
     fit-margin-left="0"
     fit-margin-right="0"
     fit-margin-bottom="0"
     inkscape:zoom="0.37059484"
     inkscape:cx="1037.5212"
     inkscape:cy="222.61508"
     inkscape:window-width="1920"
     inkscape:window-height="1017"
     inkscape:window-x="-8"
     inkscape:window-y="-8"
     inkscape:window-maximized="1"
     inkscape:current-layer="layer1" />
  <defs
     id="defs2" />
  <g
     inkscape:label="Capa 1"
     inkscape:groupmode="layer"
     id="layer1"
     transform="translate(116.80215,-55.292748)">
    <path
       style="fill:#ffffff;stroke-width:0.0846667;fill-opacity:1"
       d="m -108.52632,157.38574 c -2.97894,-0.34771 -5.74363,-2.24027 -7.16877,-4.90733 -0.46501,-0.87025 -0.81965,-1.92511 -0.984,-2.92685 -0.12642,-0.77058 -0.13591,-4.40918 -0.11362,-43.55516 l 0.0243,-42.714329 0.22855,-0.82782 c 0.93166,-3.37459 3.52771,-5.97065 6.9023,-6.90231 l 0.82782,-0.22854 42.418002,-0.0249 c 28.597489,-0.0168 42.666275,0.003 43.179999,0.062 3.892634,0.44366 7.122508,3.15187 8.202118,6.87739 0.321919,1.11085 0.476216,2.66195 0.476216,4.78709 v 1.87338 l -18.881249,18.82355 -18.881247,18.823549 18.847128,18.84727 18.847126,18.84728 -0.03673,2.65872 c -0.03504,2.53735 -0.04682,2.69649 -0.25792,3.48652 -0.41993,1.57155 -1.20065,2.95938 -2.329459,4.14088 -1.106128,1.15779 -2.337733,1.9471 -3.801289,2.43621 -1.644168,0.54946 1.75116,0.51149 -44.687361,0.49981 -23.236767,-0.006 -42.502134,-0.0402 -42.811934,-0.0764 z m 85.439255,-9.01155 c 0.422715,-0.38254 1.494748,0.72913 -20.71967,-21.48596 l -20.891349,-20.89199 20.510349,-20.510489 c 21.962145,-21.96229 20.732116,-20.68338 20.3485,-21.15714 l -0.161857,-0.19988 -42.150311,-0.0214 -42.150317,-0.0214 v 42.206109 42.2061 l 6.985,0.0278 c 3.841753,0.0153 22.976423,0.0224 42.521494,0.0157 34.343301,-0.0117 35.542257,-0.0173 35.708161,-0.16744 z m -62.735652,-21.25345 20.3622,-20.36233 20.341233,20.3411 c 11.187677,11.1876 20.341231,20.35065 20.341231,20.36233 0,0.0117 -18.316544,0.0212 -40.703432,0.0212 h -40.703435 z m 29.654452,2.13788 -9.419119,-9.41912 -9.41912,9.41912 -9.419119,9.41912 h 18.838239 18.838238 z m -51.138705,-23.1356 0.0212,-40.978289 40.957502,-0.0212 c 22.526625,-0.0117 40.957499,0.007 40.957499,0.0424 0,0.0561 -71.764165,71.820089 -79.099921,79.099719 l -2.85759,2.83573 z m 34.643799,-6.544439 c 13.833666,-13.43278 25.399416,-24.66585 25.701669,-24.96237 l 0.549549,-0.53914 h -25.801382 -25.801382 v 25.02399 c 0,19.178529 0.02329,25.009609 0.09971,24.962379 0.05484,-0.0339 11.418167,-11.05208 25.251833,-24.484859 z M 135.66528,152.01274 v -5.37633 h -1.35467 -1.35467 v -0.55034 -0.55033 h 1.86267 1.86267 v 5.92667 5.92666 h -0.508 -0.508 z m 1.10066,-0.55033 v -5.92667 h 1.90904 1.90904 l -0.0252,0.52917 -0.0252,0.52916 -1.3335,0.0233 -1.3335,0.0233 v 5.37418 5.37418 h -0.55033 -0.55034 z m 11.00667,-0.59267 v -6.51933 h 3.81 3.81 v 0.55033 0.55033 h -3.25967 -3.25966 v 5.41867 5.41867 h 3.25966 3.25967 v 0.55033 0.55033 h -3.81 -3.81 z m 17.81882,6.40123 c -1.10497,-0.26844 -2.04361,-1.02694 -2.55743,-2.06659 l -0.31772,-0.64286 v -3.69178 -3.69178 l 0.31772,-0.64286 c 1.31984,-2.67052 4.88801,-2.91205 6.58488,-0.44573 0.39754,0.57781 0.58732,1.27883 0.61135,2.25824 l 0.0214,0.87113 -0.2462,0.0281 c -0.13542,0.0155 -0.36858,0.005 -0.51815,-0.0229 l -0.27195,-0.051 -0.0387,-0.86895 c -0.0348,-0.78386 -0.0663,-0.92092 -0.32146,-1.39959 -0.31606,-0.59299 -0.58448,-0.85165 -1.21916,-1.17483 -0.46269,-0.23561 -1.45091,-0.35755 -1.80321,-0.22251 -0.12179,0.0467 0.0816,0.0713 0.59267,0.0717 0.87222,8.5e-4 1.22187,0.13157 1.83774,0.68797 0.54407,0.49154 0.77997,1.08153 0.82756,2.06977 l 0.0404,0.83999 h -0.56165 -0.56166 v -0.67183 c 0,-0.76291 -0.0831,-1.04592 -0.40755,-1.3889 -0.33513,-0.3542 -0.63102,-0.47929 -1.13341,-0.47914 -0.55152,0 -0.94392,0.18932 -1.28935,0.62156 l -0.26002,0.32535 v 3.28629 3.28629 l 0.26002,0.32535 c 0.34543,0.43223 0.73783,0.6214 1.28935,0.62156 0.5297,0 0.82785,-0.13667 1.18555,-0.54406 0.28691,-0.32678 0.34587,-0.5528 0.37704,-1.44547 l 0.0207,-0.59267 h 0.508 0.508 l -0.004,0.85347 c -0.004,0.75487 -0.0312,0.9086 -0.23758,1.3305 -0.91329,1.86669 -3.52108,2.00086 -4.63864,0.23865 -0.13305,-0.20979 -0.2419,-0.3416 -0.2419,-0.2929 0,0.13999 0.44975,0.72335 0.78286,1.01543 1.00802,0.88387 2.67994,0.79474 3.67033,-0.19565 0.50681,-0.50681 0.73687,-1.11804 0.79151,-2.10283 l 0.047,-0.84667 h 0.508 0.508 l -0.0214,0.87113 c -0.0337,1.37307 -0.36115,2.14605 -1.26854,2.99451 -0.51151,0.47828 -0.94673,0.70909 -1.64959,0.8748 -0.63024,0.14859 -1.13748,0.15148 -1.72068,0.01 z m -1.76075,-3.28973 c -0.0235,-0.0582 -0.0427,-0.0106 -0.0427,0.10583 0,0.11642 0.0192,0.16404 0.0427,0.10584 0.0235,-0.0582 0.0235,-0.15346 0,-0.21167 z m -0.0774,-4.61433 c -0.0139,-0.82656 -0.0252,-0.15029 -0.0252,1.50283 0,1.65312 0.0113,2.32939 0.0252,1.50283 0.0139,-0.82656 0.0139,-2.17911 0,-3.00566 z m 0.0774,-1.82034 c -0.0235,-0.0582 -0.0427,-0.0106 -0.0427,0.10584 0,0.11641 0.0192,0.16404 0.0427,0.10583 0.0235,-0.0582 0.0235,-0.15346 0,-0.21167 z m 0.6247,-1.11281 c 0.15385,-0.17522 0.47318,-0.42954 0.70964,-0.56517 0.4823,-0.27664 0.4674,-0.33553 -0.0218,-0.086 -0.51856,0.26455 -1.28812,1.19375 -1.28212,1.5481 0.001,0.0605 0.0722,-0.0448 0.15819,-0.23416 0.086,-0.18931 0.28221,-0.48757 0.43605,-0.66278 z m 13.05587,4.45715 0.0217,-6.49817 h 0.508 0.508 l 0.0217,6.49817 0.0217,6.49816 h -0.55139 -0.55138 z m 1.16469,3.19616 v -3.302 h 2.62467 2.62467 v 3.30604 3.30604 l -0.52917,-0.0252 -0.52917,-0.0252 -0.0223,-2.77283 -0.0223,-2.77284 h -1.56518 -1.56518 v 2.794 2.794 h -0.508 -0.508 z m 5.334,-3.21733 v -6.52741 l 0.52917,0.0252 0.52917,0.0252 v 6.477 6.477 l -0.52917,0.0252 -0.52917,0.0252 z m 8.26912,6.46289 c -0.031,-0.031 -0.0565,-2.96941 -0.0565,-6.5297 0,-5.21781 0.0208,-6.45598 0.10735,-6.38416 0.059,0.049 1.26872,1.55218 2.68816,3.34041 l 2.58082,3.25132 0.0221,-3.33004 0.0221,-3.33005 h 0.54937 0.54936 v 4.86833 c 0,2.67758 -0.0144,4.86833 -0.0319,4.86833 -0.0176,0 -1.22723,-1.50986 -2.68816,-3.35524 l -2.65624,-3.35525 -0.0218,5.00625 -0.0218,5.00624 h -0.49322 c -0.27126,0 -0.51862,-0.0254 -0.54965,-0.0564 z m 1.12888,-4.83003 c 0,-4.08671 0.0186,-4.86619 0.11332,-4.7625 0.0623,0.0682 1.27201,1.58513 2.68817,3.37098 l 2.57484,3.24701 0.0218,-5.00786 0.0218,-5.00787 0.52849,0.0252 0.5285,0.0252 0.0217,6.49817 c 0.0119,3.57399 -0.007,6.49659 -0.0423,6.49467 -0.0352,-0.002 -1.24513,-1.50032 -2.68869,-3.32977 l -2.62467,-3.32627 -0.0221,3.32977 -0.0221,3.32976 h -0.54937 -0.54936 z m 16.63349,4.76837 c -1.10497,-0.26844 -2.04361,-1.02694 -2.55744,-2.06659 l -0.31772,-0.64286 v -3.69178 -3.69178 l 0.31772,-0.64286 c 1.1393,-2.30523 4.12111,-2.88864 5.94543,-1.16327 0.54703,0.51734 0.89679,1.04723 1.11418,1.68791 0.14371,0.42352 0.15801,0.76839 0.15801,3.81 0,3.04161 -0.0143,3.38648 -0.15801,3.81 -0.64778,1.90911 -2.62521,3.04723 -4.50217,2.59123 z m 2.05385,-1.26567 c 0.58183,-0.29624 1.01145,-0.73736 1.28385,-1.31824 l 0.22181,-0.47299 v -3.34433 -3.34433 l -0.22181,-0.47299 c -0.61078,-1.30243 -2.09943,-1.92424 -3.41671,-1.42716 -0.63956,0.24133 -1.30987,0.86024 -1.58098,1.45973 -0.19832,0.43854 -0.19917,0.45467 -0.19917,3.78475 0,3.24875 0.005,3.35564 0.18296,3.74021 0.10063,0.21773 0.34828,0.57593 0.55033,0.79599 0.3469,0.37782 1.06199,0.80044 1.34105,0.79256 0.0699,-0.002 -0.0664,-0.078 -0.30274,-0.16892 -0.62639,-0.24099 -1.08532,-0.67457 -1.40821,-1.33044 l -0.27872,-0.56617 v -3.26323 -3.26323 l 0.27872,-0.56617 c 0.50554,-1.02688 1.39936,-1.55423 2.51528,-1.484 0.98027,0.0617 1.78331,0.6006 2.21998,1.48981 l 0.23535,0.47926 v 3.34433 c 0,3.23744 -0.006,3.35684 -0.18095,3.7357 -0.42385,0.91665 -1.27348,1.49788 -2.35178,1.60884 l -0.59993,0.0617 0.635,-0.0229 c 0.48886,-0.0176 0.73664,-0.0747 1.07667,-0.2478 z m -0.50096,-1.02167 c 0.30697,-0.16037 0.66325,-0.54659 0.77357,-0.83857 0.0575,-0.15225 0.09,-1.3354 0.09,-3.27532 0,-1.93992 -0.0325,-3.12307 -0.09,-3.27532 -0.11032,-0.29198 -0.4666,-0.6782 -0.77357,-0.83857 -0.31781,-0.16603 -1.06398,-0.15082 -1.41636,0.0289 -0.15967,0.0814 -0.40732,0.29439 -0.55033,0.47328 l -0.26002,0.32525 -0.0241,3.16486 c -0.0228,2.9908 -0.0151,3.18246 0.13993,3.48475 0.19077,0.37204 0.47373,0.65568 0.77322,0.7751 0.31517,0.12568 1.07706,0.11183 1.33767,-0.0243 z m 10.51562,-4.11302 v -6.5202 h 0.55033 0.55034 v 5.96799 5.96799 l 3.2385,0.0222 3.2385,0.0222 v 0.508 0.508 l -3.78884,0.022 -3.78883,0.022 z m 16.77317,6.42689 c -1.39683,-0.27432 -2.55366,-1.39757 -2.93087,-2.84579 -0.15945,-0.61215 -0.18461,-6.34702 -0.031,-7.0703 0.40921,-1.92713 2.37887,-3.29422 4.2776,-2.96898 1.16324,0.19925 2.28802,0.99755 2.78564,1.97705 0.43983,0.86577 0.45947,1.0573 0.45947,4.48026 0,2.38349 -0.0282,3.28054 -0.11325,3.59833 -0.53053,1.98315 -2.47098,3.21761 -4.44757,2.82943 z m 1.97095,-1.29704 c 0.57819,-0.28289 1.09117,-0.85052 1.31906,-1.45961 0.16198,-0.43294 0.17215,-0.64988 0.17215,-3.67111 0,-3.6404 -0.0181,-3.7607 -0.6811,-4.51385 -0.32735,-0.3719 -1.08054,-0.82697 -1.34635,-0.81347 -0.0724,0.004 0.0399,0.0671 0.24945,0.14083 0.24828,0.0874 0.55928,0.31368 0.89274,0.64949 0.79838,0.804 0.8006,0.81658 0.8006,4.537 0,2.68622 -0.0195,3.17372 -0.14246,3.55432 -0.17908,0.55449 -0.75292,1.20508 -1.3301,1.50801 -0.3705,0.19445 -0.53552,0.22696 -1.15211,0.22696 -0.61919,0 -0.78098,-0.0322 -1.15887,-0.23039 -0.54049,-0.28351 -0.97605,-0.7218 -1.23044,-1.23812 -0.18929,-0.38421 -0.1935,-0.45477 -0.21815,-3.65145 -0.0179,-2.31497 0.004,-3.36422 0.0748,-3.62045 0.19948,-0.72038 0.91912,-1.48098 1.65743,-1.75177 0.17872,-0.0656 0.26575,-0.12186 0.19339,-0.12514 -0.24841,-0.0113 -1.00073,0.4273 -1.29864,0.75706 -0.16398,0.1815 -0.38552,0.49365 -0.49231,0.69365 -0.1916,0.35884 -0.1945,0.40755 -0.21902,3.68527 -0.0161,2.14696 0.007,3.43915 0.0647,3.65399 0.11648,0.43255 0.55575,1.07485 0.95122,1.39085 0.7643,0.61071 1.97606,0.72708 2.8941,0.27793 z m -0.26819,-1.16988 c 0.60113,-0.4585 0.61336,-0.52996 0.64207,-3.74917 0.0268,-3.00785 -0.008,-3.41143 -0.33417,-3.86943 -0.39385,-0.55311 -1.35513,-0.74535 -2.02311,-0.40456 -0.18436,0.094 -0.44002,0.32939 -0.56813,0.52297 l -0.23292,0.35198 v 3.19506 3.19506 l 0.254,0.35836 c 0.37218,0.5251 0.72348,0.68846 1.40634,0.65397 0.44925,-0.0227 0.61813,-0.0729 0.85592,-0.25424 z m -0.67476,-9.35609 c -0.15134,-0.0188 -0.39899,-0.0188 -0.55034,0 -0.15134,0.0188 -0.0275,0.0341 0.27517,0.0341 0.30268,0 0.42651,-0.0154 0.27517,-0.0341 z m 12.67883,11.82162 c -1.05627,-0.20628 -2.13926,-1.09298 -2.64879,-2.16869 l -0.27221,-0.57468 v -3.683 -3.683 l 0.27106,-0.57222 c 0.54361,-1.14762 1.66889,-1.99295 2.91004,-2.18608 1.6081,-0.25023 3.27834,0.6631 3.99775,2.18608 0.24952,0.5282 0.27266,0.65201 0.30093,1.60939 l 0.0306,1.03716 -0.32622,-10e-4 c -0.67912,-0.002 -0.68072,-0.004 -0.72491,-0.91601 -0.0622,-1.28353 -0.53572,-2.08583 -1.54862,-2.62402 -0.36784,-0.19543 -0.52323,-0.22492 -1.18534,-0.22492 -0.66578,0 -0.81745,0.0291 -1.2012,0.23079 -0.57383,0.30155 -1.01361,0.7573 -1.2872,1.33398 l -0.22093,0.46567 v 3.3528 3.35281 l 0.29633,0.58101 c 0.52023,1.01998 1.42672,1.53206 2.58097,1.45798 1.0619,-0.0682 1.87013,-0.61904 2.31475,-1.57773 0.2007,-0.43276 0.22489,-0.59668 0.25454,-1.72505 l 0.0328,-1.24684 -1.51201,-0.0232 -1.51202,-0.0232 -0.0252,-0.52917 -0.0252,-0.52917 h 2.04167 2.04167 l -0.0268,1.9685 -0.0268,1.9685 -0.27221,0.57469 c -0.32115,0.678 -1.03409,1.46195 -1.61907,1.78034 -0.76013,0.41372 -1.75709,0.56046 -2.63839,0.38834 z m 11.87046,-0.4362 0.0252,-0.52917 2.77283,-0.0223 2.77283,-0.0223 v 0.55148 0.55149 h -2.79803 -2.79804 z m 12.76754,-5.99017 v -6.52108 l 3.78883,0.022 3.78884,0.022 v 0.508 0.508 l -3.2385,0.0222 -3.2385,0.0222 v 5.41665 5.41665 l 3.2385,0.0222 3.2385,0.0222 v 0.508 0.508 l -3.78884,0.022 -3.78883,0.022 z m 17.78,6.42637 c -1.02619,-0.20041 -2.12313,-1.0601 -2.60713,-2.04325 -0.29609,-0.60143 -0.46312,-1.48048 -0.4243,-2.23287 l 0.0258,-0.49925 h 0.508 0.508 l 0.0457,0.889 c 0.0546,1.06377 0.24192,1.52824 0.85952,2.13138 1.02137,0.99747 2.74234,1.00297 3.8016,0.0121 0.52499,-0.49107 0.76948,-1.06413 0.77417,-1.81463 0.008,-1.30624 -0.88723,-2.25703 -2.75315,-2.92341 -1.16113,-0.41468 -1.93115,-1.00972 -2.36233,-1.82551 -0.2878,-0.54451 -0.27268,-1.47903 0.0334,-2.0646 0.26323,-0.50359 0.70681,-0.91877 1.24783,-1.16794 0.57656,-0.26553 1.67495,-0.25278 2.24144,0.026 0.50457,0.24834 0.99093,0.71921 1.24931,1.20952 0.16459,0.31235 0.19182,0.49405 0.19401,1.29468 l 0.003,0.93133 h -0.46566 -0.46567 l -0.046,-0.762 c -0.0527,-0.87245 -0.18568,-1.18981 -0.64584,-1.54079 -0.27887,-0.21271 -0.37882,-0.23721 -0.96755,-0.23721 -0.53354,0 -0.70133,0.0332 -0.89559,0.17711 -0.39528,0.29289 -0.62004,0.69512 -0.62004,1.10961 0,0.79787 0.58961,1.38097 1.85964,1.83909 1.59293,0.57461 2.64938,1.40227 3.15641,2.4729 0.25659,0.54179 0.27562,0.64331 0.27562,1.47096 0,0.82365 -0.0198,0.93084 -0.26967,1.45824 -0.74791,1.57881 -2.4927,2.4346 -4.26,2.08946 z m -146.05,-3.8017 v -2.70934 h 2.70934 2.70933 v 0.508 0.508 h -2.159 -2.159 v 1.6498 1.64979 l 2.64583,0.0224 2.64584,0.0224 0.0252,0.52916 0.0252,0.52917 h -3.22138 -3.22137 z m 74.33733,-3.21734 v -5.92666 h 0.508 0.508 v 5.41866 5.41867 h 2.70934 2.70933 v 0.508 0.508 h -3.21733 -3.21734 z m 29.28471,5.80978 c -0.72826,-0.26024 -1.30926,-0.78976 -1.63209,-1.48748 -0.17163,-0.37092 -0.17828,-0.5085 -0.17828,-3.6873 v -3.302 l 0.22022,-0.46952 c 0.30047,-0.64059 0.67915,-1.04801 1.22012,-1.31268 1.32987,-0.65064 2.86853,-0.1317 3.51738,1.18629 0.23195,0.47117 0.27918,0.67414 0.31466,1.35237 l 0.0417,0.79799 -0.29419,0.0552 c -0.1618,0.0304 -0.40498,0.0426 -0.5404,0.0271 l -0.2462,-0.0281 -0.0426,-0.762 c -0.0704,-1.25966 -0.55274,-1.82033 -1.5661,-1.82033 -0.66487,0 -1.09882,0.26695 -1.40523,0.86446 -0.14957,0.29164 -0.1611,0.53271 -0.1611,3.36822 0,3.37913 0.003,3.40375 0.53541,3.87086 0.2655,0.23311 0.75861,0.44684 1.03092,0.44684 0.27232,0 0.76543,-0.21373 1.03093,-0.44684 0.40157,-0.35259 0.53541,-0.69502 0.53541,-1.36983 v -0.55305 h -0.93134 -0.93133 v -0.508 -0.508 h 1.49108 1.49108 l -0.0313,1.2065 c -0.029,1.11582 -0.0491,1.24287 -0.26817,1.69032 -0.56911,1.16253 -2.04364,1.80241 -3.20064,1.38896 z m 11.86329,-0.39111 v -0.508 h 0.84667 0.84667 v -4.2726 -4.2726 l -0.8255,-0.0242 -0.8255,-0.0242 -0.0252,-0.52916 -0.0252,-0.52917 h 1.40104 1.40103 v 5.334 5.334 h -1.397 -1.397 z m 2.87867,-4.826 v -5.334 h 1.35467 1.35466 v 0.55033 0.55034 h -0.84666 -0.84667 v 4.27566 4.27567 h 0.84667 0.84666 v 0.508 0.508 h -1.35466 -1.35467 z m 11.09133,2.62467 v -2.70934 h 2.71356 2.71356 l -0.0254,0.48684 -0.0254,0.48683 -2.18017,0.0226 -2.18017,0.0226 v 1.64838 1.64838 l 2.68817,0.0224 2.68817,0.0224 0.0252,0.52916 0.0252,0.52917 h -3.22137 -3.22138 z m 16.67934,2.63016 c -0.76483,-0.2335 -1.47231,-0.87328 -1.74365,-1.5768 -0.11801,-0.30599 -0.16135,-0.63442 -0.16135,-1.2227 v -0.80433 h 0.508 0.508 l 0.0423,0.80433 c 0.0501,0.95147 0.2142,1.29035 0.77898,1.60851 0.69738,0.39285 1.65625,0.19944 2.07646,-0.41883 0.21461,-0.31577 0.31891,-0.75808 0.24665,-1.04598 -0.1495,-0.59566 -0.87194,-1.19514 -1.80943,-1.50145 -2.4137,-0.78864 -3.81598,-2.58287 -3.49773,-4.47534 0.19358,-1.15111 0.91497,-2.17228 1.87702,-2.65707 0.73298,-0.36935 1.65942,-0.52691 2.39328,-0.40704 1.51273,0.2471 2.67172,1.22468 3.10146,2.61603 0.11911,0.3856 0.16731,0.78427 0.16731,1.38365 v 0.84197 l -0.48683,-0.0254 -0.48684,-0.0254 -0.0547,-0.77719 c -0.0784,-1.11308 -0.25302,-1.56798 -0.82502,-2.14863 -0.63156,-0.64111 -1.22986,-0.87469 -2.10221,-0.82074 -1.56892,0.097 -2.64308,1.23277 -2.54247,2.68823 0.0864,1.25017 0.915,2.09693 2.70202,2.76132 0.91028,0.33842 1.24112,0.53091 1.79768,1.04598 0.55999,0.51822 0.81116,1.07126 0.81222,1.78834 0.002,1.0763 -0.68875,2.00269 -1.72904,2.32024 -0.43869,0.13391 -1.21368,0.15771 -1.57213,0.0483 z m -116.41667,-8.59916 v -3.175 h 0.508 0.508 v 2.62466 2.62467 h 1.56511 1.56511 l 0.0224,-2.6035 0.0224,-2.6035 0.52917,-0.0252 0.52917,-0.0252 v 3.17904 3.17904 h -2.62467 -2.62467 z m -29.718,0.55033 v -2.54 h 3.22137 3.22138 l -0.0252,0.52917 -0.0252,0.52916 -2.64584,0.0224 -2.64583,0.0224 v 1.48046 1.48046 h 2.159 2.159 v 0.508 0.508 h -2.70933 -2.70934 z m 129.45533,0 v -2.54 h 3.22138 3.22137 l -0.0252,0.52917 -0.0252,0.52916 -2.68817,0.0224 -2.68817,0.0224 v 1.47905 1.47904 l 2.18017,0.0226 2.18017,0.0226 0.0254,0.48684 0.0254,0.48683 h -2.71356 -2.71356 z m -145.45733,-3.17587 v -0.55121 l 3.78884,0.022 3.78883,0.022 0.0252,0.52917 0.0252,0.52916 h -3.81404 -3.81404 z m 131.50446,0.022 0.0252,-0.52917 2.77283,-0.0223 2.77283,-0.0223 v 0.55149 0.55149 h -2.79803 -2.79804 z m -279.058488,-36.66067 0.02237,-22.965839 0.227711,-0.82454 c 0.320354,-1.15999 0.746862,-1.93012 1.472836,-2.65943 0.923968,-0.92822 2.043938,-1.41587 3.7604527,-1.63735 0.504706,-0.0651 5.119954,-0.0854 15.451666,-0.0678 l 14.7320003,0.025 0.824544,0.22746 c 1.18629,0.32726 1.929451,0.74155 2.697861,1.50398 0.734983,0.72926 1.140062,1.46527 1.453811,2.64153 l 0.188451,0.70653 v 10.24467 10.244669 l -0.195207,0.71967 c -0.281805,1.03893 -0.713461,1.85688 -1.329919,2.52009 -1.158841,1.24674 -2.591401,1.75667 -5.261229,1.87279 l -1.198346,0.0521 4.014105,10.033 c 2.20776,5.51815 4.035552,10.09997 4.061765,10.18182 0.04517,0.14104 -0.221454,0.14769 -5.097289,0.127 l -5.144956,-0.0218 -4.251596,-10.16 -4.2515883,-10.16 -5.976374,-0.0217 -5.976366,-0.0217 v 10.2029 10.2029 h -5.123535 -5.1235437 z M 16.031281,95.455401 v -5.03767 H 5.8289467 -4.3733863 v 5.03767 5.037669 H 5.8289467 16.031281 Z m 22.544108,35.681579 c -1.572192,-0.20451 -2.727503,-0.73078 -3.663247,-1.66871 -0.744296,-0.74603 -1.149206,-1.48153 -1.462744,-2.657 l -0.188451,-0.70653 v -20.447 -20.447009 l 0.188451,-0.70652 c 0.312336,-1.17097 0.719049,-1.91165 1.453812,-2.64757 0.757732,-0.75893 1.488626,-1.16358 2.712161,-1.50153 l 0.810243,-0.22381 14.457493,-0.0236 14.457485,-0.0236 -0.02182,5.14561 -0.02183,5.1456 -11.916833,0.0215 -11.916834,0.0215 v 5.03737 5.037379 h 11.726334 11.726333 v 2.35685 c 0,1.29626 -0.02521,3.62036 -0.05602,5.16466 l -0.05603,2.80783 h -11.6703 -11.67031 v 5.03737 5.03737 l 11.916834,0.0215 11.916833,0.0215 0.02182,5.1435 0.02183,5.1435 -14.118826,-0.0107 c -7.765348,-0.006 -14.356224,-0.0416 -14.646377,-0.0794 z m 41.336889,-0.003 c -2.94107,-0.26859 -4.76627,-1.71946 -5.47499,-4.35212 -0.16359,-0.60765 -0.18617,-0.95168 -0.21947,-3.34379 -0.0401,-2.88065 0.007,-3.44605 0.37822,-4.5681 0.48245,-1.45717 1.56316,-3.08905 3.36891,-5.08709 1.22325,-1.35352 1.32149,-1.4435 14.4171,-13.20537 l 11.264962,-10.117659 -14.724862,-0.0214 -14.72487,-0.0214 v -5.16443 -5.16443 l 17.42017,5.1e-4 c 18.475572,5.1e-4 18.183912,-0.005 19.494492,0.38512 1.39886,0.41664 2.62319,1.43439 3.21516,2.67267 0.68496,1.43279 0.71607,1.65597 0.71854,5.15438 l 0.002,3.09033 -0.23725,0.75929 c -0.66268,2.12087 -1.96538,3.99152 -4.63028,6.64904 -0.8207,0.81844 -6.64434,6.086399 -13.010072,11.768669 l -11.52428,10.287 14.722682,0.0214 14.72266,0.0214 v 5.16443 5.16443 l -17.208492,-0.0116 c -9.46468,-0.006 -17.5514,-0.043 -17.9705,-0.0812 z m 47.794332,0.0483 c -0.0699,-0.0137 -0.41275,-0.0711 -0.762,-0.12769 -2.07088,-0.33527 -3.52216,-1.39379 -4.30893,-3.14279 -0.32392,-0.72007 -0.50766,-1.49679 -0.60224,-2.54578 -0.0453,-0.50273 -0.0785,-8.82548 -0.0785,-19.70855 0,-10.883069 0.0331,-19.205819 0.0785,-19.708549 0.24876,-2.75905 1.36432,-4.45444 3.48571,-5.29746 1.37299,-0.54561 0.27638,-0.50893 16.13629,-0.53964 l 14.4145,-0.0279 v 5.16678 5.16677 h -11.89566 -11.89567 v 5.03767 5.037669 h 11.89567 11.89566 v 3.06917 c 0,1.68804 -0.0252,4.01214 -0.0559,5.16467 l -0.0557,2.0955 h -11.83978 -11.83977 v 5.03767 5.03766 h 11.89566 11.89567 v 5.16467 5.16467 l -14.11817,-0.01 c -7.76499,-0.005 -14.17531,-0.021 -14.24516,-0.0347 z m 35.306,-25.52443 V 80.085341 l 17.88583,0.0227 17.88583,0.0227 0.67734,0.19136 c 1.18805,0.33565 2.01873,0.79136 2.70162,1.48212 0.89922,0.9096 1.37653,1.91393 1.61894,3.40652 0.18401,1.13298 0.18225,14.20204 -0.002,15.338479 -0.1384,0.85337 -0.42948,1.73742 -0.77643,2.35819 -0.34145,0.61092 -1.17359,1.44893 -1.82029,1.83312 l -0.57877,0.34384 v 0.58159 0.5816 l 0.40718,0.20633 c 1.31616,0.66695 2.2128,1.90531 2.66665,3.68299 0.18449,0.7226 0.18584,0.78238 0.18584,8.2632 0,7.53001 0,7.53586 -0.18994,8.28051 -0.62113,2.43676 -1.9687,3.73537 -4.50906,4.34522 -0.59925,0.14386 -1.63496,0.15393 -18.39383,0.17877 l -17.75884,0.0263 v -25.57279 z m 30.64933,10.20195 v -5.03766 h -10.20233 -10.20233 v 5.03766 5.03767 h 10.20233 10.20233 z m 0,-20.446999 v -5.08 h -10.20233 -10.20233 v 5.08 5.079999 h 10.20233 10.20233 z m 17.10413,13.483169 c 9.3e-4,-14.216259 0.0321,-22.623119 0.0858,-23.135169 0.32832,-3.13272 1.91501,-4.93056 4.86577,-5.51329 0.88073,-0.17393 30.19194,-0.17393 31.07266,0 2.93859,0.58032 4.51348,2.35116 4.86561,5.47095 0.11431,1.01282 0.11446,18.340439 0,19.431009 -0.40464,3.8609 -2.67994,5.66826 -7.14047,5.67197 -0.75466,5.9e-4 -0.8314,0.015 -0.79421,0.14886 0.0226,0.0815 1.83684,4.63451 4.03154,10.11783 2.19486,5.48331 3.99053,10.00768 3.99053,10.05416 0,0.0553 -1.76678,0.0845 -5.11186,0.0845 h -5.11187 l -0.45705,-1.0795 c -0.25138,-0.59372 -2.17061,-5.1837 -4.26497,-10.19995 l -3.80791,-9.12045 -5.94784,-0.002 -5.94783,-0.002 v 10.20233 10.20233 h -5.16467 -5.16466 l 10e-4,-22.33083 z m 30.64787,-13.440569 v -5.03767 h -10.16 -10.16 v 5.03767 5.037669 h 10.16 10.16 z m 17.272,13.049759 c 0,-24.983839 -0.0316,-23.448229 0.51195,-24.857779 0.66484,-1.72398 1.92604,-2.80117 3.89373,-3.32563 l 0.71665,-0.19102 h 15.32467 15.32467 l 0.68238,0.18235 c 2.30362,0.61558 3.58702,1.89697 4.20779,4.2012 l 0.18763,0.69645 0.0233,23.008179 0.0233,23.00816 h -5.12338 -5.1234 v -6.81566 -6.81567 h -10.20229 -10.20233 v 6.81567 6.81566 h -5.12234 -5.12233 z m 30.64933,-9.705429 v -8.46666 h -10.20233 -10.20233 v 8.46666 8.466679 h 10.20233 10.20233 z"
       id="path1072" />
  </g>
</svg>
