<?xml version="1.0" encoding="UTF-8" standalone="no"?>
<svg
   xmlns:dc="http://purl.org/dc/elements/1.1/"
   xmlns:cc="http://creativecommons.org/ns#"
   xmlns:rdf="http://www.w3.org/1999/02/22-rdf-syntax-ns#"
   xmlns:svg="http://www.w3.org/2000/svg"
   xmlns="http://www.w3.org/2000/svg"
   xmlns:sodipodi="http://sodipodi.sourceforge.net/DTD/sodipodi-0.dtd"
   xmlns:inkscape="http://www.inkscape.org/namespaces/inkscape"
   width="119.742"
   height="24.246"
   viewBox="0 0 119.742 24.246"
   version="1.1"
   id="svg903"
   sodipodi:docname="genesys-logo-base.svg"
   inkscape:version="1.0.1 (3bc2e813f5, 2020-09-07)">
  <style
     id="style1470"></style>
  <metadata
     id="metadata907">
    <rdf:RDF>
      <cc:Work
         rdf:about="">
        <dc:format>image/svg+xml</dc:format>
        <dc:type
           rdf:resource="http://purl.org/dc/dcmitype/StillImage" />
      </cc:Work>
    </rdf:RDF>
  </metadata>
  <sodipodi:namedview
     pagecolor="#ffffff"
     bordercolor="#666666"
     borderopacity="1"
     objecttolerance="10"
     gridtolerance="10"
     guidetolerance="10"
     inkscape:pageopacity="0"
     inkscape:pageshadow="2"
     inkscape:window-width="1920"
     inkscape:window-height="986"
     id="namedview905"
     showgrid="false"
     inkscape:zoom="7.6532078"
     inkscape:cx="57.822649"
     inkscape:cy="16.58545"
     inkscape:window-x="-11"
     inkscape:window-y="-11"
     inkscape:window-maximized="1"
     inkscape:current-layer="svg903" />
  <defs
     id="defs882">
    <clipPath
       id="clip-path">
      <rect
         width="119.741"
         height="24.246"
         fill="none"
         id="rect879" />
    </clipPath>
  </defs>
  <g
     id="Genesys_Logo_Color"
     data-name="Genesys Logo Color"
     clip-path="url(#clip-path)"
     style="fill:#ffffff;fill-opacity:1">
    <g
       id="Group_177"
       data-name="Group 177"
       style="fill:#ffffff;fill-opacity:1">
      <g
         id="Group_172"
         data-name="Group 172"
         transform="translate(116.253 5.947)"
         style="fill:#ffffff;fill-opacity:1">
        <path
           id="Path_43"
           data-name="Path 43"
           d="M205.872,11.829H205.3V11.6h1.43v.229h-.572v1.6h-.286Z"
           transform="translate(-205.3 -11.6)"
           fill="#4e5054"
           style="fill:#ffffff;fill-opacity:1" />
        <path
           id="Path_44"
           data-name="Path 44"
           d="M209,13.43l-.515-1.544V13.43H208.2V11.6h.457l.457,1.487.457-1.487h.457v1.83H209.8V11.886l-.515,1.544Z"
           transform="translate(-206.542 -11.6)"
           fill="#4e5054"
           style="fill:#ffffff;fill-opacity:1" />
      </g>
      <g
         id="Group_176"
         data-name="Group 176"
         style="fill:#ffffff;fill-opacity:1">
        <g
           id="Group_174"
           data-name="Group 174"
           style="fill:#ffffff;fill-opacity:1">
          <g
             id="Group_173"
             data-name="Group 173"
             transform="translate(9.662)"
             style="fill:#ffffff;fill-opacity:1">
            <path
               id="Path_45"
               data-name="Path 45"
               d="M21.357,2.572a1.086,1.086,0,1,1,0,2.173H21.3a1.063,1.063,0,0,1-1.029-1.029,1.366,1.366,0,0,1,.286-.8,1.038,1.038,0,0,1,.8-.343m0-1.372a2.46,2.46,0,0,0-.114,4.918h.114a2.459,2.459,0,1,0,0-4.918Z"
               transform="translate(-18.896 -1.2)"
               fill="#ff4f1f"
               style="fill:#ffffff;fill-opacity:1" />
          </g>
          <path
             id="Path_46"
             data-name="Path 46"
             d="M15.2,30.158a2.516,2.516,0,0,1,0,5.032H12.517a2.516,2.516,0,0,1,0-5.032H15.2m0-1.658H12.517a4.117,4.117,0,0,0,0,8.234H15.2a4.117,4.117,0,0,0,0-8.234Z"
             transform="translate(-4.74 -12.889)"
             fill="#ff4f1f"
             style="fill:#ffffff;fill-opacity:1" />
          <path
             id="Path_47"
             data-name="Path 47"
             d="M12.465,13.258a2.516,2.516,0,1,1,0,5.032H6.117a2.516,2.516,0,1,1,0-5.032h6.347m0-1.658H6.117a4.117,4.117,0,0,0,0,8.234h6.347a4.117,4.117,0,1,0,0-8.234Z"
             transform="translate(-2 -5.653)"
             fill="#ff4f1f"
             style="fill:#ffffff;fill-opacity:1" />
        </g>
        <g
           id="Group_175"
           data-name="Group 175"
           transform="translate(21.158 5.718)"
           style="fill:#ffffff;fill-opacity:1">
          <path
             id="Path_48"
             data-name="Path 48"
             d="M66.1,29.555V11.6H76.221v1.773H67.93v6.233h7.434v1.715H67.93v6.462h8.292v1.773Z"
             transform="translate(-50.603 -11.371)"
             fill="#4e5054"
             style="fill:#ffffff;fill-opacity:1" />
          <path
             id="Path_49"
             data-name="Path 49"
             d="M118,29.555V11.6h10.121v1.773H119.83v6.233h7.434v1.715H119.83v6.462h8.292v1.773Z"
             transform="translate(-72.825 -11.371)"
             fill="#4e5054"
             style="fill:#ffffff;fill-opacity:1" />
          <path
             id="Path_50"
             data-name="Path 50"
             d="M166.261,29.555V22.122L160.2,11.6h2.059l4.918,8.635,4.918-8.635h2l-6,10.522v7.434Z"
             transform="translate(-90.894 -11.371)"
             fill="#4e5054"
             style="fill:#ffffff;fill-opacity:1" />
          <path
             id="Path_51"
             data-name="Path 51"
             d="M102.266,29.555V11.6h-1.773V26.239L91.63,11.6H89.8V29.555h1.83V14.917l8.863,14.639Z"
             transform="translate(-60.751 -11.371)"
             fill="#4e5054"
             style="fill:#ffffff;fill-opacity:1" />
          <path
             id="Path_52"
             data-name="Path 52"
             d="M45.061,21.665H49.35v1.43c0,3.488-2.23,4.746-4.289,4.746s-4.289-1.258-4.289-4.746V17.719c0-3.488,2.23-4.746,4.289-4.746a4.075,4.075,0,0,1,4.232,3.66h1.773a5.813,5.813,0,0,0-6-5.432C41.4,11.2,39,13.83,39,17.719v5.375c0,3.888,2.459,6.519,6.061,6.519,3.66,0,6.061-2.63,6.061-6.519v-3.2H45.061Z"
             transform="translate(-39 -11.2)"
             fill="#4e5054"
             style="fill:#ffffff;fill-opacity:1" />
          <path
             id="Path_53"
             data-name="Path 53"
             d="M141.415,23.995a3.878,3.878,0,0,0,4,3.888c2.287,0,3.488-1.086,3.488-3.145a2.988,2.988,0,0,0-2.459-2.974l-3.031-.8a4.663,4.663,0,0,1-3.545-4.8c0-2.916,2.059-4.861,5.146-4.861,3.545,0,5.089,2.459,5.432,4.918h-1.773a3.486,3.486,0,0,0-3.6-3.145c-2.059,0-3.374,1.2-3.374,3.088a3.023,3.023,0,0,0,2.345,3.088l3.145.858a4.737,4.737,0,0,1,3.6,4.746c0,3.031-2.059,4.918-5.318,4.918a5.538,5.538,0,0,1-5.775-5.661Z"
             transform="translate(-82.117 -11.243)"
             fill="#4e5054"
             style="fill:#ffffff;fill-opacity:1" />
          <path
             id="Path_54"
             data-name="Path 54"
             d="M187.715,23.995a3.878,3.878,0,0,0,4,3.888c2.287,0,3.488-1.086,3.488-3.145a2.988,2.988,0,0,0-2.459-2.974l-3.031-.8a4.663,4.663,0,0,1-3.545-4.8c0-2.916,2.059-4.861,5.146-4.861,3.545,0,5.089,2.459,5.432,4.918h-1.773a3.486,3.486,0,0,0-3.6-3.145c-2.059,0-3.374,1.2-3.374,3.088a3.023,3.023,0,0,0,2.345,3.088l3.145.858a4.737,4.737,0,0,1,3.6,4.746c0,3.031-2.059,4.918-5.318,4.918A5.538,5.538,0,0,1,186,24.109Z"
             transform="translate(-101.941 -11.243)"
             fill="#4e5054"
             style="fill:#ffffff;fill-opacity:1" />
        </g>
      </g>
    </g>
  </g>
</svg>
