<?xml version="1.0" encoding="UTF-8" standalone="no"?>
<svg
   xmlns:dc="http://purl.org/dc/elements/1.1/"
   xmlns:cc="http://creativecommons.org/ns#"
   xmlns:rdf="http://www.w3.org/1999/02/22-rdf-syntax-ns#"
   xmlns:svg="http://www.w3.org/2000/svg"
   xmlns="http://www.w3.org/2000/svg"
   xmlns:sodipodi="http://sodipodi.sourceforge.net/DTD/sodipodi-0.dtd"
   xmlns:inkscape="http://www.inkscape.org/namespaces/inkscape"
   version="1.1"
   id="svg1481"
   width="1488.9789"
   height="193.16498"
   viewBox="0 0 1488.9789 193.16498"
   sodipodi:docname="logo_norden.svg"
   inkscape:version="1.0.1 (3bc2e813f5, 2020-09-07)">
  <metadata
     id="metadata1487">
    <rdf:RDF>
      <cc:Work
         rdf:about="">
        <dc:format>image/svg+xml</dc:format>
        <dc:type
           rdf:resource="http://purl.org/dc/dcmitype/StillImage" />
        <dc:title></dc:title>
      </cc:Work>
    </rdf:RDF>
  </metadata>
  <defs
     id="defs1485" />
  <sodipodi:namedview
     pagecolor="#ffffff"
     bordercolor="#666666"
     borderopacity="1"
     objecttolerance="10"
     gridtolerance="10"
     guidetolerance="10"
     inkscape:pageopacity="0"
     inkscape:pageshadow="2"
     inkscape:window-width="1920"
     inkscape:window-height="986"
     id="namedview1483"
     showgrid="false"
     fit-margin-top="0"
     fit-margin-left="0"
     fit-margin-right="0"
     fit-margin-bottom="0"
     inkscape:zoom="0.59821598"
     inkscape:cx="754.22434"
     inkscape:cy="196.38727"
     inkscape:window-x="-11"
     inkscape:window-y="-11"
     inkscape:window-maximized="1"
     inkscape:current-layer="g1489" />
  <g
     inkscape:groupmode="layer"
     inkscape:label="Image"
     id="g1489"
     transform="translate(-27.006301,-47.83502)">
    <path
       style="fill:#ffffff;fill-opacity:1"
       d="m 681.79722,239.22566 c -7.96518,-2.92277 -13.22938,-7.36799 -16.41957,-13.86507 C 662.8928,220.29997 662.5,218.33975 662.5,211 c 0,-4.675 0.54712,-13.45 1.21582,-19.5 0.6687,-6.05 1.69265,-15.725 2.27544,-21.5 1.16642,-11.55817 2.05229,-14.5465 6.08628,-20.53099 4.39955,-6.52682 9.00115,-10.52958 15.92246,-13.85037 l 6.5,-3.11864 51,-0.31151 c 57.25881,-0.34975 58.29214,-0.24988 68.47681,6.6182 8.01755,5.40667 11.5356,12.63982 11.48874,23.62099 -0.0189,4.43978 -0.60254,13.47232 -1.29687,20.07232 -0.69434,6.6 -1.64743,16.13865 -2.11798,21.197 -1.48492,15.96254 -8.79149,27.13408 -21.96158,33.5787 L 793.5,240.5 740,240.72566 c -48.53067,0.20469 -53.93682,0.0654 -58.20278,-1.5 z m 108.1367,-14.79868 c 9.15997,-2.72021 12.74541,-8.22692 14.1691,-21.76166 4.67527,-44.44656 4.60691,-42.78057 1.93298,-47.10707 -1.23065,-1.99123 -3.97427,-4.50643 -6.09693,-5.58934 C 796.25265,148.08824 793.84367,148 746.18988,148 h -49.8898 l -3.90004,2.83198 c -6.38661,4.63758 -8.04705,9.35336 -9.91806,28.16802 -2.99748,30.14227 -3.05391,34.21008 -0.53667,38.68891 2.41715,4.30073 4.96793,6.27112 9.55469,7.38066 1.65,0.39914 23.28082,0.77177 48.0685,0.82807 38.28921,0.087 45.86527,-0.13426 50.36542,-1.47066 z m 44.25464,14.53406 c -1.20371,-1.12142 -2.18673,-2.35892 -2.1845,-2.75 0.002,-0.39107 0.70936,-8.13604 1.5714,-17.21104 0.86204,-9.075 1.89411,-20.04487 2.29349,-24.37748 0.63584,-6.89781 1.06918,-8.17255 3.48436,-10.25 L 842.11153,182 l 57.69423,-0.0168 57.69424,-0.0168 5.48376,-2.76101 c 6.95885,-3.5037 9.97608,-8.34682 9.99979,-16.05119 0.0203,-6.60291 -2.19497,-10.68307 -7.19371,-13.24946 C 962.26962,148.09752 959.167,148 905.18772,148 h -56.89195 l -3.39789,-2.2823 c -4.64511,-3.12004 -4.99967,-6.76975 -1.04215,-10.72728 L 846.84615,132 h 58.39543 c 50.37641,0 59.12802,0.21756 63.73033,1.5843 14.28815,4.24312 21.96292,14.02223 22.00613,28.03997 0.0251,8.14705 -1.8379,14.33716 -5.83145,19.37573 -4.48816,5.66263 -4.48914,5.69573 -0.28184,9.49678 6.06452,5.47892 8.39902,11.39003 8.3309,21.09436 -0.0312,4.45013 -0.55559,11.87513 -1.16523,16.5 C 990.67975,238.33766 988.51049,241 981.51233,241 c -3.72113,0 -4.69592,-0.44909 -6.51261,-3.0004 -1.98878,-2.79297 -2.06182,-3.50156 -1.05653,-10.25 1.95207,-13.10408 1.70351,-20.03265 -0.84717,-23.61475 C 968.5873,197.80294 970.64262,198 909.11093,198 h -55.98838 l -0.53461,4.25 c -0.29403,2.3375 -1.0069,9.65 -1.58416,16.25 -1.43563,16.41423 -1.85878,18.24078 -4.75322,20.51755 -3.34749,2.63313 -9.20446,2.60569 -12.062,-0.0565 z m 172.90224,0.39003 c -2.2358,-1.56605 -2.325,-2.05606 -1.7739,-9.75 0.5336,-7.44905 2.1913,-24.70755 4.6683,-48.60107 0.5416,-5.225 1.677,-16.86163 2.523,-25.85919 1.6237,-17.26707 2.1555,-19.21913 5.9058,-21.67639 3.4515,-2.26153 127.2034,-1.69046 132.586,0.61183 9.6623,4.13285 13.5941,7.37403 17.2558,14.22505 3.362,6.29007 3.078,18.3061 -1.3284,56.1987 -0.5117,4.4 -1.7171,10.22007 -2.6788,12.93349 -1.9319,5.45057 -9.5649,14.47854 -15.3053,18.10229 -8.5854,5.41973 -9.2116,5.46422 -76.9023,5.46422 -56.5351,0 -62.8239,-0.15966 -64.9502,-1.64893 z m 127.9617,-14.9593 c 6.3433,-1.88376 10.9664,-6.24373 12.7137,-11.99023 0.6525,-2.14585 1.6265,-9.30154 2.1644,-15.90154 0.5379,-6.6 1.4822,-17.625 2.0983,-24.5 1.2943,-14.44198 0.8379,-16.47406 -4.6382,-20.65173 l -3.7336,-2.84827 -56.2438,-0.27405 -56.2438,-0.27405 -0.5699,2.77405 c -0.3134,1.52573 -1.0303,7.94905 -1.593,14.27405 -0.5627,6.325 -1.4882,15.775 -2.0565,21 -2.599,23.89455 -3.8404,38.36851 -3.3576,39.14959 0.289,0.46772 24.2673,0.85041 53.285,0.85041 45.5638,0 53.4981,-0.21934 58.175,-1.60823 z M 1180,239 c -2.3921,-2.39208 -2.3898,-2.28689 -0.4806,-22.5 2.9784,-31.53227 3.3221,-34.3354 4.4741,-36.48792 2.658,-4.96652 3.3127,-5.01208 72.024,-5.01208 55.887,0 64.4646,0.19795 67.0751,1.5479 5.455,2.82086 5.8315,9.29055 0.748,12.85119 -2.0349,1.42527 -8.957,1.60091 -63.0945,1.60091 -48.6254,0 -60.9077,0.2576 -61.3022,1.28571 -0.7351,1.91554 -3.2601,32.09354 -2.7582,32.96429 0.2378,0.4125 31.0058,0.75 68.3733,0.75 66.6077,0 67.9802,0.0393 69.941,2 2.879,2.87903 2.5497,7.09914 -0.8047,10.31291 L 1331.3906,241 h -74.6953 c -73.362,0 -74.731,-0.0357 -76.6953,-2 z m 167.1046,-0.59414 c -1.549,-1.96927 -1.9298,-3.59517 -1.581,-6.75 0.2528,-2.28572 1.1372,-11.35586 1.9654,-20.15586 0.8281,-8.8 1.9395,-19.825 2.4697,-24.5 0.5303,-4.675 1.6879,-16.6 2.5725,-26.5 0.8847,-9.9 1.8164,-19.43039 2.0706,-21.17864 0.6843,-4.70712 3.4833,-7.65173 7.1736,-7.54681 3.0686,0.0872 6.3794,2.18248 35.3112,22.34698 5.8226,4.05816 17.4234,12.10347 25.7795,17.87847 8.3562,5.775 20.9172,14.49344 27.9135,19.3743 28.9907,20.22516 36.2892,24.95469 37.1197,24.05409 0.4709,-0.51061 1.379,-6.77839 2.018,-13.92839 0.639,-7.15 1.5898,-17.05 2.1127,-22 2.2134,-20.95058 3.97,-38.6048 3.97,-39.89932 0,-0.76405 1.3055,-2.78676 2.9012,-4.49492 3.8136,-4.08249 9.0011,-4.29437 12.7737,-0.52173 2.4359,2.43586 2.5444,2.96628 1.8921,9.25 -2.0162,19.42149 -4.6456,46.26357 -7.0203,71.66597 -1.7342,18.55 -2.7439,23.00001 -5.561,24.50768 -4.7314,2.53212 -6.4093,1.55569 -51.688,-30.07843 -10.3996,-7.26572 -34.4288,-23.99995 -60.1992,-41.92345 -9.5708,-6.65658 -17.7347,-11.74353 -18.1419,-11.30433 -0.4073,0.43919 -1.2829,6.64853 -1.9458,13.79853 -0.6628,7.15 -1.5858,16.825 -2.051,21.5 -1.9356,19.45291 -3.9369,40.57817 -3.948,41.67327 -0.01,0.64531 -1.1768,2.55781 -2.6007,4.25 -2.1583,2.56505 -3.3104,3.07673 -6.9274,3.07673 -3.4787,0 -4.743,-0.51413 -6.3791,-2.59414 z M 602,238.26545 c -0.825,-0.31717 -5.325,-2.35493 -10,-4.52836 -4.675,-2.17344 -11.2,-5.20491 -14.5,-6.73661 -3.3,-1.5317 -13.59395,-6.43341 -22.87544,-10.8927 C 545.34307,211.6485 537.62017,208 537.46257,208 c -0.1576,0 -6.06365,-2.7509 -13.12456,-6.1131 -7.0609,-3.36221 -16.21301,-7.68593 -20.33801,-9.60828 -4.125,-1.92235 -11.55,-5.42843 -16.5,-7.79129 -4.95,-2.36286 -12.375,-5.86595 -16.5,-7.78465 -7.93529,-3.69102 -24.19274,-11.36137 -37.5,-17.69271 -36.27767,-17.26021 -43.97534,-20.7711 -47.94273,-21.86655 -5.75146,-1.58805 -11.92706,0.83721 -19.05727,7.48411 -13.58399,12.66322 -33.69214,27.81103 -53.0073,39.9313 -33.17464,20.8171 -61.18288,32.08474 -91.9927,37.00843 -13.73038,2.19424 -63.74872,2.55396 -78,0.56097 -17.44109,-2.43908 -29.0376,-4.27805 -32.5,-5.15384 -1.925,-0.48692 -6.875,-1.64236 -11,-2.56766 C 82.896783,210.57023 61.044456,202.46761 43.5,193.4571 29.768353,186.40477 27.013657,184.70003 27.006323,183.25 c -0.012,-2.37227 4.93985,-1.23591 13.702672,3.14451 13.764012,6.88046 36.89748,15.96834 47.291005,18.57806 1.925,0.48335 7.1,1.77782 11.5,2.8766 35.221,8.79546 73.10717,7.55338 102.09854,-3.34726 26.03699,-9.7898 81.17919,-44.00824 128.11544,-79.50191 29.25471,-22.12271 34.57855,-25 46.25738,-25 6.4547,0 7.39128,0.33785 23.12788,8.34283 9.02042,4.58855 19.32576,9.92503 22.90076,11.85884 3.575,1.93381 11.45,6.11234 17.5,9.28562 6.05,3.17328 15.1625,7.9618 20.25,10.64115 5.0875,2.67936 13.4125,7.0611 18.5,9.7372 19.14483,10.07046 29.4916,15.52286 37.25,19.62949 4.4,2.32898 14.3,7.52822 22,11.55387 7.7,4.02565 19.85,10.41054 27,14.18864 28.06697,14.83075 31.1138,16.16047 34.71442,15.15036 4.76599,-1.33704 6.53679,-5.7509 7.78935,-19.41554 1.73943,-18.97604 5.17704,-59.77206 7.03367,-83.47246 1.04427,-13.330399 1.87807,-16.134573 5.61182,-18.873307 3.59928,-2.640104 13.71986,-3.334957 18.63881,-1.279692 5.70987,2.385736 7.17498,6.695764 5.80044,17.063539 -0.58986,4.4492 -1.51187,12.13946 -2.0489,17.08946 -0.53704,4.95 -1.44584,12.825 -2.01958,17.5 -0.57373,4.675 -1.72379,14.575 -2.55569,22 -0.83189,7.425 -1.92806,17.1 -2.43592,21.5 -0.50787,4.4 -1.60459,13.99648 -2.43717,21.32551 -1.69689,14.93741 -3.9572,21.25315 -9.99991,27.94171 -2.00108,2.21496 -5.15827,4.74845 -7.01597,5.62999 -3.29139,1.56187 -10.5616,2.02685 -13.57537,0.86824 z m 589.6598,-91.68361 c -5.6594,-2.50216 -6.3795,-7.95705 -1.5831,-11.99295 L 1193.1535,132 h 74.4232 c 73.09,0 74.4591,0.0358 76.4233,2 2.1827,2.18269 2.5913,6.02658 0.9639,9.06739 -2.6253,4.9054 -3.1645,4.93837 -79.336,4.85139 -54.754,-0.0625 -71.7817,-0.37029 -73.9681,-1.33694 z M 1345,97.105235 c -1.375,-0.382473 -2.5,-1.350117 -2.5,-2.15032 0,-1.161334 1.3446,-1.386992 6.6634,-1.118306 5.6911,0.287493 6.9678,0.03214 8.75,-1.75 1.1476,-1.147635 2.0866,-2.965407 2.0866,-4.039494 0,-1.74838 -0.5092,-1.89258 -4.8623,-1.377014 -7.6969,0.911582 -11.9514,-0.994651 -14.3569,-6.432638 -2.3982,-5.421641 -2.0044,-12.108649 0.9483,-16.101699 2.8768,-3.890354 9.107,-5.58161 16.62,-4.511693 L 1364.5,60.5 v 15.597616 c 0,12.006692 -0.327,15.991334 -1.4204,17.307775 -3.1703,3.817016 -11.5174,5.525193 -18.0796,3.699844 z M 1359.7862,72.75 1360.0724,63 h -5.5816 c -4.5929,0 -6.0165,0.43482 -8.0363,2.454545 -3.2827,3.282715 -3.4607,10.996516 -0.3452,14.95724 1.9076,2.425099 2.6486,2.653137 7.75,2.384858 L 1359.5,82.5 Z M 693.72123,86.579789 C 684.8243,84.187012 681,78.431109 681,67.433248 681,56.981335 684.03042,52.376174 692.9552,49.265591 699.87263,46.85464 712,48.252153 712,51.460242 c 0,0.773761 -2.96733,1.12326 -9.25,1.089485 -7.7435,-0.04163 -9.68452,0.276002 -11.91796,1.950273 -6.05215,4.536911 -7.88048,16.137909 -3.56211,22.602117 3.6898,5.523291 7.88885,7.130415 16.98007,6.498865 6.19746,-0.430526 7.75,-0.260757 7.75,0.847456 0,0.855161 -1.93348,1.800491 -5.04922,2.468698 -6.14576,1.318029 -7.17174,1.291867 -13.22955,-0.337347 z M 1015.5,86.758183 c -9.3225,-2.412449 -12.5,-7.223327 -12.5,-18.92539 0,-10.452186 2.3408,-14.728202 9.8329,-17.962381 9.5515,-4.123173 21.5007,-1.030524 25.9006,6.703545 3.0066,5.284801 3.1728,16.729198 0.3241,22.313126 -2.3101,4.528159 -4.9333,6.381534 -11.2504,7.948705 -5.4209,1.344842 -6.8451,1.335862 -12.3072,-0.0776 z m 16.5283,-6.285316 c 5.2136,-4.994961 6.2749,-15.765276 2.2284,-22.615372 -4.7121,-7.977011 -20.5667,-7.777341 -24.9113,0.313727 -2.6832,4.997172 -2.4077,15.373845 0.5346,20.134651 2.7144,4.391951 6.4735,5.793232 14.0043,5.220435 4.1122,-0.312772 6.0364,-1.034207 8.144,-3.053441 z M 732.22841,67.75 C 732.48932,49.257198 732.57867,48.5 734.5,48.5 c 1.92133,0 2.01068,0.757198 2.27159,19.25 L 737.04319,87 H 734.5 731.95681 Z M 758,73 c 0,-13.333333 0.0952,-14 2,-14 1.90476,0 2,0.666667 2,14 0,13.333333 -0.0952,14 -2,14 -1.90476,0 -2,-0.666667 -2,-14 z m 25,0.628568 c 0,-13.840204 0.85425,-16.915957 3.64006,-13.106133 1.20306,1.645279 1.60311,1.685536 4.00251,0.402775 4.14938,-2.218327 12.00206,-1.725023 14.64722,0.920135 1.95575,1.95575 2.23735,3.459141 2.56168,13.675976 L 808.21585,87 H 805.60793 803 V 76.035184 C 803,63.779174 802.56224,63 795.67653,63 c -6.36115,0 -7.61292,2.135663 -7.91272,13.5 -0.25106,9.516557 -0.37258,10.015448 -2.51381,10.319551 C 783.01192,87.137409 783,87.067507 783,73.628568 Z M 829,73 c 0,-13.333333 0.0952,-14 2,-14 1.90476,0 2,0.666667 2,14 0,13.333333 -0.0952,14 -2,14 -1.90476,0 -2,-0.666667 -2,-14 z m 32.38775,13.333055 c -1.16174,-0.23983 -3.41174,-1.792427 -5,-3.450217 -2.62289,-2.73771 -2.88775,-3.65769 -2.88775,-10.03053 0,-6.591795 0.18857,-7.184853 3.11625,-9.800736 1.97042,-1.760571 4.80268,-3.037266 7.70272,-3.472154 C 870.04895,58.720154 876,59.755317 876,61.611291 876,62.655471 874.36831,63 869.42308,63 c -5.9359,0 -6.86183,0.2849 -9.5,2.923077 -3.52925,3.529246 -3.85185,8.041333 -0.91888,12.851849 2.41726,3.964678 5.94388,5.448273 11.96932,5.035306 C 874.46827,83.570712 875.5,83.841898 875.5,85 c 0,1.151716 -1.39314,1.531242 -6,1.634554 -3.3,0.074 -6.95051,-0.06167 -8.11225,-0.301499 z m 34.19515,-1.446503 c -2.25116,-1.770763 -2.63785,-2.767958 -2.38485,-6.150029 C 893.63376,72.911841 897.18432,70.5 905.32333,70.5 c 7.81527,0 9.52254,-1.654134 5.67667,-5.5 -1.61905,-1.619048 -3.33333,-2 -9,-2 -5.39879,0 -7,-0.326656 -7,-1.428044 0,-0.979527 1.71285,-1.642049 5.45358,-2.109423 7.0045,-0.875154 13.51078,1.05948 15.25976,4.537467 1.77467,3.529085 1.76338,23 -0.0133,23 -0.715,0 -1.74565,-0.445647 -2.29033,-0.990328 -0.65377,-0.65377 -2.16383,-0.65377 -4.4434,0 -5.57822,1.599815 -10.44045,1.191781 -13.38337,-1.12312 z m 15.02287,-3.363899 c 2.73859,-1.794394 3.23119,-5.987503 0.81244,-6.915664 C 910.54823,74.273145 907.77116,74 905.24695,74 c -7.38901,0 -10.89981,4.978867 -5.99695,8.504611 2.60666,1.8745 7.66365,1.437211 11.35577,-0.981958 z M 938.75,86.310674 c -0.9625,-0.251527 -1.75,-1.1573 -1.75,-2.012829 0,-1.280691 0.85179,-1.442512 4.82131,-0.915937 9.65872,1.281275 15.5165,-2.044098 11.20161,-6.35899 C 951.54676,75.546759 949.68504,75 946.13486,75 939.68802,75 936,72.244376 936,67.42742 c 0,-4.494007 2.72729,-7.11402 8.27062,-7.945294 5.57152,-0.8355 13.11911,0.589252 13.49765,2.547938 0.23121,1.196339 -1.23431,1.469936 -7.87371,1.469936 -6.67856,0 -8.35966,0.317324 -9.27106,1.75 -2.01262,3.163723 0.41884,5.174736 7.17323,5.932858 7.95988,0.893428 9.9739,2.07759 10.77236,6.333708 0.8474,4.517067 -1.36322,7.992259 -5.62636,8.844889 -3.49913,0.699826 -11.42902,0.671453 -14.19273,-0.05078 z m 127.6381,-0.290743 C 1062.0335,84.260465 1060,80.201697 1060,73.269512 c 0,-10.509159 4.9059,-14.76295 16.1966,-14.043667 L 1080.5,59.5 l 0.2999,-5.75 c 0.2572,-4.931759 0.5774,-5.75 2.25,-5.75 1.8646,0 1.9501,0.827623 1.9501,18.869158 v 18.869157 l -3.75,0.619837 c -5.1536,0.851837 -12.3202,0.688743 -14.8619,-0.338221 z m 13.8466,-4.414174 c 0.4041,-0.608166 0.7416,-4.577424 0.75,-8.820573 C 1081.0021,64.009744 1080.1964,63 1073.1765,63 c -5.7467,0 -8.3371,2.50339 -8.861,8.563569 -0.5003,5.785704 2.1163,11.007257 5.8726,11.71942 3.2704,0.620051 9.1752,-0.365721 10.0466,-1.677232 z m 30.1532,3.877213 c -4.366,-2.24354 -5.9002,-5.711786 -5.815,-13.145215 0.063,-5.531664 0.433,-6.734426 2.8414,-9.248353 5.4038,-5.640315 17.8201,-4.946672 21.6845,1.211423 3.0348,4.835919 2.3374,15.717563 -1.2364,19.291354 -3.3362,3.336212 -12.6918,4.348507 -17.4745,1.890791 z m 10.9991,-2.440009 c 7.0892,-2.695297 7.2693,-17.836205 0.2332,-19.602153 -7.2162,-1.811139 -12.7149,1.916755 -12.9086,8.751466 -0.2445,8.62234 5.5315,13.566791 12.6754,10.850687 z M 1150,73.559017 c 0,-13.640235 0.7914,-16.594103 3.466,-12.936379 1.1149,1.524665 1.7175,1.633137 3.6835,0.662988 6.8648,-3.387609 13.0967,-2.569266 15.9397,2.093109 1.5434,2.531084 1.904,5.059376 1.9071,13.371265 V 87 h -2.5 -2.5 V 76.934259 c 0,-5.536158 -0.4658,-10.936158 -1.0352,-12 -1.3043,-2.437173 -8.4727,-2.66766 -11.7423,-0.377555 -2.0554,1.439674 -2.2225,2.341812 -2.2225,12 L 1155,87 h -2.5 -2.5 z m 48.3997,12.67567 C 1195.7178,84.443944 1195,80.620193 1195,68.124758 c 0,-13.078469 0.9309,-16.565312 3.1325,-11.73336 0.8605,1.888656 2.0291,2.578457 4.7542,2.806388 4.7329,0.395857 5.0114,3.167415 0.3633,3.615572 l -3.25,0.313359 v 9.236641 C 1200,82.198726 1200.7275,84 1204.7,84 c 1.3778,0 2.3,0.601449 2.3,1.5 0,1.069389 -1.0765,1.495604 -3.75,1.484687 -2.0625,-0.0084 -4.2451,-0.345922 -4.8503,-0.75 z M 1230.5,85.64235 c -3.7275,-1.74474 -5.3727,-4.434223 -6.1409,-10.039244 -0.7252,-5.290819 0.866,-10.526521 4.1316,-13.594342 1.924,-1.807562 3.6614,-2.30869 8.3102,-2.39705 10.5155,-0.199866 14.7891,4.554476 13.9926,15.566561 -0.5881,8.130305 -3.2687,10.817648 -11.3978,11.426623 -3.8263,0.286635 -6.9487,-0.05122 -8.8957,-0.962548 z m 10.887,-2.599389 c 4.9564,-1.884429 7.1229,-10.222379 4.15,-15.97144 C 1243.8306,63.771794 1242.2262,63 1237.0732,63 c -6.4196,0 -10.0848,6.315257 -7.9957,13.776719 1.7049,6.089213 6.4379,8.498613 12.3095,6.266242 z M 1271,67.5 c 0,-18.833333 0.068,-19.5 2,-19.5 1.9316,0 2,0.666667 2,19.5 0,18.833333 -0.068,19.5 -2,19.5 -1.9316,0 -2,-0.666667 -2,-19.5 z m 31,18.847163 c -8.4487,-3.389174 -10.1584,-19.15329 -2.6828,-24.7347 3.9119,-2.920657 13.4537,-2.920657 17.3656,0 3.9095,2.918921 5.7051,9.455452 4.2669,15.533471 -1.5786,6.671942 -4.6434,9.161636 -11.7134,9.51569 -3.155,0.157995 -6.4113,0.01649 -7.2363,-0.314461 z m 12.4965,-5.399246 c 2.7919,-2.791878 2.8541,-12.798032 0.099,-15.842929 -2.6214,-2.896681 -10.5058,-2.966041 -13.0858,-0.115119 -2.596,2.868546 -3.2184,11.278816 -1.0766,14.547657 3.1515,4.809707 9.9798,5.494486 14.0639,1.410391 z M 1386,73 c 0,-13.333333 0.095,-14 2,-14 1.9048,0 2,0.666667 2,14 0,13.333333 -0.095,14 -2,14 -1.9048,0 -2,-0.666667 -2,-14 z m 33,13.370224 c -4.1204,-1.418707 -6.0456,-2.946528 -7.4548,-5.916118 -3.1606,-6.660636 -1.0616,-16.986539 3.9139,-19.253525 C 1421.6547,58.377674 1432,58.593282 1432,61.545313 1432,62.666962 1430.5322,63 1425.5889,63 c -5.9314,0 -6.6048,0.230238 -9,3.076725 -2.9937,3.557756 -3.316,7.588834 -0.9974,12.47478 1.9163,4.038302 6.7456,5.970021 12.5891,5.03561 3.4496,-0.551613 3.9307,-0.401011 3.6377,1.138594 -0.2689,1.412735 -1.4565,1.81369 -5.828,1.967636 -3.0197,0.10634 -6.1653,-0.03906 -6.9903,-0.323121 z m 33.6349,-1.442804 C 1450.6023,83.328573 1450,81.973468 1450,78.998848 c 0,-2.120795 0.6709,-4.526878 1.4909,-5.346851 2.4827,-2.482769 8.3204,-3.907382 13.0841,-3.193023 4.2262,0.633759 4.425,0.55171 4.425,-1.826273 C 1469,64.344197 1466.5965,63 1458.9286,63 1453.5917,63 1452,62.671942 1452,61.571956 c 0,-2.019733 9.4719,-3.060526 14.7988,-1.626131 5.9722,1.608132 7.2012,4.510335 7.2012,17.004515 0,10.14578 -0.7372,11.912483 -3.7242,8.925424 -0.8324,-0.832316 -1.9617,-0.832316 -4.3493,0 -5.0323,1.754272 -10.337,1.375788 -13.2916,-0.948344 z M 1467.29,81.8448 c 1.305,-0.698416 1.7387,-1.88703 1.5184,-4.16124 -0.3002,-3.099294 -0.4503,-3.191661 -5.6677,-3.489611 -3.9737,-0.226924 -5.8482,0.136325 -7.25,1.404988 -4.2596,3.854876 -0.2594,9.015776 6.0909,7.858196 1.9149,-0.349059 4.3036,-1.074609 5.3084,-1.612333 z m 28.46,4.465874 c -0.9625,-0.251527 -1.75,-1.143511 -1.75,-1.982185 0,-1.261748 0.9922,-1.41762 5.75,-0.903347 6.3736,0.688922 10.4915,-0.725129 11.0849,-3.806479 0.5577,-2.895664 -1.3522,-3.964899 -8.3818,-4.692489 -4.6734,-0.483709 -6.958,-1.215247 -7.9703,-2.552122 -2.015,-2.660857 -1.8622,-8.728904 0.2672,-10.610195 3.8733,-3.42209 19.2491,-3.342469 19.2508,0.09969 7e-4,1.372388 -1.2307,1.636456 -7.6307,1.636456 -6.177,0 -7.8439,0.333541 -8.7457,1.75 -1.4924,2.344045 0.2856,5.162767 3.4777,5.513361 8.982,0.986503 11.1267,1.565811 12.919,3.489633 3.6715,3.940892 2.0062,9.645533 -3.4177,11.707691 -2.7036,1.027926 -11.4689,1.23446 -14.8534,0.349989 z M 758.03327,53.25 c 0.079,-1.78059 3.96276,-5.25 5.87702,-5.25 2.70993,0 2.64348,1.131132 -0.22474,3.825686 -2.22847,2.093536 -5.72101,2.973619 -5.65228,1.424314 z M 1307.1581,51 C 1309.2014,48.23635 1314,46.711372 1314,48.825686 1314,50.463521 1309.3221,54 1307.1556,54 h -2.2155 z M 829,50.5 c 0,-3.068837 3.49857,-3.525457 4.27461,-0.557905 C 833.8812,52.261727 833.2918,53 830.83333,53 829.54444,53 829,52.257576 829,50.5 Z m 557,0 c 0,-1.833333 0.5333,-2.5 2,-2.5 1.4667,0 2,0.666667 2,2.5 0,1.833333 -0.5333,2.5 -2,2.5 -1.4667,0 -2,-0.666667 -2,-2.5 z"
       id="path2054"
       sodipodi:nodetypes="ssssssscsssssscssssssscssssssscssscccsssscsscsssssssssssscsssssssssssssssssssssscccsssssssssssssssssscsssssssssssssssssssssssssscsssssssssssssssssssssssssssssssssssssssssssssssssssscsssssssssssssscsssccssssccsssssssssssssssssssssssssssscccssssssssssscccsssssssssssssssssssssssssssssssssssssssssssssssssssssssssscssscssssssssscssssssssssssccccsssccccsssssscssssssssssssssssssssssssssssccssccsssssssssssssssssssssssssssssssssssssssssssssssssssssssscssssssssss" />
  </g>
</svg>
