<?xml version="1.0" encoding="UTF-8" standalone="no"?>
<!-- Created with Inkscape (http://www.inkscape.org/) -->

<svg
   width="360.42487mm"
   height="99.418587mm"
   viewBox="0 0 360.42487 99.41859"
   version="1.1"
   id="svg5"
   inkscape:version="1.1 (c68e22c387, 2021-05-23)"
   sodipodi:docname="logo_intersystems.svg"
   xmlns:inkscape="http://www.inkscape.org/namespaces/inkscape"
   xmlns:sodipodi="http://sodipodi.sourceforge.net/DTD/sodipodi-0.dtd"
   xmlns="http://www.w3.org/2000/svg"
   xmlns:svg="http://www.w3.org/2000/svg">
  <sodipodi:namedview
     id="namedview7"
     pagecolor="#ffffff"
     bordercolor="#666666"
     borderopacity="1.0"
     inkscape:pageshadow="2"
     inkscape:pageopacity="0.0"
     inkscape:pagecheckerboard="0"
     inkscape:document-units="mm"
     showgrid="false"
     fit-margin-top="0"
     fit-margin-left="0"
     fit-margin-right="0"
     fit-margin-bottom="0"
     inkscape:zoom="0.74118967"
     inkscape:cx="611.85418"
     inkscape:cy="320.4308"
     inkscape:window-width="1920"
     inkscape:window-height="1017"
     inkscape:window-x="-8"
     inkscape:window-y="-8"
     inkscape:window-maximized="1"
     inkscape:current-layer="layer1" />
  <defs
     id="defs2" />
  <g
     inkscape:label="Capa 1"
     inkscape:groupmode="layer"
     id="layer1"
     transform="translate(103.19633,-42.635361)">
    <path
       style="fill:#000000;stroke-width:0.264583"
       id="path2794"
       d="" />
    <path
       style="fill:#ffffff;stroke-width:0.264583;fill-opacity:1"
       d="m -90.827058,135.86805 -12.369272,-6.1859 V 89.994115 50.306071 l 6.083213,3.043812 c 3.345767,1.674096 6.143735,3.043811 6.217708,3.043811 0.07397,0 0.134497,-3.095625 0.134497,-6.879167 0,-3.783541 0.06003,-6.879166 0.133394,-6.879166 0.07337,0 5.728835,2.798217 12.567708,6.218259 l 12.434314,6.21826 v 39.510565 c 0,21.730795 -0.07309,39.583635 -0.162417,39.672965 -0.08933,0.0893 -2.886308,-1.20051 -6.215504,-2.86632 -3.329197,-1.6658 -6.111633,-3.02873 -6.18319,-3.02873 -0.07156,0 -0.161845,3.08105 -0.200642,6.84679 l -0.07054,6.8468 z m 12.501562,-40.447215 v -32.67493 l -6.083212,-3.04382 c -3.345767,-1.674093 -6.143735,-3.043808 -6.217708,-3.043808 -0.07397,0 -0.134496,14.682688 -0.134496,32.628198 v 32.628195 l 6.01927,3.08439 c 3.310599,1.6964 6.108568,3.08714 6.217709,3.09054 0.10914,0.003 0.198437,-14.69754 0.198437,-32.668765 z M 233.0224,139.64073 c -0.54599,-0.20375 -1.39702,-0.67884 -1.89116,-1.05573 -0.95385,-0.72754 -2.01091,-2.59959 -2.01091,-3.5613 v -0.57793 h 1.59811 1.59808 l 1.00677,1.05834 c 0.76586,0.80509 1.20965,1.05833 1.85462,1.05833 1.14292,0 2.23798,-0.60463 2.62216,-1.44782 0.17385,-0.38156 0.31609,-1.1725 0.31609,-1.75765 v -1.0639 l -0.85989,0.61333 -0.8599,0.61333 h -1.89545 -1.89542 l -1.14729,-0.79551 c -1.57898,-1.09486 -2.34817,-2.72578 -2.52886,-5.36184 -0.35348,-5.15729 2.00769,-7.94651 6.57022,-7.76131 0.37986,0.0154 1.124,0.3221 1.65364,0.68152 l 0.96295,0.65349 v -0.5212 -0.52119 h 1.85209 1.85208 l -0.003,7.47448 c 0,4.39917 -0.11565,7.88568 -0.279,8.4739 -0.35422,1.27555 -1.61613,2.71387 -3.00175,3.42143 -1.37192,0.70055 -4.14168,0.88998 -5.51569,0.37723 z m 4.32036,-10.46627 0.7734,-0.7734 v -1.71984 -1.71985 l -0.65627,-0.77994 c -0.36094,-0.42897 -1.0232,-0.85332 -1.47167,-0.94302 -0.99904,-0.1998 -2.48398,0.37744 -2.88144,1.12013 -0.48406,0.90443 -0.63024,2.81522 -0.29348,3.83564 0.17397,0.52706 0.57177,1.13725 0.88406,1.35598 0.31228,0.21873 1.08624,0.3977 1.71989,0.3977 0.92062,0 1.30752,-0.15541 1.92551,-0.7734 z m 7.91715,8.84319 v -1.71979 h 1.07183 1.07185 l 0.37211,-0.89061 0.37211,-0.8906 -2.24343,-6.31929 c -1.23388,-3.47561 -2.42048,-6.77081 -2.63689,-7.32265 l -0.39348,-1.00337 2.03514,0.0773 2.03515,0.0773 1.50281,4.30732 c 0.82653,2.36903 1.56242,4.36693 1.63528,4.4398 0.0729,0.0729 0.83246,-1.89519 1.68799,-4.37346 l 1.55551,-4.50596 h 1.92014 c 1.05608,0 1.92013,0.11037 1.92013,0.24528 0,0.37775 -6.04493,17.1652 -6.49287,18.03142 -0.56912,1.10055 -1.66476,1.56705 -3.68044,1.56705 h -1.73294 z M -41.285541,134.4782 c -1.866763,-0.61023 -3.214717,-1.74223 -4.134395,-3.47201 l -0.492353,-0.92604 -0.08963,-4.61361 c -0.0493,-2.53747 -0.014,-5.11801 0.07846,-5.73449 0.21649,-1.44367 1.368772,-3.14832 2.759551,-4.08237 1.430534,-0.96075 4.118806,-1.43439 6.042681,-1.06461 3.31628,0.6374 5.167376,2.45675 5.737736,5.63935 l 0.177813,0.99219 h -1.943214 -1.943211 l -0.341492,-0.94438 c -0.463545,-1.28191 -1.645708,-1.96379 -3.406719,-1.96504 l -1.392947,-0.001 -0.988303,0.90505 -0.988301,0.90506 -0.07515,4.18817 -0.07515,4.18817 0.543967,0.87583 c 0.929669,1.49681 3.138966,2.05782 4.869646,1.23657 0.865751,-0.41077 1.748152,-1.59778 1.748152,-2.35159 v -0.42219 h 2.007632 2.007632 l -0.187256,1.12447 c -0.370668,2.2259 -1.626434,3.96696 -3.596154,4.9859 -0.880795,0.45564 -1.696103,0.61747 -3.406854,0.67621 -1.236927,0.0425 -2.547384,-0.0204 -2.912128,-0.13958 z m 25.308699,-0.0395 c -1.321596,-0.39614 -2.518065,-1.40883 -3.273961,-2.77108 l -0.734068,-1.32292 v -3.18206 -3.18207 l 0.661458,-1.27839 c 0.385151,-0.74437 1.142058,-1.62561 1.811975,-2.1096 l 1.150516,-0.83121 h 2.685942 2.685941 l 1.1727131,0.79375 c 1.6760084,1.1344 2.4632947,2.82836 2.6130832,5.62239 l 0.1170199,2.18282 H -11.74961 c -3.029283,0 -4.663387,0.0957 -4.663387,0.27308 0,0.63911 0.790517,2.08782 1.283124,2.35145 0.293793,0.15724 1.030012,0.28588 1.636037,0.28588 h 1.101866 l 0.741473,-0.79375 0.741474,-0.79375 h 1.7459295 c 1.9812477,0 2.0866074,0.15252 1.2409938,1.79648 -0.6495547,1.2628 -1.7518777,2.30154 -2.9922943,2.81969 -1.056124,0.44117 -3.803142,0.51675 -5.062448,0.13929 z m 4.855512,-9.60923 c 0,-1.21632 -1.750124,-2.157 -3.245109,-1.74422 -0.999136,0.27588 -1.622507,0.85615 -1.900802,1.76935 l -0.181416,0.59532 h 2.663663 2.663664 z m 8.598958,9.56171 c -0.9734576,-0.34017 -1.9121913,-1.16528 -2.406388,-2.1151 -0.5113073,-0.98272 -0.4655423,-3.06612 0.091694,-4.17423 0.261567,-0.52016 0.9829112,-1.23936 1.659845,-1.65492 0.874342,-0.53675 1.801995,-0.81227 3.43958332,-1.02159 1.23329168,-0.15764 2.58652128,-0.36615 3.00717728,-0.46335 l 0.764828,-0.17674 -0.695782,-0.82689 c -0.38268,-0.45479 -1.009539,-0.88687 -1.3930183,-0.96018 -0.94804438,-0.18123 -2.30255228,0.22568 -2.88178338,0.86572 l -0.47754642,0.52769 h -1.8289059 -1.8289058 l 0.183642,-0.59532 c 0.5367814,-1.7401 1.7440778,-3.08575 3.382563,-3.77019 0.55935032,-0.23366 1.70182912,-0.42811 2.5388384,-0.43211 2.9892754,-0.0143 4.7679714,0.90141 5.9146144,3.04496 l 0.583711,1.0912 0.08565,5.35781 0.08565,5.35781 h -1.871586 -1.871586 v -0.70758 -0.70758 l -0.595312,0.55767 c -0.327422,0.30671 -0.930484,0.68465 -1.3401415,0.83987 -0.9301612,0.35243 -3.4921534,0.33161 -4.5468381,-0.0369 z m 4.6350184,-3.28551 c 1.1033732,-0.44149 1.8472732,-1.4405 1.8472732,-2.48075 v -0.55545 l -1.653646,0.16783 c -2.02050098,0.20506 -3.22884778,0.55606 -3.6464026,1.05918 -0.4862592,0.5859 -0.088548,1.63023 0.73544912,1.93116 1.0467445,0.38228 1.5089293,0.36152 2.71732628,-0.12197 z m 42.2325486,3.21709 c -1.252072,-0.44635 -2.412151,-1.51552 -3.167984,-2.91972 l -0.569663,-1.05834 v -3.175 -3.175 l 0.569663,-1.05833 c 1.194975,-2.22006 3.064547,-3.33014 5.629175,-3.34241 1.869588,-0.009 3.427476,0.39016 4.347305,1.1137 0.382902,0.30119 1.017646,1.09615 1.410544,1.76658 l 0.714357,1.21895 0.111569,2.33357 0.11157,2.33357 h -4.486183 c -2.467401,0 -4.554677,0.0685 -4.638392,0.1522 -0.290533,0.29054 0.332264,1.83271 0.924132,2.28834 0.349387,0.26896 1.067773,0.46054 1.739921,0.46399 l 1.144833,0.006 0.79375,-0.79375 0.79375,-0.79375 h 1.699438 1.69944 v 0.60966 c 0,0.33531 -0.34348,1.15127 -0.763286,1.81324 -0.543772,0.85744 -1.16745,1.40498 -2.168618,1.90388 -1.102706,0.5495 -1.778722,0.6978 -3.139316,0.68869 -0.953693,-0.006 -2.193895,-0.17556 -2.756005,-0.37594 z m 5.246002,-9.46816 c -0.09751,-0.32742 -0.451901,-0.87943 -0.787524,-1.22671 -1.232617,-1.27536 -4.117401,-0.52601 -4.313931,1.12058 l -0.08372,0.70144 h 2.681238 2.681237 z m 15.090597,9.3688 c -1.395079,-0.66526 -2.399654,-1.76959 -2.900137,-3.18811 -0.476589,-1.35079 -0.55449,-5.97025 -0.126661,-7.51084 0.352401,-1.26899 1.614582,-2.71324 2.979943,-3.40979 0.823545,-0.42013 1.424956,-0.51844 2.682142,-0.43838 1.142421,0.0727 1.870946,0.28147 2.469198,0.70747 l 0.84864,0.60428 v -3.19301 -3.19302 h 1.852084 1.852083 v 9.92188 9.92187 h -1.852083 -1.852084 v -0.52916 c 0,-0.29105 -0.06435,-0.52917 -0.143004,-0.52917 -0.07865,0 -0.495038,0.26027 -0.925301,0.57838 -1.097211,0.8112 -3.462353,0.93593 -4.88482,0.2576 z m 4.670002,-3.50312 c 0.293793,-0.15723 0.702686,-0.68919 0.908648,-1.18213 0.502909,-1.20363 0.480915,-3.90869 -0.03997,-4.91596 -0.497211,-0.9615 -1.890448,-1.60848 -2.990149,-1.38855 -0.43542,0.0871 -1.067901,0.45222 -1.405517,0.81139 l -0.613844,0.65307 -0.09226,2.35453 -0.09226,2.35452 0.799507,0.7995 c 0.632296,0.6323 1.028745,0.79951 1.895589,0.79951 0.602842,0 1.336458,-0.12864 1.630251,-0.28587 z m 10.006031,3.74106 c -1.964515,-0.59686 -2.977483,-2.01522 -2.95837,-4.1423 0.01524,-1.69546 0.614297,-2.88023 1.891562,-3.74099 1.128956,-0.7608 2.32972,-1.09369 4.691227,-1.30055 1.042958,-0.0914 2.054989,-0.26515 2.248958,-0.3862 0.519848,-0.3244 -0.01037,-1.06033 -1.185339,-1.64524 l -0.972381,-0.48406 -0.895622,0.29558 c -0.492593,0.16257 -1.107067,0.52924 -1.365499,0.81479 l -0.469876,0.51921 h -1.839759 -1.839759 l 0.172109,-0.72761 c 0.290404,-1.22772 1.544373,-2.77116 2.795675,-3.44104 l 1.190625,-0.6374 2.389375,0.0976 2.389375,0.0976 1.164588,0.78406 c 0.747606,0.50333 1.407832,1.25772 1.843958,2.10697 l 0.67937,1.32292 0.08601,5.22552 0.08601,5.22552 h -1.871943 -1.871943 v -0.85262 -0.85262 l -0.387718,0.55355 c -0.62204,0.88808 -2.050793,1.41855 -3.75331,1.39353 -0.851133,-0.0125 -1.848924,-0.11431 -2.217314,-0.22624 z m 4.448424,-3.33062 c 1.064225,-0.42582 1.909918,-1.53348 1.909918,-2.50155 v -0.57555 l -1.785937,0.18677 c -0.982266,0.10272 -2.202656,0.32056 -2.711979,0.48408 l -0.926042,0.29731 -0.08167,0.84332 -0.08167,0.8433 0.743133,0.40287 c 0.953968,0.51717 1.678331,0.52198 2.934253,0.0195 z m 20.347089,3.19627 c -0.55534,-0.19805 -1.25638,-0.57978 -1.55787,-0.84828 -1.20162,-1.07011 -1.60458,-3.27363 -0.90488,-4.94823 0.45307,-1.08436 2.11363,-2.48342 3.34016,-2.81418 0.50932,-0.13735 1.91577,-0.36017 3.12544,-0.49512 1.20966,-0.13497 2.26111,-0.30711 2.33654,-0.38254 0.30463,-0.30464 -0.53374,-1.30911 -1.39191,-1.66767 -0.71575,-0.29906 -1.14334,-0.32043 -1.96804,-0.0984 -0.57949,0.15604 -1.19909,0.51665 -1.37689,0.80134 l -0.32326,0.51764 h -1.89597 -1.89597 l 0.28624,-0.93265 c 0.40976,-1.3351 1.85148,-2.90102 3.14888,-3.42014 1.42666,-0.57083 4.33468,-0.57671 5.68777,-0.0115 1.37813,0.57568 2.43152,1.61623 3.0789,3.04135 l 0.54085,1.19063 0.12044,5.09323 0.12044,5.09323 h -2.01861 -2.0186 v -0.70758 -0.70758 l -0.59532,0.54221 c -0.32742,0.29823 -0.85537,0.67618 -1.17323,0.83988 -0.78461,0.40409 -3.42793,0.35554 -4.66511,-0.0857 z m 4.3711,-3.06684 c 1.17816,-0.32721 2.06256,-1.36465 2.06256,-2.41948 v -0.7712 l -1.65365,0.1808 c -3.06178,0.33476 -4.40066,1.10761 -3.74299,2.16058 0.32717,0.52381 1.36184,1.11546 1.95705,1.1191 0.21829,10e-4 0.83795,-0.12007 1.37703,-0.2698 z m 27.08098,3.07126 c -1.57052,-0.58338 -2.32165,-1.25373 -3.12415,-2.78819 l -0.72761,-1.39124 0.003,-2.94635 0.003,-2.94635 0.62385,-1.32291 c 1.14166,-2.42093 2.69915,-3.31077 5.77862,-3.30148 2.1852,0.007 3.61882,0.53301 4.75697,1.74676 1.04354,1.11286 1.53338,2.5045 1.71625,4.87589 l 0.16203,2.10279 h -4.66942 -4.66943 v 0.68181 c 0,0.40707 0.32474,1.00654 0.80589,1.4877 l 0.8059,0.80589 1.36151,-0.13082 c 1.06208,-0.10205 1.48347,-0.28377 1.91603,-0.82625 l 0.55451,-0.69542 h 1.80468 1.80468 l -0.17708,0.72761 c -0.28442,1.16867 -1.38865,2.6521 -2.54261,3.41575 l -1.07031,0.7083 -2.03629,0.092 c -1.3452,0.0608 -2.39027,-0.0395 -3.07932,-0.29547 z m 5.14408,-9.29577 c 0,-1.26551 -1.67315,-2.35996 -3.15479,-2.06363 -0.95531,0.19106 -2.13688,1.28855 -2.13688,1.98481 v 0.49309 h 2.64583 2.64584 z m 9.76879,9.31297 c -1.25517,-0.44872 -1.99745,-0.98957 -2.74064,-1.9969 -0.96955,-1.31416 -1.27914,-2.87877 -1.16733,-5.89944 l 0.10104,-2.72942 0.73786,-1.25906 c 0.40582,-0.69249 1.22843,-1.58382 1.82801,-1.98074 l 1.09015,-0.72168 2.18697,-0.0927 2.18698,-0.0927 1.45308,0.66525 c 1.01512,0.46474 1.64613,0.97114 2.09356,1.68015 0.57998,0.91907 0.73083,1.28535 1.15347,2.80085 l 0.12913,0.46303 h -1.86311 -1.86312 l -0.42125,-0.8146 c -0.47758,-0.92354 -1.84329,-1.60763 -2.7918,-1.39841 -2.04187,0.45039 -2.4463,1.25394 -2.31745,4.60455 l 0.093,2.41713 0.74236,0.63837 c 0.54627,0.46975 1.05613,0.63837 1.93025,0.63837 0.90845,0 1.34068,-0.15278 1.83733,-0.64943 0.35719,-0.35719 0.64943,-0.83344 0.64943,-1.05833 v -0.4089 h 1.96305 1.96305 l -0.27245,0.99218 c -0.14984,0.54571 -0.43182,1.30194 -0.62661,1.68052 -0.52907,1.02824 -2.08801,2.28919 -3.21824,2.60305 -1.34391,0.37321 -3.69554,0.33388 -4.85667,-0.0812 z m 45.96529,0.0901 c -1.32162,-0.39614 -2.51807,-1.40883 -3.27398,-2.77108 l -0.73406,-1.32292 v -3.18206 -3.18207 l 0.66146,-1.27839 c 0.38515,-0.74437 1.14204,-1.62561 1.81197,-2.1096 l 1.15051,-0.83121 h 2.68595 2.68594 l 1.1751,0.79375 c 0.75289,0.50856 1.41835,1.26653 1.85208,2.1096 l 0.67699,1.31585 v 3.18207 3.18206 l -0.57108,1.05833 c -0.72879,1.35063 -1.81065,2.37515 -3.05845,2.89638 -1.05611,0.44117 -3.80315,0.51675 -5.06243,0.13929 z m 4.18854,-3.79985 c 0.34753,-0.34755 0.71456,-1.07252 0.81558,-1.61107 0.26307,-1.40232 -0.0124,-4.5501 -0.44374,-5.0702 -0.20148,-0.24295 -0.73715,-0.59673 -1.19038,-0.78619 -0.5928,-0.24779 -1.08284,-0.273 -1.74628,-0.0898 -1.46463,0.40441 -1.89772,1.08755 -2.01594,3.17984 -0.13496,2.38847 0.11083,3.60065 0.8876,4.37744 0.48262,0.48261 0.91884,0.63189 1.84658,0.63189 0.92773,0 1.36395,-0.14928 1.84658,-0.63189 z m 17.39892,3.71829 c -1.36406,-0.4947 -2.58083,-1.61798 -3.25088,-3.0011 l -0.61812,-1.27592 -0.0124,-2.77813 c -0.008,-1.68024 0.12814,-3.17919 0.3434,-3.793 0.48882,-1.39379 1.79817,-2.81185 3.14743,-3.40869 1.28866,-0.57004 3.64789,-0.6662 5.31718,-0.21671 1.49484,0.40252 2.76161,1.58084 3.47011,3.22776 l 0.58912,1.36947 -0.0927,3.08515 -0.0927,3.08516 -0.79505,1.30199 c -0.597,0.97772 -1.15247,1.48322 -2.23025,2.0296 l -1.4352,0.72761 -1.7385,-0.0201 c -0.95618,-0.0111 -2.12678,-0.16095 -2.60133,-0.33305 z m 4.45505,-3.8598 0.77341,-0.77339 v -2.63011 -2.6301 l -0.66794,-0.66794 c -0.79942,-0.79943 -1.72998,-1.01752 -2.92902,-0.68645 -1.42915,0.39461 -1.69471,1.03441 -1.69471,4.08314 v 2.68318 l 0.69755,0.69754 c 0.54419,0.54421 0.95578,0.69753 1.87243,0.69753 h 1.17488 z m -251.90367,-3.32764 v -7.27604 h 1.984375 1.984375 v 0.49318 0.49318 l 1.235467,-0.62547 c 0.679505,-0.34401 1.691537,-0.62547 2.248958,-0.62547 h 1.013492 v 1.85208 1.85208 h -1.47556 -1.475563 l -0.773395,0.7734 -0.773399,0.7734 v 4.78285 4.78285 h -1.984375 -1.984375 z m 42.1283,6.74576 c -0.476568,-0.29056 -0.982583,-0.83365 -1.124479,-1.20686 -0.141894,-0.3732 -0.257988,-2.63534 -0.257988,-5.02696 v -4.3484 H 10.30992 9.2515866 v -1.71979 -1.71979 h 1.0583334 1.058333 v -1.73188 -1.73188 l 1.785938,0.0782 1.785937,0.0782 0.07877,1.65364 0.07877,1.65365 h 1.707168 1.707166 v 1.71978 1.71979 h -1.727057 -1.727054 l 0.07341,3.77031 0.07341,3.77032 1.653645,0.0788 1.653646,0.0788 v 1.70717 1.70716 l -2.447396,-0.001 -2.447395,-0.001 -0.866492,-0.5283 z m 7.87795,-6.74576 v -7.27604 h 1.852083 1.852083 v 7.27604 7.27604 H 22.480753 20.62867 Z m 7.959333,0.33956 c -1.370441,-3.82478 -2.544037,-7.10297 -2.607995,-7.28487 -0.08631,-0.24547 0.393938,-0.33073 1.862989,-0.33073 h 1.979274 l 1.544267,4.49518 c 0.849347,2.47235 1.627558,4.40712 1.729362,4.29948 0.101801,-0.10764 0.840115,-2.08023 1.640702,-4.38355 0.800584,-2.30332 1.511348,-4.24359 1.579475,-4.31171 0.06813,-0.0681 0.958824,-0.0886 1.979325,-0.0455 l 1.855456,0.0784 -2.577361,7.14375 -2.577362,7.14375 -1.958211,0.075 -1.958213,0.075 z m 65.677862,6.42048 c -0.46365,-0.28271 -0.99396,-0.78828 -1.17846,-1.12349 -0.21875,-0.39743 -0.37332,-2.15131 -0.4443,-5.04124 l -0.10883,-4.43177 h -0.895511 -0.895511 v -1.71979 -1.71978 h 0.913415 0.913417 l 0.0788,-1.65365 0.0788,-1.65364 h 1.85209 1.85208 l 0.0788,1.65364 0.0788,1.65365 h 1.70717 1.707155 v 1.71978 1.71979 h -1.727045 -1.72706 l 0.0734,3.77031 0.0734,3.77032 1.65365,0.0788 1.653635,0.0788 v 1.70717 1.70716 l -2.447385,-0.001 c -1.95648,-7.9e-4 -2.6165,-0.10409 -3.29041,-0.515 z m 30.052445,-0.0885 c -0.51367,-0.34538 -1.03438,-0.99748 -1.21482,-1.52136 -0.18762,-0.54474 -0.32185,-2.55453 -0.33073,-4.95177 l -0.0149,-4.0349 h -0.92604 -0.92604 v -1.71979 -1.71979 h 0.91341 0.91342 l 0.0788,-1.65365 0.0788,-1.65364 1.78594,-0.0782 1.78594,-0.0782 v 1.73188 1.73188 h 1.85208 1.85208 v 1.71979 1.71979 h -1.85208 -1.85208 v 3.32469 c 0,1.82858 0.12325,3.55498 0.27389,3.83646 l 0.27389,0.51177 h 1.57819 1.57819 v 1.71979 1.71979 h -2.47441 -2.47441 z m 37.33327,-9.3174 v -9.92188 h 1.85208 1.85209 v 3.18292 3.18292 l 0.78554,-0.58078 c 1.07548,-0.79513 3.34548,-0.96999 4.89752,-0.37725 0.64429,0.24605 1.52908,0.85469 1.96617,1.35251 1.3126,1.49497 1.61118,3.04593 1.61118,8.36895 v 4.71448 h -1.85208 -1.85208 v -4.51105 c 0,-5.09734 -0.2,-5.8512 -1.72091,-6.48667 -1.12942,-0.47191 -2.29621,-0.24655 -3.08922,0.59667 l -0.61383,0.65271 -0.0825,4.87417 -0.0825,4.87417 h -1.83571 -1.83573 z m 15.34583,2.64583 v -7.27604 h 1.98438 1.98437 v 0.52119 0.5212 l 0.96295,-0.65349 c 0.74512,-0.50565 1.29879,-0.65217 2.4474,-0.64767 1.58898,0.006 3.29406,0.63199 4.05403,1.48784 0.2491,0.28053 0.72088,1.10102 1.04838,1.82331 l 0.5955,1.31324 0.10414,5.09323 0.10414,5.09323 h -2.01242 -2.01245 v -4.77989 c 0,-2.91801 -0.11136,-4.98797 -0.28588,-5.31407 -0.15724,-0.29379 -0.69736,-0.7061 -1.20031,-0.91624 -0.71128,-0.2972 -1.1452,-0.31992 -1.95339,-0.1023 -0.57142,0.15387 -1.22193,0.54097 -1.44553,0.86021 l -0.40656,0.58045 v 4.83592 4.83592 h -1.98437 -1.98438 z m 31.8507,6.7708 c -0.45392,-0.2768 -0.95993,-0.88943 -1.12448,-1.36141 -0.19862,-0.56979 -0.29913,-3.73432 -0.29913,-9.41762 v -8.55948 h 1.84824 1.84828 l 0.07,8.13594 0.07,8.13594 0.8599,0.0829 0.8599,0.0829 v 1.70302 1.70303 l -1.65365,-10e-4 c -1.15824,-7.9e-4 -1.9009,-0.15175 -2.47899,-0.50425 z M 20.62867,116.32181 v -1.71979 h 1.852083 1.852083 v 1.71979 1.7198 H 22.480753 20.62867 Z m 71.966665,-14.81665 v -3.307295 h 1.9255 c 1.24222,0 2.11736,-0.13438 2.46614,-0.37868 0.30098,-0.21081 0.74106,-1.06117 0.99275,-1.91823 l 0.4521,-1.53955 -5.00867,-14.02292 -5.008678,-14.02292 3.723304,-0.0737 c 2.047824,-0.0405 3.805244,0.019 3.905394,0.13229 0.10014,0.11329 1.53596,4.1016 3.19071,8.86291 1.654735,4.76131 3.092515,8.57131 3.195055,8.46667 0.10254,-0.10465 1.51028,-4.00027 3.12832,-8.65694 1.61803,-4.65666 3.03404,-8.55935 3.14668,-8.67264 0.11265,-0.11329 1.87788,-0.17282 3.92275,-0.13229 l 3.71795,0.0737 -6.26866,17.4625 c -3.44776,9.60438 -6.46952,17.843305 -6.715,18.308725 -0.56979,1.08027 -1.87431,2.06466 -3.22502,2.43362 -0.582085,0.159 -2.516845,0.28975 -4.299475,0.29056 l -3.24115,0.001 z M -46.84008,77.031195 V 57.187444 h 4.365625 4.365625 v 19.843751 19.84375 h -4.365625 -4.365625 z m 12.170834,3.43958 v -14.2875 h 3.571875 3.571875 v 1.21804 1.21803 l 0.933397,-0.81953 c 0.513371,-0.45075 1.436105,-1.08816 2.050521,-1.41648 l 1.117123,-0.59693 h 2.924138 2.92414 l 2.019515,0.9981 c 2.262224,1.11805 3.757543,2.60251 4.830373,4.79529 1.2741065,2.60418 1.4474668,4.28909 1.4524489,14.1165 l 0.00459,9.06198 h -3.7041669 -3.704166 l -0.0058,-9.06198 -0.0058,-9.06198 -0.508934,-1.12116 c -0.34901,-0.76885 -0.903883,-1.37162 -1.765782,-1.91823 l -1.256826,-0.79706 -1.601846,0.006 c -3.09649,0.0112 -4.976212,1.52883 -5.445887,4.39674 -0.139665,0.85281 -0.254624,5.15221 -0.255468,9.55422 l -0.0015,8.00363 h -3.571874 -3.571875 z m 33.83551892,13.92222 c -1.36994102,-0.48954 -2.76022332,-1.398 -3.22496652,-2.10728 -0.2202471,-0.33614 -0.5897536,-1.24862 -0.8211265,-2.02774 l -0.4206769,-1.41657 v -14.50407 -14.50406 h 3.7041667 3.7041666 v 3.175 3.175 h 3.4395833 3.439583 v 3.30729 3.3073 H 5.5474196 2.1078363 v 7.23503 7.23503 l 0.4838543,0.43789 0.483854,0.43788 h 2.955729 2.955729 v 3.30729 3.30729 l -4.43177,-0.0116 c -2.9257974,-0.008 -4.75703678,-0.12785 -5.38895968,-0.35367 z m 21.15133708,-0.043 c -2.307164,-0.55959 -3.925403,-1.42714 -5.402019,-2.89604 -1.48735,-1.47958 -2.793421,-3.95433 -3.254952,-6.16751 -0.364487,-1.74785 -0.382958,-8.75286 -0.02812,-10.66649 0.145344,-0.78385 0.678247,-2.2694 1.184225,-3.30122 1.721154,-3.50987 4.927862,-5.69909 9.002554,-6.14607 2.566487,-0.28152 5.682033,0.0226 7.586964,0.74049 2.878238,1.08476 5.138494,3.43442 6.306352,6.5558 0.670803,1.79288 1.110977,5.32851 1.001556,8.04485 l -0.07821,1.94139 -9.054671,0.0696 -9.054671,0.0696 0.149511,0.85643 c 0.306551,1.75597 0.685667,2.57061 1.549127,3.32874 1.215776,1.06746 2.551062,1.45883 4.40408,1.2908 1.821431,-0.16516 3.149846,-0.90224 3.945075,-2.18895 l 0.564083,-0.9127 h 3.579741 3.579741 l -0.171831,0.91595 c -0.311422,1.66001 -1.40462,3.72738 -2.748573,5.19788 -1.422821,1.55679 -3.351411,2.6823 -5.639925,3.29141 -1.767173,0.47035 -5.430798,0.45851 -7.420038,-0.024 z m 8.865616,-18.70782 c -0.247788,-1.30347 -0.789763,-2.2181 -1.74702,-2.94824 -0.476266,-0.36326 -1.428893,-0.78664 -2.116945,-0.94084 -2.267354,-0.50812 -5.06304,0.52096 -5.920636,2.17937 -0.549064,1.06177 -0.879023,2.22442 -0.686052,2.4174 0.08371,0.0837 2.510637,0.1522 5.393164,0.1522 h 5.240954 z m 11.617624,4.89479 0.06844,-14.22136 h 3.571875 3.571875 l 0.07801,1.33235 0.078,1.33234 1.145694,-1.09776 c 0.640241,-0.61346 1.70635,-1.28881 2.416521,-1.53079 0.721463,-0.24582 2.108282,-0.43301 3.208073,-0.43301 h 1.937242 v 3.57187 3.57188 h -2.471928 -2.471925 l -1.166096,0.6052 c -0.894715,0.46435 -1.335423,0.93721 -1.893697,2.03182 l -0.727604,1.42662 v 8.81609 8.8161 h -3.706466 -3.706463 z m 29.933164,13.84389 c -1.997689,-0.45559 -4.147198,-1.45385 -5.725618,-2.65906 -2.219544,-1.69475 -4.045164,-5.195 -4.522671,-8.67129 l -0.136287,-0.99219 h 3.809204 3.809203 l 0.334026,1.12448 c 0.205891,0.69312 0.799272,1.59175 1.546828,2.34256 0.931368,0.93542 1.53851,1.29621 2.616425,1.5548 0.785204,0.18836 2.178463,0.28128 3.162258,0.21089 2.853783,-0.20418 4.165939,-1.18631 4.453967,-3.33372 0.181747,-1.35504 -0.500409,-2.78145 -1.678334,-3.50944 -0.498753,-0.30825 -2.837561,-1.08672 -5.197354,-1.72994 -2.359795,-0.64322 -5.130022,-1.57831 -6.156063,-2.07797 -1.026038,-0.49966 -2.38035,-1.4197 -3.00958,-2.04454 -1.546135,-1.53535 -2.591376,-3.82767 -2.971744,-6.51733 -0.239035,-1.69026 -0.236461,-2.5824 0.01132,-3.92721 0.176345,-0.95706 0.619781,-2.33046 0.985409,-3.052 1.868834,-3.687965 6.35571,-6.010551 11.636436,-6.023483 2.097479,-0.0051 5.305906,0.724952 7.012956,1.595823 1.443172,0.736251 3.748172,2.9147 4.572693,4.32164 0.606888,1.03557 1.260051,2.85068 1.605955,4.46284 l 0.15612,0.7276 -3.775353,-0.008 -3.775353,-0.008 -0.707779,-1.16677 c -0.442799,-0.72995 -1.13619,-1.39474 -1.852083,-1.77568 l -1.144305,-0.60891 -2.38125,-0.002 -2.38125,-0.002 -0.965491,0.6004 c -0.990092,0.6157 -1.812634,2.12888 -1.812634,3.33459 0,0.9106 1.066737,2.35139 2.12016,2.86361 0.507402,0.24672 2.708486,0.93619 4.891299,1.53215 2.182812,0.59597 4.824306,1.48594 5.86999,1.97771 1.045681,0.49177 2.45532,1.40487 3.132532,2.0291 2.29072,2.11151 3.453442,5.53288 3.225294,9.49058 -0.07404,1.28432 -0.341617,2.77959 -0.623842,3.48608 -1.188212,2.97443 -3.466513,5.03648 -6.709183,6.07237 -2.234131,0.71371 -7.107219,0.91163 -9.425905,0.38284 z m 53.108576,-0.16441 c -3.47476,-0.90995 -5.90423,-2.73983 -7.13984,-5.37776 -0.4176,-0.89155 -0.8348,-2.12701 -0.9271,-2.74547 l -0.16782,-1.12448 h 3.65829 3.65829 l 0.44783,0.93912 c 0.33056,0.69318 0.8111,1.10824 1.83494,1.58491 2.48142,1.15528 6.05574,0.71814 6.43346,-0.7868 0.25662,-1.02246 -0.0461,-1.82608 -0.86827,-2.30521 -0.40618,-0.23669 -2.4649,-0.81217 -4.57496,-1.27884 -4.62904,-1.02378 -6.5414,-1.94621 -8.00779,-3.86257 -2.58709,-3.38096 -2.35048,-8.24467 0.53971,-11.09403 0.67866,-0.66908 1.9551,-1.56069 2.83653,-1.98136 2.91134,-1.38945 7.50488,-1.49379 10.83933,-0.24621 2.83367,1.06021 5.19782,4.00561 5.60611,6.98444 l 0.16429,1.19863 h -3.74013 c -2.10983,0 -3.74013,-0.10648 -3.74013,-0.24428 0,-0.58698 -1.44221,-1.88411 -2.37371,-2.13494 -1.27237,-0.34261 -3.4679,0.0838 -4.11539,0.79925 -0.66937,0.73964 -0.57456,1.84547 0.21657,2.52597 0.39725,0.3417 1.52147,0.7632 2.74505,1.02919 4.21134,0.91548 6.59075,1.53897 7.36394,1.92962 1.67002,0.84376 2.76925,1.96535 3.62019,3.69387 l 0.86055,1.74801 -8e-4,2.40426 -7.9e-4,2.40426 -0.61758,1.38685 c -0.33968,0.76277 -1.09508,1.81824 -1.67868,2.34549 -1.27893,1.15543 -3.3081,2.12171 -5.21497,2.48334 -2.17945,0.41333 -5.48091,0.29464 -7.65717,-0.27526 z m 21.85654,0.11527 c -1.72668,-0.53071 -3.21487,-2.05694 -3.74443,-3.84017 l -0.41145,-1.38552 v -14.63639 -14.63636 h 3.57187 3.57188 v 3.16732 3.16732 l 3.50573,0.0738 3.50573,0.0738 0.0742,3.23341 0.0742,3.23341 -3.51381,0.0739 -3.51381,0.0739 v 7.05017 7.05017 l 0.50403,0.5566 0.50403,0.5566 h 3.0017 3.0017 v 3.30729 3.30729 l -4.43177,-0.0184 c -3.1068,-0.0129 -4.81089,-0.13496 -5.69985,-0.40818 z m 22.69933,0.1562 c -0.58209,-0.11684 -1.77271,-0.48033 -2.64584,-0.80776 -1.18136,-0.44302 -1.99387,-1.00738 -3.17592,-2.20598 -2.56703,-2.60292 -3.45515,-4.93716 -3.73354,-9.81273 -0.19337,-3.38675 0.20688,-7.21977 0.9612,-9.20499 0.77882,-2.0497 2.2896,-4.06521 3.92502,-5.2363 2.09031,-1.49685 4.3311,-2.12882 7.60354,-2.14445 2.86502,-0.0137 4.84204,0.41274 6.97611,1.50469 2.51077,1.28468 4.56245,4.09988 5.43814,7.46189 0.25329,0.97244 0.39399,2.76837 0.39399,5.02891 v 3.51629 h -9.02964 -9.02965 l 0.17722,1.10821 c 0.2418,1.51216 1.05664,2.87523 2.17821,3.64374 1.24573,0.8536 3.62061,1.04483 5.24962,0.42271 1.08995,-0.41626 2.78133,-1.95967 2.78133,-2.53804 0,-0.15202 1.50765,-0.25537 3.7252,-0.25537 h 3.72517 l -0.17087,0.85989 c -0.32607,1.64086 -1.81509,4.29328 -3.16137,5.63134 -1.47338,1.46441 -3.49438,2.53642 -5.6525,2.99829 -1.57277,0.33659 -4.93036,0.35183 -6.53542,0.0297 z m 8.33437,-18.65785 c 0,-1.21335 -0.98211,-2.70061 -2.28917,-3.46659 l -1.23175,-0.72185 -1.62361,0.0153 c -1.72392,0.0162 -3.30475,0.62661 -4.20719,1.62449 -0.47734,0.52783 -1.1969,2.23234 -1.22,2.88995 -0.009,0.25394 1.21693,0.33072 5.28005,0.33072 h 5.29167 v -0.67199 z m 11.64167,4.63329 v -14.29497 l 3.63802,0.0736 3.63802,0.0736 0.0812,0.97674 0.0812,0.97673 1.33215,-1.00828 c 0.73271,-0.55455 1.78155,-1.14291 2.33077,-1.30746 0.54922,-0.16455 1.84348,-0.29918 2.87618,-0.29918 2.47726,0 4.51876,0.76669 6.18061,2.32116 l 1.2672,1.18532 1.09569,-0.98988 c 0.60261,-0.54443 1.7648,-1.30362 2.58262,-1.68709 l 1.48696,-0.69722 h 3.57188 c 2.79595,0 3.90498,0.10927 5.10532,0.50304 3.25739,1.06858 5.72196,3.59383 6.85636,7.02516 l 0.57266,1.73221 0.10504,9.85573 0.10504,9.85573 h -3.71663 -3.7166 l -0.0759,-9.19427 -0.0759,-9.19427 -0.51009,-1.02787 c -0.30705,-0.61868 -0.98597,-1.32965 -1.70545,-1.78594 -0.93086,-0.59032 -1.50775,-0.75806 -2.60726,-0.75806 -1.47857,0 -3.00662,0.50021 -3.86998,1.26686 -0.28054,0.24911 -0.72877,0.92918 -0.99608,1.51126 l -0.48598,1.05833 -0.006,9.06198 -0.006,9.06198 h -3.69441 -3.6944 l -0.0759,-9.19427 -0.0759,-9.19427 -0.51009,-1.02787 c -0.30705,-0.61868 -0.98597,-1.32965 -1.70545,-1.78594 -0.95104,-0.60314 -1.49569,-0.75688 -2.66491,-0.75225 -1.57371,0.006 -3.28239,0.63563 -4.03916,1.48786 -0.2491,0.28053 -0.63605,0.94837 -0.85989,1.48407 l -0.40696,0.97401 v 9.00433 9.00433 h -3.70416 -3.70417 v -14.29496 z m 53.80222,13.76969 c -2.45533,-0.64365 -3.84548,-1.369 -5.38678,-2.81072 -1.3443,-1.25742 -2.49481,-3.45227 -2.79556,-5.33307 l -0.17918,-1.12052 h 3.67999 3.67995 l 0.29007,0.76847 c 0.15954,0.42266 0.78737,1.09757 1.39517,1.49979 l 1.10509,0.73131 2.03628,0.113 2.03629,0.113 0.92604,-0.62969 c 0.50932,-0.34633 0.96329,-0.88735 1.0088,-1.20226 0.11518,-0.79693 -0.36213,-1.58386 -1.2343,-2.03487 -0.40643,-0.21017 -2.38295,-0.75807 -4.3923,-1.21755 -2.00933,-0.45949 -4.16401,-1.05433 -4.78816,-1.32189 -2.23523,-0.95813 -4.2227,-3.36688 -4.73554,-5.73933 -0.31443,-1.45451 -0.20275,-3.73716 0.24942,-5.09853 0.61748,-1.85908 2.47764,-3.73799 4.75409,-4.80207 l 1.84221,-0.86109 2.92531,-0.11198 c 2.1363,-0.0818 3.37463,0.003 4.59116,0.3148 3.07679,0.78824 5.09601,2.41168 6.27737,5.04702 0.32917,0.73425 0.67908,1.84101 0.77764,2.45947 l 0.17915,1.12448 h -3.71298 -3.713 l -0.34515,-0.71425 c -0.52816,-1.09289 -1.92411,-1.77908 -3.54222,-1.74119 -1.68143,0.0394 -2.90309,0.62806 -3.12319,1.505 -0.21447,0.85448 0.26495,1.87729 1.04693,2.23358 0.34181,0.15574 2.43829,0.70662 4.65883,1.22419 2.22057,0.51756 4.5239,1.17654 5.11853,1.46439 1.45256,0.70317 2.67324,1.94137 3.50607,3.55634 l 0.68868,1.33548 0.11356,2.59011 0.11356,2.59011 -0.83418,1.69445 c -0.83039,1.68678 -1.93029,2.79437 -3.64685,3.67243 -2.44552,1.25091 -7.25713,1.57026 -10.5708,0.70159 z"
       id="path3060" />
  </g>
</svg>
