<?xml version="1.0" encoding="UTF-8" standalone="no"?>
<!-- Created with Inkscape (http://www.inkscape.org/) -->

<svg
   width="116.27048mm"
   height="34.395809mm"
   viewBox="0 0 116.27048 34.395809"
   version="1.1"
   id="svg5"
   inkscape:version="1.1 (c68e22c387, 2021-05-23)"
   sodipodi:docname="logo_medilink.svg"
   xmlns:inkscape="http://www.inkscape.org/namespaces/inkscape"
   xmlns:sodipodi="http://sodipodi.sourceforge.net/DTD/sodipodi-0.dtd"
   xmlns="http://www.w3.org/2000/svg"
   xmlns:svg="http://www.w3.org/2000/svg">
  <sodipodi:namedview
     id="namedview7"
     pagecolor="#ffffff"
     bordercolor="#666666"
     borderopacity="1.0"
     inkscape:pageshadow="2"
     inkscape:pageopacity="0.0"
     inkscape:pagecheckerboard="0"
     inkscape:document-units="mm"
     showgrid="false"
     fit-margin-top="0"
     fit-margin-left="0"
     fit-margin-right="0"
     fit-margin-bottom="0"
     inkscape:zoom="2.096401"
     inkscape:cx="215.3691"
     inkscape:cy="122.35255"
     inkscape:window-width="1920"
     inkscape:window-height="1017"
     inkscape:window-x="-8"
     inkscape:window-y="-8"
     inkscape:window-maximized="1"
     inkscape:current-layer="layer1" />
  <defs
     id="defs2" />
  <g
     inkscape:label="Capa 1"
     inkscape:groupmode="layer"
     id="layer1"
     transform="translate(-43.795079,-95.544591)">
    <path
       style="fill:#000000;stroke-width:0.264583"
       id="path1170"
       d="" />
    <path
       style="fill:#ffffff;stroke-width:0.264583;fill-opacity:1"
       d="m 87.45133,129.94038 c -0.495937,0 -0.529166,-0.17639 -0.529166,-2.80898 0,-2.74875 0.01225,-2.80578 0.571941,-2.65942 0.314569,0.0823 0.801622,0.0266 1.082339,-0.12359 0.358778,-0.19201 0.732312,-0.18123 1.257443,0.0363 0.410877,0.17019 0.889813,0.6541 1.0643,1.07536 0.17449,0.42125 0.242345,1.06437 0.150789,1.42916 -0.09155,0.36479 -0.474247,0.86491 -0.850427,1.1114 -0.553513,0.36267 -0.830252,0.39293 -1.451006,0.15862 -0.764985,-0.28875 -0.767046,-0.28675 -0.767046,0.74582 0,0.85896 -0.09015,1.03535 -0.529167,1.03535 z m 1.647548,-2.3893 c 0.105785,0.004 0.382137,-0.28162 0.614116,-0.63566 0.328097,-0.50074 0.356767,-0.7652 0.129082,-1.19063 -0.160983,-0.3008 -0.502819,-0.54691 -0.759637,-0.54691 -0.256818,0 -0.609817,0.14288 -0.784442,0.3175 -0.174625,0.17463 -0.3175,0.58543 -0.3175,0.9129 0,0.32746 0.208359,0.71675 0.463021,0.86507 0.254661,0.14833 0.549574,0.27331 0.65536,0.27773 z m -42.99143,0.74774 -1.783202,0.0782 v -2.8023 -2.80231 l 1.785937,0.0782 c 1.376341,0.0603 1.785938,0.16925 1.785938,0.47511 0,0.28576 -0.351871,0.41945 -1.256771,0.47751 -1.13467,0.0728 -1.256771,0.1435 -1.256771,0.72761 0,0.5784 0.112157,0.64696 1.058334,0.64696 0.764352,0 1.058333,0.11024 1.058333,0.39688 0,0.28663 -0.293981,0.39687 -1.058333,0.39687 -0.9525,0 -1.058334,0.0661 -1.058334,0.66146 0,0.61863 0.0869,0.66146 1.342317,0.66146 1.13564,0 1.328725,0.0713 1.254036,0.46302 -0.07182,0.37669 -0.420773,0.47761 -1.871484,0.54125 z m 3.902637,-0.0281 c -0.289555,0.0276 -0.675292,-0.0121 -0.857193,-0.0882 -0.23328,-0.0976 -0.330729,-0.91716 -0.330729,-2.78154 0,-2.37463 0.04704,-2.63419 0.463021,-2.55471 0.388588,0.0743 0.475374,0.4389 0.539866,2.26836 0.06164,1.74865 0.15708,2.17989 0.482422,2.17989 0.243491,0 0.370307,0.18504 0.317326,0.46302 -0.04854,0.25466 -0.325158,0.48559 -0.614713,0.51317 z m 4.415575,0.0654 c -0.389788,-0.009 -0.984245,-0.12728 -1.321016,-0.26235 -0.336771,-0.13506 -0.537944,-0.3659 -0.447052,-0.51297 0.09582,-0.15504 0.603237,-0.19735 1.207623,-0.10071 0.816165,0.13051 1.042364,0.0823 1.042364,-0.22213 0,-0.22437 -0.447586,-0.52291 -1.058333,-0.70589 -0.858432,-0.2572 -1.058333,-0.43887 -1.058333,-0.96183 0,-0.40092 0.257888,-0.81371 0.681963,-1.09157 0.516058,-0.33814 0.853981,-0.38635 1.389062,-0.19817 0.388905,0.13677 0.7071,0.4244 0.7071,0.63918 0,0.21478 -0.178594,0.34622 -0.396875,0.2921 -0.218281,-0.0541 -0.605235,-0.1573 -0.859896,-0.22929 -0.289829,-0.0819 -0.463021,0.0141 -0.463021,0.2567 0,0.21318 0.47625,0.57467 1.058333,0.80332 0.745575,0.29287 1.058334,0.57281 1.058334,0.94728 0,0.29236 -0.187098,0.71865 -0.415774,0.94733 -0.228676,0.22867 -0.734691,0.40822 -1.124479,0.399 z m 4.053795,0.0168 c -0.324553,0 -0.903809,-0.24677 -1.287236,-0.54837 -0.537729,-0.42298 -0.697139,-0.78159 -0.697139,-1.5683 0,-0.7867 0.15941,-1.14531 0.697139,-1.56829 0.383427,-0.30161 0.962683,-0.54837 1.287236,-0.54837 0.324552,0 0.903808,0.24676 1.287235,0.54837 0.537729,0.42298 0.69714,0.78159 0.69714,1.56829 0,0.78671 -0.159411,1.14532 -0.69714,1.5683 -0.383427,0.3016 -0.962683,0.54837 -1.287235,0.54837 z m 0.472045,-1.09856 c 0.320856,-0.17172 0.457878,-0.4918 0.403707,-0.94307 -0.0451,-0.37572 -0.274179,-0.80338 -0.50906,-0.95035 -0.234882,-0.14698 -0.621835,-0.19249 -0.859896,-0.10114 -0.266815,0.10239 -0.432838,0.46869 -0.432838,0.955 0,0.47174 0.183404,0.89155 0.456188,1.04421 0.294276,0.16468 0.62858,0.16303 0.941899,-0.005 z m 3.033684,1.04924 c -0.391839,0.0746 -0.463021,-0.11879 -0.463021,-1.25778 0,-0.74026 -0.148828,-1.59798 -0.330729,-1.90606 -0.264584,-0.44811 -0.264584,-0.5841 0,-0.67992 0.181901,-0.0659 0.330729,-0.34522 0.330729,-0.62079 0,-0.27556 0.28088,-0.68505 0.624177,-0.90999 0.343298,-0.22494 0.819548,-0.33401 1.058335,-0.24238 0.238784,0.0916 0.434155,0.33246 0.434155,0.53517 0,0.20271 -0.238125,0.36857 -0.529167,0.36857 -0.293981,0 -0.529167,0.17639 -0.529167,0.39688 0,0.21828 0.178594,0.39687 0.396875,0.39687 0.227203,0 0.396875,0.23833 0.396875,0.55747 0,0.37857 -0.123256,0.51018 -0.384066,0.4101 -0.302927,-0.11625 -0.400746,0.17068 -0.463021,1.35818 -0.06218,1.18564 -0.177345,1.52429 -0.541975,1.59368 z m 3.455117,-10e-4 c -0.491514,0.057 -0.793766,-0.0791 -0.989925,-0.44563 -0.155308,-0.29011 -0.28238,-0.98781 -0.28238,-1.55036 0,-0.56254 -0.147833,-1.17064 -0.328517,-1.35132 -0.239387,-0.23939 -0.24769,-0.37937 -0.03061,-0.51594 0.163849,-0.10308 0.342815,-0.42418 0.397701,-0.71355 0.05489,-0.28937 0.306784,-0.56599 0.559773,-0.61471 0.319281,-0.0615 0.459984,0.0817 0.459984,0.46828 0,0.30628 0.178593,0.62541 0.396875,0.70917 0.218281,0.0838 0.396875,0.31815 0.396875,0.52086 0,0.20271 -0.178594,0.36857 -0.396875,0.36857 -0.286631,0 -0.396875,0.29398 -0.396875,1.05833 0,0.89443 0.08496,1.05834 0.548566,1.05834 0.379507,0 0.521507,0.14269 0.460758,0.46302 -0.05228,0.2757 -0.374054,0.4962 -0.795353,0.54502 z m 3.270782,0.0504 c -0.134729,0 -0.366742,-0.14883 -0.515586,-0.33073 -0.148844,-0.1819 -0.571799,-1.07487 -0.939903,-1.98437 -0.624459,-1.54291 -0.636548,-1.65365 -0.180528,-1.65365 0.335505,0 0.631317,0.37331 0.943451,1.19063 0.250087,0.65484 0.557591,1.19062 0.683342,1.19062 0.125752,0 0.228638,-0.23037 0.228638,-0.51194 0,-0.28157 -0.116116,-0.81735 -0.258035,-1.19063 -0.223004,-0.58655 -0.187087,-0.67868 0.264583,-0.67868 0.314097,0 0.522618,0.17826 0.522618,0.44677 0,0.37176 0.09331,0.34661 0.555771,-0.14979 0.305673,-0.3281 0.615196,-0.53712 0.687829,-0.46449 0.07263,0.0726 -0.0069,0.55302 -0.176681,1.06754 -0.210097,0.6366 -0.224467,1.08606 -0.04497,1.40679 0.236832,0.42318 0.292677,0.39701 0.54695,-0.2563 0.155755,-0.40018 0.399304,-1.02526 0.541223,-1.38906 0.14192,-0.3638 0.439577,-0.66146 0.661459,-0.66146 0.221882,0 0.403423,0.10796 0.403423,0.23992 0,0.13196 -0.352208,1.02492 -0.782685,1.98437 -0.44096,0.98283 -0.949492,1.74446 -1.164741,1.74446 -0.210132,0 -0.519861,-0.38695 -0.688284,-0.8599 l -0.306226,-0.85989 -0.368343,0.85989 c -0.202588,0.47295 -0.478575,0.8599 -0.613301,0.8599 z m 5.569482,0 c -0.278056,0 -0.721493,-0.23861 -0.985417,-0.53024 -0.394491,-0.43591 -0.426924,-0.64643 -0.182295,-1.18333 0.16366,-0.35919 0.599003,-0.72874 0.96743,-0.82121 0.368424,-0.0925 0.848723,-0.0995 1.067329,-0.0156 0.23703,0.091 0.397468,0.003 0.397468,-0.21822 0,-0.2039 -0.233627,-0.44489 -0.519173,-0.53552 -0.285544,-0.0906 -0.749893,-0.0413 -1.031886,0.10962 -0.394049,0.21089 -0.54828,0.1817 -0.666398,-0.12611 -0.102632,-0.26745 0.07964,-0.4892 0.548682,-0.66753 0.386305,-0.14688 1.030648,-0.19494 1.431875,-0.10682 0.401225,0.0881 0.840444,0.3014 0.97604,0.47395 0.135596,0.17255 0.32059,1.05786 0.411102,1.96737 0.132567,1.33214 0.09122,1.65364 -0.212643,1.65364 -0.20746,0 -0.450985,-0.11938 -0.541166,-0.2653 -0.109603,-0.17734 -0.328311,-0.17734 -0.65968,0 -0.272643,0.14592 -0.723215,0.2653 -1.001268,0.2653 z m 0.559173,-0.84476 c 0.312206,-0.0447 0.607356,-0.28964 0.655894,-0.5443 0.06511,-0.3416 -0.0862,-0.46302 -0.576995,-0.46302 -0.365885,0 -0.738828,0.11906 -0.828765,0.26458 -0.08994,0.14552 -0.08573,0.39045 0.0093,0.5443 0.09508,0.15384 0.428313,0.24314 0.740516,0.19844 z m 3.28503,0.79572 c -0.407472,0.0773 -0.463021,-0.14915 -0.463021,-1.88763 0,-1.51189 0.09313,-2.0112 0.396875,-2.12776 0.243469,-0.0934 0.396875,2.6e-4 0.396875,0.24238 0,0.34719 0.07415,0.34608 0.616434,-0.009 0.339037,-0.22214 0.696225,-0.32411 0.79375,-0.22658 0.09752,0.0975 0.177316,0.30783 0.177316,0.46735 0,0.15952 -0.267891,0.40757 -0.595313,0.55121 -0.471114,0.20669 -0.622911,0.5367 -0.727604,1.5818 -0.09844,0.9827 -0.250772,1.3431 -0.595312,1.40846 z m 4.228581,0.049 c -0.440232,0 -1.013555,-0.26665 -1.396336,-0.64943 -0.394459,-0.39446 -0.649433,-0.95428 -0.649433,-1.4259 0,-0.42705 0.20836,-1.02742 0.463021,-1.33414 0.254661,-0.30673 0.845204,-0.63151 1.312317,-0.72173 0.71078,-0.13729 0.98048,-0.0328 1.653646,0.64031 0.442392,0.44239 0.80435,0.98616 0.80435,1.20838 0,0.30384 -0.361593,0.4237 -1.458252,0.48337 -0.802039,0.0436 -1.466077,0.19841 -1.475639,0.34393 -0.0096,0.14552 0.169987,0.38278 0.399002,0.52724 0.286864,0.18095 0.584155,0.15788 0.955683,-0.0741 0.34267,-0.214 0.692386,-0.25112 0.959197,-0.1018 0.363572,0.20346 0.336693,0.29328 -0.200372,0.66945 -0.341154,0.23895 -0.956387,0.43446 -1.367184,0.43446 z m -0.06139,-2.38125 c 0.509323,0 0.926042,-0.10448 0.926042,-0.23219 0,-0.1277 -0.170982,-0.37409 -0.379963,-0.54752 -0.282035,-0.23407 -0.520703,-0.24002 -0.926042,-0.0231 -0.300341,0.16075 -0.546079,0.40713 -0.546079,0.54754 0,0.1404 0.416719,0.25527 0.926042,0.25527 z m 10.558196,2.3772 c -0.304869,0.002 -0.770245,-0.23456 -1.034169,-0.52619 -0.389512,-0.43041 -0.425331,-0.64992 -0.190244,-1.16588 0.17449,-0.38297 0.609307,-0.70586 1.093857,-0.81228 0.442333,-0.0971 0.937654,-0.0942 1.100714,0.007 0.188087,0.11624 0.260636,0.002 0.198445,-0.31113 -0.0732,-0.36912 -0.33098,-0.49435 -1.017621,-0.49435 -0.505778,0 -0.979126,-0.11906 -1.051886,-0.26458 -0.07276,-0.14553 0.306073,-0.3729 0.841849,-0.50528 0.751607,-0.18571 1.120576,-0.14474 1.615165,0.17932 0.531018,0.34794 0.667012,0.70661 0.792458,2.09007 0.08329,0.91853 0.09519,1.72629 0.02646,1.79503 -0.06874,0.0688 -0.338585,-0.008 -0.599649,-0.17144 -0.2916,-0.18211 -0.618591,-0.20532 -0.847863,-0.0602 -0.205258,0.12993 -0.622639,0.23807 -0.927505,0.2403 z m 0.510421,-0.84071 c 0.312205,-0.0447 0.607356,-0.28964 0.655894,-0.5443 0.06511,-0.3416 -0.0862,-0.46302 -0.576996,-0.46302 -0.365884,0 -0.738827,0.11906 -0.828765,0.26458 -0.08994,0.14552 -0.08573,0.39045 0.0093,0.5443 0.09508,0.15384 0.428313,0.24314 0.740516,0.19844 z m 3.337348,0.84476 c -0.465018,0 -0.515339,-0.19417 -0.515339,-1.98858 v -1.98858 l 0.727604,0.0395 c 0.400182,0.0217 0.935963,-0.0487 1.190625,-0.1564 0.345728,-0.14626 0.463021,-0.0705 0.463021,0.29886 0,0.2721 -0.267891,0.61226 -0.595313,0.75591 -0.490794,0.21532 -0.609354,0.50506 -0.675285,1.65024 -0.06753,1.17287 -0.160177,1.38906 -0.595313,1.38906 z m 3.404656,-0.008 c -0.191474,-0.004 -0.556484,-0.12941 -0.811144,-0.27773 -0.25466,-0.14833 -0.46302,-0.55868 -0.46302,-0.9119 0,-0.39319 0.25667,-0.81039 0.66195,-1.07594 0.36857,-0.24149 0.954894,-0.37772 1.322914,-0.30737 0.36353,0.0695 0.66097,0.0384 0.66097,-0.0691 0,-0.10753 -0.18212,-0.34665 -0.40471,-0.53138 -0.30718,-0.25493 -0.55995,-0.26515 -1.04888,-0.0424 -0.446684,0.20351 -0.696794,0.20837 -0.815784,0.0159 -0.0944,-0.15272 -0.0652,-0.38412 0.065,-0.51423 0.13012,-0.13012 0.61191,-0.31164 1.070664,-0.40339 0.67369,-0.13474 0.96467,-0.0362 1.51309,0.51218 0.46756,0.46756 0.67899,0.96437 0.67899,1.59543 0,0.50403 0.0719,1.10375 0.15975,1.33271 0.0978,0.25484 -0.0152,0.4834 -0.29129,0.58936 -0.25075,0.0962 -0.54171,0.0264 -0.65526,-0.15738 -0.15393,-0.24906 -0.33858,-0.25855 -0.74965,-0.0386 -0.29998,0.16055 -0.70208,0.28829 -0.89355,0.28386 z m 0.28094,-0.78571 c 0.27322,0 0.64738,-0.18147 0.83146,-0.40327 0.18407,-0.2218 0.28795,-0.4486 0.23083,-0.50401 -0.0571,-0.0554 -0.28244,-0.12617 -0.50073,-0.15725 -0.21828,-0.0311 -0.5457,-0.0424 -0.7276,-0.0252 -0.1819,0.0173 -0.330734,0.26948 -0.330734,0.56052 0,0.34128 0.176394,0.52917 0.496774,0.52917 z m 6.11596,0.73898 c -0.36483,0.0426 -0.81131,-0.0705 -0.99219,-0.25136 -0.21496,-0.21495 -0.32887,-1.18119 -0.32887,-2.78949 0,-2.28424 0.0379,-2.46063 0.52916,-2.46063 0.4833,0 0.52952,0.17774 0.53322,2.05052 0.002,1.12779 0.10484,2.20952 0.22802,2.40385 0.12318,0.19433 0.32972,0.34316 0.45897,0.33073 0.12925,-0.0124 0.235,0.12623 0.235,0.30813 0,0.1819 -0.29849,0.36561 -0.66331,0.40825 z m 2.31696,0.0507 c -0.25466,0.002 -0.69231,-0.22524 -0.97255,-0.50548 -0.32574,-0.32574 -0.45585,-0.71481 -0.36071,-1.07863 0.0819,-0.31301 0.45532,-0.68564 0.82993,-0.82806 0.37461,-0.14243 0.95365,-0.19056 1.28675,-0.10695 0.3331,0.0836 0.60564,0.0453 0.60564,-0.0852 0,-0.13048 -0.17611,-0.38339 -0.39135,-0.56202 -0.29314,-0.24329 -0.59641,-0.25331 -1.20858,-0.0399 -0.71331,0.24866 -0.80621,0.22766 -0.73056,-0.16516 0.0477,-0.24753 0.42104,-0.56764 0.82972,-0.71137 0.55778,-0.19616 0.91997,-0.16209 1.45264,0.13663 0.61449,0.3446 0.73483,0.6255 0.89793,2.09598 0.10358,0.93393 0.12793,1.75844 0.0541,1.83227 -0.0738,0.0738 -0.34782,7.9e-4 -0.60889,-0.16221 -0.2916,-0.18211 -0.61859,-0.20532 -0.84786,-0.0602 -0.20526,0.12993 -0.58156,0.23807 -0.83622,0.2403 z m 0.29343,-0.7897 c 0.25335,0 0.60351,-0.14287 0.77813,-0.3175 0.17463,-0.17462 0.3175,-0.41275 0.3175,-0.52917 0,-0.11641 -0.35016,-0.21166 -0.77813,-0.21166 -0.42798,0 -0.85172,0.11906 -0.94166,0.26458 -0.0899,0.14552 -0.0899,0.38365 0,0.52917 0.0899,0.14552 0.37081,0.26458 0.62416,0.26458 z m 6.41244,0.77698 c -0.37763,-0.009 -0.95449,-0.12445 -1.28191,-0.25606 -0.32742,-0.13161 -0.59532,-0.36948 -0.59532,-0.52861 0,-0.19296 0.39655,-0.22985 1.19063,-0.11077 0.82393,0.12355 1.19063,0.0849 1.19063,-0.12548 0,-0.16722 -0.53579,-0.53369 -1.19063,-0.81439 -0.67261,-0.28832 -1.19063,-0.68713 -1.19063,-0.91664 0,-0.22346 0.23813,-0.6444 0.52917,-0.93545 0.29104,-0.29104 0.80407,-0.52916 1.14006,-0.52916 0.33599,0 0.83043,0.16053 1.09875,0.35673 0.26833,0.19621 0.40292,0.49419 0.2991,0.66218 -0.13777,0.22292 -0.33298,0.22826 -0.72256,0.0198 -0.29358,-0.15712 -0.70307,-0.22071 -0.90998,-0.14131 -0.20691,0.0794 -0.3762,0.24831 -0.3762,0.37537 0,0.12705 0.46906,0.37154 1.04235,0.5433 0.6461,0.19358 1.10779,0.51846 1.21448,0.85459 0.10901,0.34348 0.003,0.72936 -0.28961,1.0525 -0.25396,0.28062 -0.7707,0.50266 -1.14833,0.49344 z m 3.2221,0.0127 c -0.33534,0.002 -0.77094,-0.27331 -1.01099,-0.63967 -0.32035,-0.48892 -0.35416,-0.77006 -0.14059,-1.16912 0.15465,-0.28897 0.63646,-0.60343 1.07068,-0.6988 0.43422,-0.0954 0.91146,-0.098 1.06054,-0.006 0.14907,0.0921 0.27104,-0.0219 0.27104,-0.25329 0,-0.23143 -0.18619,-0.49224 -0.41375,-0.57956 -0.22756,-0.0873 -0.70381,-0.0266 -1.05834,0.13492 -0.56205,0.2561 -0.64458,0.22821 -0.64458,-0.21781 0,-0.37522 0.24704,-0.55785 0.92721,-0.68545 0.63634,-0.11938 1.12227,-0.0461 1.54902,0.23348 0.50897,0.3335 0.64929,0.71049 0.77324,2.07748 0.0833,0.91853 0.0952,1.72629 0.0265,1.79503 -0.0687,0.0688 -0.33859,-0.008 -0.59965,-0.17144 -0.2916,-0.18211 -0.61859,-0.20532 -0.84786,-0.0602 -0.20526,0.12993 -0.63835,0.23807 -0.96242,0.2403 z m 0.54533,-0.84072 c 0.31221,-0.0447 0.60736,-0.28964 0.6559,-0.5443 0.0651,-0.3416 -0.0862,-0.46302 -0.577,-0.46302 -0.36588,0 -0.73883,0.11907 -0.82876,0.26459 -0.0899,0.14552 -0.0857,0.39045 0.009,0.54429 0.0951,0.15385 0.42831,0.24314 0.74051,0.19844 z m 4.00993,0.76263 c -0.28955,0.0276 -0.67529,-0.0121 -0.85719,-0.0882 -0.23305,-0.0975 -0.33073,-0.91328 -0.33073,-2.76213 0,-2.43003 0.0383,-2.62378 0.51887,-2.62378 0.47007,0 0.52605,0.21769 0.59531,2.3151 0.058,1.75596 0.16133,2.29746 0.42791,2.24205 0.21114,-0.0439 0.31569,0.11455 0.26188,0.39687 -0.0493,0.25847 -0.32649,0.4925 -0.61605,0.52009 z m 2.42025,0.0821 c -0.21745,0 -0.58247,-0.1871 -0.81114,-0.41577 -0.28447,-0.28447 -0.41578,-0.91115 -0.41578,-1.98438 0,-1.39221 0.0595,-1.5686 0.52917,-1.5686 0.46433,0 0.52917,0.17639 0.52917,1.43959 0,0.79178 0.1166,1.51166 0.25911,1.59974 0.14251,0.0881 0.4997,0.0314 0.79375,-0.12599 0.42625,-0.22812 0.53464,-0.55244 0.53464,-1.59973 0,-1.10568 0.0781,-1.31361 0.49361,-1.31361 0.42349,0 0.51352,0.27251 0.63372,1.91823 0.0771,1.05503 0.0876,1.97325 0.0235,2.04051 -0.0641,0.0673 -0.35204,-0.0248 -0.63981,-0.20449 -0.37128,-0.23187 -0.67009,-0.24817 -1.02891,-0.0561 -0.27813,0.14885 -0.6836,0.27063 -0.90105,0.27063 z m 4.99616,0 c -0.23446,0 -0.71854,-0.29224 -1.07573,-0.64943 -0.40937,-0.40937 -0.64943,-0.95173 -0.64943,-1.46724 0,-0.52436 0.2427,-1.0605 0.67638,-1.49419 0.39112,-0.39111 0.86538,-0.62188 1.12448,-0.54715 0.24646,0.0711 0.65646,0.215 0.91112,0.31984 0.39163,0.16123 0.46302,0.0405 0.46302,-0.78313 0,-0.78476 0.0899,-0.95654 0.46302,-0.8851 0.39898,0.0764 0.47345,0.46333 0.53842,2.79752 0.062,2.22603 0.007,2.70888 -0.30868,2.70888 -0.21124,0 -0.42946,-0.13614 -0.48492,-0.30252 -0.0757,-0.22698 -0.242,-0.22698 -0.66612,0 -0.31089,0.16638 -0.7571,0.30252 -0.99156,0.30252 z m 0.35983,-0.79375 c 0.10732,0 0.40778,-0.1555 0.66769,-0.34555 0.28406,-0.20771 0.43616,-0.59272 0.3813,-0.96517 -0.0502,-0.34078 -0.29963,-0.75022 -0.55429,-0.90986 -0.33598,-0.21061 -0.59007,-0.21061 -0.92605,0 -0.25466,0.15964 -0.49912,0.53114 -0.54324,0.82556 -0.0441,0.29442 0.11321,0.72875 0.34963,0.96517 0.23642,0.23642 0.51765,0.42985 0.62496,0.42985 z m 16.52076,-5.83453 c -0.26499,-0.008 -2.47648,-1.9423 -4.91444,-4.29948 -2.43795,-2.35718 -4.43225,-4.37508 -4.43177,-4.48422 5.3e-4,-0.10914 1.24644,-0.19844 2.7688,-0.19844 h 2.76793 l 0.29259,-1.12448 c 0.16093,-0.61846 0.41147,-1.58298 0.55676,-2.14337 0.14529,-0.56039 0.31618,-0.96687 0.37976,-0.90329 0.0636,0.0636 0.4784,1.41505 0.92182,3.00327 0.44341,1.58821 1.0456,3.69855 1.33819,4.68964 0.49548,1.67831 0.57953,1.79633 1.22481,1.71979 0.64073,-0.076 0.76515,-0.32094 1.65454,-3.25718 0.52894,-1.74625 1.02717,-3.3536 1.10718,-3.57188 0.10047,-0.27412 0.29454,-0.09 0.62744,0.59532 l 0.48198,0.99218 h 2.3543 c 1.29486,0 2.3146,0.0999 2.26609,0.22202 -0.0485,0.12211 -2.07404,2.14618 -4.50119,4.49792 -2.52265,2.44427 -4.61938,4.27003 -4.89479,4.2622 z m -76.284919,-2.68473 c -0.800365,-8e-4 -1.812396,-0.0934 -2.248959,-0.20563 -0.436562,-0.11224 -1.098772,-0.32671 -1.471581,-0.47661 -0.372805,-0.14991 -1.050919,-0.69748 -1.506921,-1.21684 -0.455999,-0.51935 -0.953984,-1.39402 -1.10663,-1.9437 -0.152649,-0.54968 -0.278207,-1.84141 -0.279017,-2.87051 -7.93e-4,-1.03726 0.19017,-2.43355 0.428567,-3.13321 0.236525,-0.69416 0.832742,-1.6648 1.32493,-2.15699 0.575385,-0.57538 1.430259,-1.05052 2.39439,-1.33081 0.988049,-0.28723 1.984311,-0.38588 2.920881,-0.28921 0.8188,0.0845 1.910067,0.43309 2.574112,0.82224 0.778534,0.45625 1.332762,1.04744 1.707314,1.82116 0.415547,0.8584 0.55458,1.65531 0.55458,3.17874 v 2.03313 H 72.37008 68.136746 v 0.68181 c 0,0.40759 0.325247,1.00706 0.80867,1.49048 l 0.808668,0.80867 2.432478,-0.15038 c 1.337861,-0.0827 2.707132,-0.2333 3.042822,-0.33464 0.590842,-0.17838 0.607751,-0.13877 0.529167,1.23958 l -0.08118,1.42386 -1.455209,0.30521 c -0.800364,0.16787 -2.110052,0.30451 -2.910416,0.30365 z m -0.661459,-8.67866 c 2.40324,0 2.513542,-0.0252 2.513542,-0.57448 0,-0.31596 -0.197046,-0.79221 -0.437883,-1.05833 -0.321048,-0.35475 -0.818422,-0.48385 -1.864109,-0.48385 -1.161489,0 -1.546778,0.12055 -2.075658,0.64943 -0.357188,0.35719 -0.649434,0.83344 -0.649434,1.05833 0,0.34012 0.422815,0.4089 2.513542,0.4089 z m 12.038542,8.45505 c -0.851601,0 -1.894194,-0.20158 -2.513542,-0.48599 -0.582083,-0.26729 -1.262152,-0.71552 -1.511263,-0.99606 -0.249113,-0.28054 -0.651113,-0.98196 -0.893339,-1.55872 -0.296349,-0.70564 -0.444145,-1.82756 -0.451837,-3.4299 -0.0063,-1.30969 0.128231,-2.87172 0.298924,-3.47119 0.170693,-0.59947 0.559327,-1.40646 0.863632,-1.79332 0.304302,-0.38686 1.045345,-0.95441 1.646759,-1.26123 0.758467,-0.38694 1.622205,-0.56491 2.819259,-0.58089 0.94918,-0.0127 2.053204,0.0654 2.453386,0.1734 l 0.727605,0.19644 v -3.45725 -3.457249 l 1.653645,0.0788 1.653646,0.0788 0.06937,9.855729 0.06937,9.85573 h -1.31299 c -0.905742,0 -1.38354,-0.12607 -1.540449,-0.40645 -0.200832,-0.35887 -0.364969,-0.34406 -1.402209,0.12648 -0.721236,0.32719 -1.736538,0.53293 -2.629959,0.53293 z m 0.446381,-2.8988 c 0.636964,0 1.571009,-0.17251 2.075659,-0.38337 l 0.917544,-0.38337 v -3.29491 -3.29491 l -0.833232,-0.29047 C 84.836907,108.11071 84.068605,107.98 83.587843,107.98 c -0.480761,0 -1.16424,0.1322 -1.518843,0.29376 -0.3546,0.16157 -0.7854,0.6025 -0.957326,0.97984 -0.171929,0.37734 -0.379452,1.25056 -0.461163,1.94049 -0.08171,0.68993 -0.0048,1.82659 0.170997,2.5259 0.175763,0.69931 0.507672,1.47983 0.737579,1.73449 0.276963,0.30679 0.808792,0.46302 1.576128,0.46302 z m -21.087502,2.51355 c -0.895387,0 -1.677586,-0.0496 -1.73822,-0.11025 -0.06063,-0.0606 -0.110243,-2.28455 -0.110243,-4.94204 0,-4.03976 -0.06815,-4.89995 -0.415774,-5.24757 -0.228675,-0.22867 -0.794222,-0.41381 -1.256771,-0.41142 -0.462548,0.002 -1.300426,0.27029 -1.86195,0.59532 l -1.020953,0.59096 0.03949,4.69635 0.03949,4.69635 h -1.730519 -1.730517 v -4.7625 c 0,-4.40972 -0.0392,-4.80169 -0.529167,-5.29166 -0.291041,-0.29104 -0.861126,-0.52917 -1.266854,-0.52917 -0.405728,0 -1.268931,0.26789 -1.918229,0.59531 l -1.180542,0.59532 -0.07225,4.69635 -0.07225,4.69635 h -1.713688 -1.713687 v -6.48229 -6.48229 h 1.442061 c 1.046506,0 1.507015,0.11607 1.67886,0.42313 0.212304,0.37937 0.354844,0.36292 1.378052,-0.15909 0.941856,-0.48049 1.478284,-0.5652 3.070218,-0.48481 1.420849,0.0718 2.119858,0.23993 2.653661,0.63847 l 0.724698,0.54107 1.471538,-0.6054 c 0.94611,-0.38923 2.024093,-0.60764 3.019051,-0.61167 0.851133,-0.003 1.927927,0.17423 2.392875,0.39487 0.464949,0.22063 1.078255,0.78618 1.362904,1.25677 0.460338,0.76105 0.526889,1.45512 0.602115,6.27958 l 0.08457,5.42396 z m 31.356746,-0.1323 h -1.719791 v -6.48229 -6.48229 h 1.719791 1.719792 v 6.48229 6.48229 z m 5.490097,-0.0535 -1.653638,0.0788 v -9.9345 -9.934499 h 1.587498 1.587504 v 9.657299 c 0,5.31151 0.0298,9.74658 0.0661,9.85572 0.0364,0.10915 -0.677994,0.23389 -1.587504,0.27721 z m 5.556254,0 -1.65364,0.0788 v -6.6272 -6.62721 h 1.72441 1.72442 l -0.0708,6.54843 -0.0708,6.54844 z m 5.09323,0.0535 h -1.71979 v -6.61458 -6.61458 h 1.47998 c 1.2402,0 1.50164,0.0828 1.61368,0.51127 0.13068,0.49971 0.15819,0.49851 1.21609,-0.0529 0.59687,-0.31111 1.76533,-0.61358 2.60492,-0.67431 1.18039,-0.0854 1.78787,0.0183 2.70329,0.46147 0.81129,0.39274 1.33335,0.87841 1.66838,1.55209 0.41348,0.83141 0.5007,1.77503 0.57363,6.20601 l 0.086,5.22552 h -1.73965 -1.73965 v -4.77989 c 0,-2.6539 -0.1167,-4.99796 -0.26238,-5.27016 -0.14432,-0.26965 -0.61948,-0.5687 -1.05594,-0.66456 -0.56787,-0.12473 -1.20807,0.0155 -2.25115,0.49302 l -1.45762,0.66732 v 4.77714 4.77713 z m 13.48585,0 H 121.318 V 107.75228 97.205811 l 1.55839,-0.83061 c 0.85712,-0.45684 1.63102,-0.83061 1.71979,-0.83061 0.0888,0 0.16463,3.30398 0.16856,7.342179 l 0.007,7.34219 0.85273,-0.92978 c 0.46901,-0.51138 1.52418,-1.67798 2.34483,-2.59244 l 1.4921,-1.66266 1.75263,0.0789 1.75263,0.0789 -2.51542,2.88535 c -1.5797,1.81203 -2.43303,2.99311 -2.29393,3.175 0.12183,0.15931 1.37122,1.73227 2.77643,3.49546 1.4052,1.7632 2.55492,3.28669 2.55492,3.38553 0,0.0988 -0.80202,0.14451 -1.78226,0.10148 l -1.78226,-0.0782 -2.51722,-3.22433 -2.51722,-3.22434 -0.074,3.29048 -0.074,3.29048 z m 25.5402,-4.50035 c -0.0728,-7e-5 -0.71809,-2.05337 -1.43407,-4.56291 -0.71597,-2.50953 -1.41993,-4.71735 -1.56434,-4.90628 -0.14442,-0.18892 -0.50505,-0.30798 -0.8014,-0.26458 -0.45298,0.0663 -0.66741,0.58469 -1.34606,3.25392 -0.44399,1.74625 -0.90358,3.32382 -1.02131,3.50572 -0.14839,0.22928 -1.04891,0.33073 -2.93556,0.33073 -2.28449,0 -2.7907,-0.0765 -3.15242,-0.47615 -0.237,-0.26189 -0.61264,-0.99123 -0.83475,-1.62077 -0.22212,-0.62953 -0.40318,-1.69518 -0.40237,-2.36811 8e-4,-0.67293 0.13176,-1.69976 0.291,-2.28184 0.18585,-0.67934 0.7376,-1.49306 1.54073,-2.27229 0.86514,-0.83939 1.62787,-1.3088 2.47199,-1.52135 0.67144,-0.16907 1.66028,-0.3074 2.19742,-0.3074 0.53714,0 1.42215,0.13348 1.96669,0.29663 0.54454,0.16315 1.67333,0.80769 2.50843,1.43232 l 1.51837,1.13569 1.58121,-1.16401 c 0.86966,-0.64021 2.0764,-1.298 2.68163,-1.46175 0.60524,-0.16375 1.76389,-0.23816 2.57479,-0.16536 0.8109,0.0728 1.95678,0.37847 2.54641,0.67927 0.58962,0.30081 1.37444,0.9063 1.74404,1.34555 0.36961,0.43925 0.82599,1.24814 1.01419,1.79754 0.1882,0.5494 0.34601,1.71328 0.35069,2.58641 0.006,1.17333 -0.16334,1.93264 -0.65017,2.91042 l -0.65869,1.32291 -2.5615,0.0755 -2.5615,0.0755 -0.96568,-1.7268 c -0.53113,-0.94974 -1.06435,-1.78778 -1.18494,-1.8623 -0.12058,-0.0745 -0.39434,-0.0683 -0.60835,0.0138 -0.22593,0.0867 -0.76299,1.41806 -1.28065,3.17471 -0.49035,1.66396 -0.95107,3.02533 -1.02383,3.02526 z M 93.431241,103.2175 c -0.362302,0 -0.956911,-0.26789 -1.321351,-0.59531 -0.36444,-0.32742 -0.682842,-0.77391 -0.707559,-0.99219 -0.02471,-0.21828 -0.03084,-0.60059 -0.0136,-0.84959 0.01725,-0.24899 0.291923,-0.69547 0.610405,-0.992179 0.318487,-0.29671 0.897741,-0.53948 1.28724,-0.53948 0.389498,0 1.021892,0.24677 1.405318,0.54837 0.473827,0.372709 0.69714,0.800339 0.69714,1.334949 0,0.48235 -0.251182,1.03775 -0.649433,1.436 -0.357187,0.35719 -0.945859,0.64943 -1.30816,0.64943 z m 10.976619,-0.26458 c -0.38456,0 -0.95021,-0.17582 -1.257,-0.3907 -0.3068,-0.21489 -0.63638,-0.70375 -0.73241,-1.08635 -0.11248,-0.44817 -0.0242,-0.9252 0.24819,-1.3409 0.23253,-0.354889 0.70976,-0.754359 1.06051,-0.887709 0.40568,-0.15424 0.93216,-0.13982 1.44695,0.0396 0.44508,0.15515 0.92579,0.49987 1.06824,0.766039 0.14245,0.26617 0.25899,0.78078 0.25899,1.14359 0,0.39749 -0.27705,0.87758 -0.69714,1.20802 -0.38342,0.3016 -1.01177,0.54837 -1.39633,0.54837 z"
       id="path3770" />
  </g>
</svg>
