<?xml version="1.0" encoding="utf-8"?>
<!-- Generator: Adobe Illustrator 23.1.1, SVG Export Plug-In . SVG Version: 6.00 Build 0)  -->
<svg version="1.1" id="Capa_1" xmlns="http://www.w3.org/2000/svg" xmlns:xlink="http://www.w3.org/1999/xlink" x="0px" y="0px"
	 viewBox="0 0 254.79 61.94" style="enable-background:new 0 0 254.79 61.94;" xml:space="preserve">
<style type="text/css">
	.st0{fill:#80BC00;}
	.st1{fill:#FF8300;}
	.st2{fill:#8F9093;}
</style>
<g>
	<g>
		<g>
			<g id="XMLID_1190_">
				<g id="XMLID_1191_">
					<g id="XMLID_1215_">
						<g id="XMLID_1227_">
							<g id="XMLID_1228_">
								<path class="st0" d="M23.27,21.83c-3.86-2.39-7.67-3.13-9.46-3.13c-1.17,0-3.19,0.25-3.19,2.21
									c0,3.13,14.06,3.26,14.06,12.72c0,5.89-4.18,9.21-11.55,9.21c-4.55,0-8.91-1.41-10.13-2.09v-6.26
									c2.89,1.23,5.77,2.39,9.15,2.39c2.64,0,4.3-0.8,4.3-2.09C16.46,30.67,2.4,31.41,2.4,22.13c0-5.23,4.73-8.72,11.72-8.72
									c3.57,0,6.21,0.62,9.16,2.09v6.33H23.27z"/>
							</g>
						</g>
						<g id="XMLID_1223_">
							<g id="XMLID_1224_">
								<path class="st0" d="M57.73,40.25c-2.46,1.47-5.95,2.58-8.35,2.58c-2.94,0-4.36-0.92-4.97-3.19
									c-3.44,2.33-6.26,3.19-9.34,3.19c-4.53,0-7.92-3.38-7.92-6.94c0-6.75,4.98-8.11,16.82-11.79c0.18-2.64-1.04-4.73-4.91-4.73
									c-3.55,0-7.61,1.85-10.43,4.73v-7.25c3.68-2.27,7.8-3.44,12.28-3.44c7.12,0,11.97,2.4,11.97,8.59v12.9
									c0,1.42,0.55,1.97,1.47,1.97c0.62,0,1.29-0.12,3.38-1.59L57.73,40.25C57.73,40.25,57.73,40.25,57.73,40.25z M43.98,28.58
									c-5.27,1.9-7.79,3.13-7.79,5.95c0,1.67,1.29,3.01,2.88,3.01c1.66,0,3.44-0.8,4.91-2.14V28.58z"/>
							</g>
						</g>
						<g id="XMLID_1220_">
							<g id="XMLID_1221_">
								<path class="st0" d="M69.09,18.02c2.82-3.25,5.58-4.6,9.21-4.6c4.42,0,10.31,2.52,10.31,10.87v18h-8.9V25.02
									c0-3.99-1.9-5.65-4.43-5.65c-2.21,0-3.87,1.17-6.2,4.66v18.24h-8.9v-28.3h8.91V18.02L69.09,18.02z"/>
							</g>
						</g>
						<g id="XMLID_1216_">
							<g id="XMLID_1217_">
								<path class="st0" d="M122.89,40.73c-2.46,1.47-7.21,2.1-9.6,2.1c-2.94,0-4.36-0.92-4.98-3.19
									c-3.43,2.33-6.27,3.19-9.33,3.19c-4.55,0-7.92-3.38-7.92-6.94c0-6.75,4.98-8.11,16.83-11.79c0.18-2.64-1.04-4.73-4.91-4.73
									c-3.56,0-7.61,1.85-10.44,4.73v-7.25c3.68-2.27,7.8-3.44,12.28-3.44c7.12,0,11.98,2.4,11.98,8.59v12.9
									c0,1.42,0.55,1.97,1.47,1.97c0.62,0,2.53-1.06,4.62-2.53L122.89,40.73z M107.9,28.58c-5.28,1.9-7.8,3.13-7.8,5.95
									c0,1.67,1.29,3.01,2.89,3.01c1.66,0,3.44-0.8,4.91-2.14C107.9,35.4,107.9,28.58,107.9,28.58z"/>
							</g>
						</g>
					</g>
					<g id="XMLID_1192_">
						<g id="XMLID_1211_">
							<g id="XMLID_1212_">
								<g id="XMLID_1213_">
									<path class="st1" d="M143.38,21.83c-3.87-2.39-7.67-3.13-9.46-3.13c-1.17,0-3.19,0.25-3.19,2.21
										c0,3.13,14.06,3.26,14.06,12.72c0,5.89-4.18,9.21-11.55,9.21c-4.53,0-9.12-1.42-10.36-2.1l-0.01-6.4
										c2.89,1.23,6.01,2.53,9.38,2.53c2.64,0,4.3-0.8,4.3-2.09c0-4.11-14.06-3.38-14.06-12.65c0-5.23,4.73-8.72,11.73-8.72
										c3.56,0,6.2,0.62,9.15,2.09v6.33C143.37,21.83,143.38,21.83,143.38,21.83z"/>
								</g>
							</g>
						</g>
						<g id="XMLID_1206_">
							<g id="XMLID_1207_">
								<g id="XMLID_1208_">
									<path class="st1" d="M177.64,40.25c-2.46,1.47-5.95,2.58-8.35,2.58c-2.94,0-4.36-0.92-4.97-3.19
										c-3.44,2.33-6.27,3.19-9.34,3.19c-4.53,0-7.92-3.38-7.92-6.94c0-6.75,4.97-8.11,16.83-11.79c0.18-2.64-1.05-4.73-4.91-4.73
										c-3.57,0-7.61,1.85-10.44,4.73v-7.25c3.68-2.27,7.8-3.44,12.28-3.44c7.12,0,11.98,2.4,11.98,8.59v12.9
										c0,1.42,0.55,1.97,1.47,1.97c0.62,0,1.29-0.12,3.38-1.59L177.64,40.25L177.64,40.25z M163.89,28.58
										c-5.28,1.9-7.8,3.13-7.8,5.95c0,1.67,1.29,3.01,2.89,3.01c1.66,0,3.43-0.8,4.91-2.14V28.58L163.89,28.58z"/>
								</g>
							</g>
						</g>
						<g id="XMLID_1202_">
							<g id="XMLID_1203_">
								<g id="XMLID_1204_">
									<path class="st1" d="M188.99,42.27h-8.9V0.4h8.9V42.27z"/>
								</g>
							</g>
						</g>
						<g id="XMLID_1198_">
							<g id="XMLID_1199_">
								<g id="XMLID_1200_">
									<path class="st1" d="M211.02,38.23c-2.82,3.26-5.58,4.6-9.16,4.6c-5.57,0-10.37-3.43-10.37-10.74V13.97h8.9v17.5
										c0,3.98,2.14,5.4,4.48,5.4c2.71,0,5.16-2.09,6.08-4.85V13.97h8.97v28.31h-8.91v-4.05H211.02z"/>
								</g>
							</g>
						</g>
						<g id="XMLID_1193_">
							<g id="XMLID_1194_">
								<g id="XMLID_1195_">
									<path class="st1" d="M252.4,42.27h-8.9V40c-2.52,2.02-4.85,2.82-7.87,2.82c-7.62,0-13.26-6.27-13.26-14.74
										c0-8.66,5.64-14.68,13.76-14.68c2.58,0,4.97,0.62,7.36,1.79V0.4h8.91L252.4,42.27L252.4,42.27z M243.5,21.03
										c-1.29-0.92-3.38-1.66-4.97-1.66c-4.48,0-7.12,3.26-7.12,8.91c0,5.16,2.64,8.59,6.81,8.59c1.9,0,3.45-0.67,5.28-2.34V21.03
										z"/>
								</g>
							</g>
						</g>
					</g>
				</g>
			</g>
		</g>
	</g>
	<g>
		<path class="st2" d="M7.51,53.5H7.35c0.26,0.26,0.53,0.6,0.8,1.01c0.27,0.41,0.52,0.83,0.74,1.27C9.11,56.2,9.3,56.65,9.5,57.1
			c0.18,0.45,0.32,0.8,0.41,1.07l-1.13,0.38c-0.16-0.42-0.34-0.81-0.5-1.17c-0.16-0.36-0.34-0.74-0.52-1.1
			C7.59,55.9,7.4,55.54,7.21,55.2c-0.19-0.35-0.4-0.67-0.62-0.97c-0.22-0.3-0.41-0.5-0.58-0.58c-0.16-0.09-0.38-0.13-0.64-0.13
			l-1.03,4.84h-1.3L5.32,47.6h2.35c1.18,0,2.03,0.19,2.56,0.6c0.53,0.4,0.8,1.04,0.8,1.92c0,1-0.35,1.81-1.04,2.45
			C9.32,53.18,8.49,53.5,7.51,53.5z M7.64,48.66H6.4L5.56,52.7H6.7c0.49,0,0.9-0.04,1.21-0.12c0.31-0.08,0.61-0.23,0.87-0.44
			c0.26-0.22,0.48-0.48,0.65-0.79s0.26-0.66,0.26-1.02c0-0.58-0.16-1.01-0.49-1.28C8.88,48.79,8.35,48.66,7.64,48.66z"/>
		<path class="st2" d="M18.26,53.94c-0.64,0.58-1.76,0.89-3.37,0.89h-0.97c-0.08,0.34-0.11,0.66-0.11,0.98
			c0,0.53,0.14,0.94,0.43,1.23s0.66,0.43,1.11,0.43c0.5,0,0.91-0.06,1.23-0.18c0.32-0.13,0.67-0.36,1.05-0.69l0.52,0.76
			c-0.41,0.41-0.84,0.7-1.32,0.89c-0.47,0.18-1.08,0.27-1.85,0.27c-0.75,0-1.35-0.25-1.83-0.75s-0.73-1.19-0.73-2.07
			c0-0.79,0.15-1.58,0.44-2.35c0.29-0.77,0.77-1.47,1.44-2.09s1.47-0.93,2.41-0.93c0.74,0,1.29,0.18,1.67,0.54s0.57,0.84,0.57,1.47
			c0,0.34-0.06,0.63-0.18,0.9C18.69,53.49,18.5,53.72,18.26,53.94z M16.55,51.29c-0.51,0-1,0.24-1.45,0.71
			c-0.45,0.48-0.78,1.11-0.98,1.9l0.8,0.02c0.69,0,1.21-0.04,1.57-0.14s0.62-0.23,0.78-0.39s0.29-0.34,0.36-0.49
			c0.08-0.16,0.11-0.34,0.11-0.53c0-0.32-0.1-0.58-0.28-0.78C17.28,51.39,16.98,51.29,16.55,51.29z"/>
		<path class="st2" d="M26.9,55.81c-0.1,0.47-0.14,0.82-0.14,1.06c0,0.35,0.13,0.68,0.39,1.01l-1.05,0.78
			c-0.21-0.21-0.36-0.43-0.44-0.68c-0.09-0.25-0.13-0.57-0.13-1c-0.74,0.97-1.66,1.46-2.74,1.46c-0.74,0-1.28-0.23-1.63-0.66
			c-0.36-0.44-0.54-1.09-0.54-1.95c0-0.79,0.15-1.57,0.45-2.34c0.3-0.76,0.68-1.37,1.14-1.84c0.45-0.47,0.93-0.79,1.43-0.98
			s0.97-0.29,1.42-0.29c0.44,0,0.79,0.02,1.03,0.06s0.47,0.12,0.69,0.23l0.81-3.79l1.19,0.22L26.9,55.81z M25.02,51.42
			c-0.31,0-0.65,0.09-1,0.24c-0.35,0.16-0.67,0.4-0.96,0.7c-0.29,0.3-0.55,0.82-0.8,1.56s-0.36,1.39-0.36,1.98
			c0,1.01,0.38,1.52,1.15,1.52c0.49,0,0.97-0.15,1.43-0.45c0.47-0.3,0.88-0.77,1.24-1.41l0.8-3.82c-0.23-0.11-0.45-0.19-0.67-0.24
			C25.62,51.44,25.35,51.42,25.02,51.42z"/>
		<path class="st2" d="M43.62,58.33h-1.28l1.05-7.88c0.04-0.31,0.09-0.63,0.14-0.94c0.05-0.31,0.11-0.61,0.17-0.89
			c-0.24,0.58-0.5,1.15-0.78,1.69l-4.02,8.02h-1.09l-0.5-7.63c0-0.27-0.02-0.63-0.04-1.06c-0.03-0.44-0.04-0.78-0.04-1.04
			l-0.56,2.09l-2.21,7.64l-1.26-0.01l3.23-10.76h1.88l0.49,7.03c0,0.3,0,0.61,0,0.92c0,0.31,0,0.63,0,0.95
			c0.21-0.51,0.37-0.89,0.48-1.13s0.21-0.44,0.29-0.63l3.54-7.15H45L43.62,58.33z"/>
		<path class="st2" d="M52.38,53.94c-0.64,0.58-1.76,0.89-3.37,0.89h-0.97c-0.08,0.34-0.11,0.66-0.11,0.98
			c0,0.53,0.14,0.94,0.43,1.23s0.66,0.43,1.11,0.43c0.5,0,0.91-0.06,1.23-0.18c0.32-0.13,0.67-0.36,1.05-0.69l0.52,0.76
			c-0.41,0.41-0.84,0.7-1.32,0.89c-0.47,0.18-1.08,0.27-1.85,0.27c-0.75,0-1.35-0.25-1.83-0.75s-0.73-1.19-0.73-2.07
			c0-0.79,0.15-1.58,0.44-2.35c0.29-0.77,0.77-1.47,1.44-2.09s1.47-0.93,2.41-0.93c0.74,0,1.29,0.18,1.67,0.54
			c0.38,0.36,0.57,0.84,0.57,1.47c0,0.34-0.06,0.63-0.18,0.9C52.8,53.49,52.61,53.72,52.38,53.94z M50.67,51.29
			c-0.51,0-1,0.24-1.45,0.71c-0.45,0.48-0.78,1.11-0.98,1.9l0.8,0.02c0.69,0,1.21-0.04,1.57-0.14s0.62-0.23,0.78-0.39
			s0.29-0.34,0.36-0.49c0.08-0.16,0.11-0.34,0.11-0.53c0-0.32-0.1-0.58-0.28-0.78C51.38,51.39,51.09,51.29,50.67,51.29z
			 M50.48,49.49l-0.41-0.74l3.26-2.05L54,47.92L50.48,49.49z"/>
		<path class="st2" d="M61.11,55.81c-0.1,0.47-0.14,0.82-0.14,1.06c0,0.35,0.13,0.68,0.39,1.01l-1.05,0.78
			c-0.21-0.21-0.36-0.43-0.44-0.68c-0.09-0.25-0.13-0.57-0.13-1C59,57.96,58.08,58.44,57,58.44c-0.74,0-1.28-0.23-1.63-0.66
			c-0.36-0.44-0.54-1.09-0.54-1.95c0-0.79,0.15-1.57,0.45-2.34c0.3-0.76,0.68-1.37,1.14-1.84c0.45-0.47,0.93-0.79,1.43-0.98
			s0.97-0.29,1.42-0.29c0.44,0,0.79,0.02,1.03,0.06c0.24,0.04,0.47,0.12,0.69,0.23l0.81-3.79l1.19,0.22L61.11,55.81z M59.24,51.42
			c-0.31,0-0.65,0.09-1,0.24c-0.35,0.16-0.67,0.4-0.96,0.7s-0.55,0.82-0.8,1.56c-0.24,0.73-0.36,1.39-0.36,1.98
			c0,1.01,0.38,1.52,1.15,1.52c0.49,0,0.97-0.15,1.43-0.45c0.47-0.3,0.88-0.77,1.24-1.41l0.8-3.82c-0.23-0.11-0.45-0.19-0.67-0.24
			C59.84,51.44,59.57,51.42,59.24,51.42z"/>
		<path class="st2" d="M65.03,58.33h-1.3l1.67-7.77l1.33-0.21L65.03,58.33z M66.56,49.08c-0.27,0-0.5-0.09-0.68-0.27
			s-0.27-0.4-0.27-0.66c0-0.27,0.09-0.5,0.27-0.69s0.41-0.28,0.69-0.28c0.27,0,0.5,0.09,0.68,0.27s0.27,0.41,0.27,0.68
			s-0.09,0.5-0.27,0.68C67.06,48.99,66.83,49.08,66.56,49.08z"/>
		<path class="st2" d="M73.83,51.95c-0.23-0.19-0.48-0.34-0.74-0.42c-0.26-0.09-0.54-0.13-0.84-0.13c-0.3,0-0.61,0.08-0.9,0.23
			c-0.29,0.15-0.56,0.39-0.81,0.73s-0.48,0.85-0.7,1.55c-0.23,0.7-0.34,1.34-0.34,1.95c0,1.13,0.49,1.69,1.47,1.69
			c0.65,0,1.27-0.28,1.86-0.84l0.5,0.78c-0.82,0.69-1.69,1.03-2.6,1.03c-1.7,0-2.55-0.88-2.55-2.64c0-0.85,0.19-1.73,0.61-2.64
			c0.4-0.91,0.92-1.61,1.55-2.12s1.35-0.77,2.2-0.77c0.76,0,1.4,0.22,1.89,0.66L73.83,51.95z"/>
		<path class="st2" d="M81.76,52.59l-0.68,3.23c-0.1,0.48-0.14,0.83-0.14,1.08c0,0.22,0.03,0.4,0.1,0.55
			c0.06,0.15,0.17,0.29,0.3,0.44l-0.97,0.74c-0.23-0.24-0.38-0.48-0.47-0.71c-0.08-0.24-0.12-0.56-0.12-0.98
			c-0.27,0.49-0.64,0.85-1.11,1.14c-0.47,0.27-1.01,0.41-1.6,0.41c-0.52,0-0.96-0.21-1.32-0.63c-0.36-0.41-0.54-1.03-0.54-1.85
			c0-0.79,0.14-1.59,0.43-2.39s0.77-1.55,1.46-2.25c0.68-0.69,1.63-1.05,2.86-1.05c0.85,0,1.59,0.22,2.2,0.64L81.76,52.59z
			 M79.85,51.31c-0.48,0-0.89,0.09-1.23,0.26c-0.35,0.17-0.69,0.47-1.05,0.9c-0.36,0.42-0.63,0.96-0.8,1.61
			c-0.18,0.65-0.27,1.3-0.27,1.96c0,0.52,0.09,0.88,0.27,1.09c0.18,0.22,0.47,0.32,0.85,0.32c0.41,0,0.83-0.17,1.27-0.52
			c0.42-0.34,0.78-0.8,1.07-1.39l0.84-4.03C80.56,51.38,80.24,51.31,79.85,51.31z"/>
		<path class="st2" d="M84.66,59.59c-0.21,0.21-0.45,0.4-0.73,0.58c-0.28,0.17-0.53,0.32-0.76,0.42l-0.41-0.69
			c0.35-0.15,0.63-0.34,0.85-0.58s0.39-0.52,0.5-0.82c-0.23,0-0.42-0.1-0.58-0.28c-0.15-0.18-0.24-0.42-0.24-0.69
			c0-0.35,0.11-0.62,0.32-0.83c0.22-0.21,0.5-0.31,0.84-0.31c0.31,0,0.57,0.11,0.79,0.32c0.22,0.22,0.32,0.51,0.32,0.84
			C85.59,58.27,85.28,58.95,84.66,59.59z"/>
		<path class="st2" d="M98.62,57.04c-0.5,0.47-1.05,0.79-1.62,1c-0.58,0.21-1.28,0.3-2.07,0.3h-2.81l2.28-10.76h2.31
			c0.82,0,1.45,0.05,1.87,0.16c0.43,0.11,0.92,0.4,1.46,0.88c0.55,0.47,0.82,1.45,0.82,2.93c0,0.92-0.23,1.93-0.67,3.03
			S99.23,56.49,98.62,57.04z M99.05,49.59c-0.25-0.4-0.54-0.66-0.87-0.79c-0.32-0.13-0.8-0.18-1.44-0.18h-1.28l-1.83,8.66h1.14
			c0.75,0,1.37-0.09,1.87-0.26s0.95-0.51,1.35-1.02c0.41-0.51,0.76-1.19,1.04-2.05c0.28-0.85,0.43-1.6,0.43-2.25
			c0-0.49-0.03-0.91-0.1-1.24C99.32,50.12,99.22,49.83,99.05,49.59z"/>
		<path class="st2" d="M108.18,53.94c-0.64,0.58-1.76,0.89-3.37,0.89h-0.97c-0.08,0.34-0.11,0.66-0.11,0.98
			c0,0.53,0.14,0.94,0.43,1.23s0.66,0.43,1.11,0.43c0.5,0,0.91-0.06,1.23-0.18c0.32-0.13,0.67-0.36,1.05-0.69l0.52,0.76
			c-0.41,0.41-0.84,0.7-1.32,0.89c-0.47,0.18-1.08,0.27-1.85,0.27c-0.75,0-1.35-0.25-1.83-0.75s-0.73-1.19-0.73-2.07
			c0-0.79,0.15-1.58,0.44-2.35c0.29-0.77,0.77-1.47,1.44-2.09c0.67-0.62,1.47-0.93,2.41-0.93c0.74,0,1.29,0.18,1.67,0.54
			s0.57,0.84,0.57,1.47c0,0.34-0.06,0.63-0.18,0.9C108.59,53.49,108.41,53.72,108.18,53.94z M106.47,51.29c-0.51,0-1,0.24-1.45,0.71
			c-0.45,0.48-0.78,1.11-0.98,1.9l0.8,0.02c0.69,0,1.21-0.04,1.57-0.14s0.62-0.23,0.78-0.39s0.29-0.34,0.36-0.49
			c0.08-0.16,0.11-0.34,0.11-0.53c0-0.32-0.1-0.58-0.28-0.78C107.18,51.39,106.88,51.29,106.47,51.29z"/>
		<path class="st2" d="M117.39,52.41l-1.27,5.92h-1.24l1.13-5.28c0.09-0.36,0.13-0.64,0.13-0.83c0-0.52-0.25-0.77-0.75-0.77
			c-0.37,0-0.79,0.14-1.27,0.43c-0.48,0.29-0.96,0.75-1.46,1.36l-1.07,5.1h-1.2l1.19-5.57c0.12-0.5,0.17-0.89,0.17-1.18
			c0-0.24-0.03-0.49-0.11-0.74l1.15-0.55c0.05,0.14,0.1,0.29,0.13,0.43s0.05,0.32,0.05,0.54c0,0.23-0.03,0.49-0.11,0.77
			c0.41-0.55,0.88-0.96,1.42-1.24c0.54-0.27,1.07-0.41,1.6-0.41c0.48,0,0.85,0.14,1.14,0.41c0.27,0.27,0.41,0.65,0.41,1.13
			L117.39,52.41z"/>
		<path class="st2" d="M123.71,51.46h-1.68l-0.98,4.57c-0.06,0.32-0.1,0.61-0.1,0.84c0,0.28,0.05,0.49,0.17,0.6
			c0.12,0.12,0.31,0.17,0.61,0.17s0.57-0.05,0.81-0.15v0.78c-0.44,0.21-0.93,0.31-1.44,0.31c-0.92,0-1.37-0.42-1.37-1.27
			c0-0.23,0.01-0.41,0.02-0.55c0.01-0.14,0.04-0.34,0.11-0.58l1.01-4.72h-1.04l0.17-0.92h1.03c0.14-0.56,0.23-0.94,0.27-1.1
			c0.05-0.17,0.14-0.47,0.27-0.89l1.33-0.28c-0.13,0.35-0.25,0.73-0.37,1.14s-0.21,0.79-0.28,1.14h1.95L123.71,51.46z"/>
		<path class="st2" d="M131.26,52.59l-0.68,3.23c-0.1,0.48-0.14,0.83-0.14,1.08c0,0.22,0.03,0.4,0.1,0.55
			c0.06,0.15,0.17,0.29,0.3,0.44l-0.97,0.74c-0.23-0.24-0.38-0.48-0.47-0.71c-0.08-0.24-0.12-0.56-0.12-0.98
			c-0.27,0.49-0.64,0.85-1.11,1.14c-0.47,0.27-1.01,0.41-1.6,0.41c-0.52,0-0.96-0.21-1.32-0.63c-0.36-0.41-0.54-1.03-0.54-1.85
			c0-0.79,0.14-1.59,0.43-2.39s0.77-1.55,1.46-2.25c0.68-0.69,1.63-1.05,2.86-1.05c0.85,0,1.59,0.22,2.2,0.64L131.26,52.59z
			 M129.36,51.31c-0.48,0-0.89,0.09-1.23,0.26c-0.35,0.17-0.69,0.47-1.05,0.9c-0.36,0.42-0.63,0.96-0.8,1.61
			c-0.18,0.65-0.27,1.3-0.27,1.96c0,0.52,0.09,0.88,0.27,1.09c0.18,0.22,0.47,0.32,0.85,0.32c0.41,0,0.83-0.17,1.27-0.52
			c0.42-0.34,0.78-0.8,1.07-1.39l0.84-4.03C130.06,51.38,129.75,51.31,129.36,51.31z"/>
		<path class="st2" d="M136.09,49.64l-1.49,6.97c-0.04,0.24-0.08,0.43-0.08,0.56c0,0.25,0.11,0.38,0.32,0.38
			c0.15,0,0.25-0.01,0.3-0.03l0.08,0.8c-0.15,0.08-0.3,0.12-0.44,0.14s-0.31,0.03-0.51,0.03c-0.69,0-1.03-0.3-1.03-0.92
			c0-0.16,0.02-0.39,0.08-0.67l1.54-7.25c0.11-0.53,0.16-1.02,0.16-1.45c0-0.36-0.03-0.65-0.1-0.9l1.3-0.5
			c0.08,0.22,0.11,0.52,0.11,0.91c0,0.27-0.01,0.54-0.04,0.81C136.26,48.79,136.2,49.17,136.09,49.64z"/>
		<path class="st2" d="M145.04,57.14c-0.77,1.41-1.28,2.31-1.52,2.69c-0.24,0.39-0.55,0.75-0.94,1.06s-0.89,0.53-1.48,0.64
			l-0.28-0.83c0.22-0.02,0.45-0.1,0.7-0.24s0.48-0.29,0.66-0.47c0.18-0.16,0.36-0.39,0.52-0.66s0.32-0.61,0.49-1.02l-0.5,0.06
			c0-0.36-0.02-0.81-0.05-1.37c-0.03-0.55-0.08-1.04-0.13-1.43l-0.64-4.97l1.28-0.25l0.53,4.98c0.01,0.12,0.02,0.34,0.03,0.67
			c0.01,0.34,0.01,0.69,0.01,1.06c0,0.1,0,0.15,0,0.16s0,0.03,0,0.04l0.87-1.66l2.63-5.12h1.41L145.04,57.14z"/>
		<path class="st2" d="M159.4,57.04c-0.5,0.47-1.05,0.79-1.62,1c-0.58,0.21-1.28,0.3-2.07,0.3h-2.8l2.28-10.76h2.31
			c0.82,0,1.45,0.05,1.87,0.16c0.43,0.11,0.92,0.4,1.46,0.88c0.55,0.47,0.82,1.45,0.82,2.93c0,0.92-0.23,1.93-0.67,3.03
			S159.99,56.49,159.4,57.04z M159.83,49.59c-0.25-0.4-0.54-0.66-0.87-0.79s-0.8-0.18-1.44-0.18h-1.29l-1.83,8.66h1.14
			c0.75,0,1.37-0.09,1.87-0.26s0.95-0.51,1.35-1.02c0.41-0.51,0.76-1.19,1.04-2.05c0.28-0.85,0.43-1.6,0.43-2.25
			c0-0.49-0.03-0.91-0.1-1.24C160.1,50.12,159.99,49.83,159.83,49.59z"/>
		<path class="st2" d="M168.94,53.94c-0.64,0.58-1.76,0.89-3.37,0.89h-0.97c-0.08,0.34-0.11,0.66-0.11,0.98
			c0,0.53,0.14,0.94,0.43,1.23s0.66,0.43,1.11,0.43c0.5,0,0.91-0.06,1.23-0.18c0.32-0.13,0.67-0.36,1.05-0.69l0.52,0.76
			c-0.41,0.41-0.84,0.7-1.32,0.89c-0.47,0.18-1.08,0.27-1.85,0.27c-0.75,0-1.35-0.25-1.83-0.75s-0.73-1.19-0.73-2.07
			c0-0.79,0.15-1.58,0.44-2.35c0.29-0.77,0.77-1.47,1.44-2.09s1.47-0.93,2.41-0.93c0.74,0,1.29,0.18,1.67,0.54s0.57,0.84,0.57,1.47
			c0,0.34-0.06,0.63-0.18,0.9C169.37,53.49,169.18,53.72,168.94,53.94z M167.23,51.29c-0.51,0-1,0.24-1.45,0.71s-0.78,1.11-0.98,1.9
			l0.8,0.02c0.69,0,1.21-0.04,1.57-0.14s0.62-0.23,0.78-0.39s0.29-0.34,0.36-0.49c0.08-0.16,0.11-0.34,0.11-0.53
			c0-0.32-0.1-0.58-0.28-0.78C167.96,51.39,167.66,51.29,167.23,51.29z"/>
		<path class="st2" d="M176.19,51.71c-0.06-0.02-0.14-0.03-0.25-0.04c-0.11-0.01-0.18-0.01-0.24-0.01c-0.37,0-0.74,0.15-1.13,0.47
			c-0.39,0.3-0.77,0.76-1.16,1.34l-1.04,4.88h-1.18l1.13-5.29c0.15-0.69,0.22-1.18,0.22-1.48c0-0.14-0.01-0.26-0.02-0.37
			s-0.05-0.24-0.1-0.4l1.15-0.5c0.13,0.29,0.18,0.57,0.18,0.84c0,0.21-0.04,0.54-0.13,0.98c0.37-0.55,0.78-1,1.26-1.33
			c0.47-0.34,0.89-0.5,1.27-0.5c0.21,0,0.4,0.02,0.58,0.08L176.19,51.71z"/>
		<path class="st2" d="M187.61,52.76l-1.19,5.57h-1.26l1.15-5.45c0.06-0.27,0.1-0.52,0.1-0.75c0-0.45-0.26-0.68-0.77-0.68
			c-0.3,0-0.68,0.16-1.15,0.5c-0.45,0.34-0.9,0.75-1.31,1.26l-1.08,5.12h-1.24l1.13-5.32c0.04-0.16,0.08-0.34,0.11-0.51
			s0.04-0.3,0.04-0.39c0-0.21-0.04-0.37-0.14-0.48s-0.26-0.17-0.49-0.17c-0.32,0-0.73,0.16-1.2,0.48c-0.48,0.31-0.94,0.76-1.39,1.31
			l-1.07,5.1h-1.18l1.19-5.6c0.04-0.23,0.09-0.45,0.12-0.67c0.03-0.22,0.05-0.39,0.05-0.53c0-0.22-0.03-0.45-0.11-0.7l1.15-0.55
			c0.13,0.29,0.18,0.61,0.18,0.94c0,0.15-0.01,0.29-0.04,0.44c-0.02,0.15-0.05,0.27-0.08,0.35c0.5-0.58,1-1.01,1.48-1.27
			c0.49-0.26,0.95-0.39,1.4-0.39s0.8,0.14,1.01,0.42c0.21,0.28,0.32,0.69,0.32,1.22c0.51-0.58,1.02-1.01,1.52-1.27
			c0.5-0.26,0.97-0.38,1.41-0.38c0.43,0,0.79,0.15,1.05,0.44c0.26,0.3,0.39,0.65,0.39,1.05c0,0.11,0,0.22-0.01,0.3
			C187.71,52.27,187.68,52.47,187.61,52.76z"/>
		<path class="st2" d="M192.21,58.54c-0.84,0-1.49-0.25-1.96-0.74c-0.45-0.49-0.69-1.18-0.69-2.08c0-1.55,0.41-2.84,1.23-3.87
			c0.82-1.03,1.86-1.55,3.1-1.55c0.88,0,1.54,0.25,1.98,0.76s0.66,1.2,0.66,2.08c0,1.54-0.41,2.82-1.22,3.85
			C194.52,58.02,193.48,58.54,192.21,58.54z M193.7,51.31c-0.85,0-1.54,0.42-2.02,1.27c-0.5,0.84-0.75,1.92-0.75,3.21
			c0,0.6,0.13,1.03,0.38,1.31c0.26,0.27,0.64,0.41,1.15,0.41c0.85,0,1.53-0.43,2.02-1.31s0.74-1.94,0.74-3.2
			c0-0.57-0.14-1-0.43-1.27C194.49,51.44,194.13,51.31,193.7,51.31z"/>
		<path class="st2" d="M204.4,53.94c-0.64,0.58-1.76,0.89-3.37,0.89h-0.97c-0.08,0.34-0.11,0.66-0.11,0.98
			c0,0.53,0.14,0.94,0.43,1.23s0.66,0.43,1.11,0.43c0.5,0,0.91-0.06,1.23-0.18c0.32-0.13,0.67-0.36,1.05-0.69l0.52,0.76
			c-0.41,0.41-0.84,0.7-1.32,0.89c-0.47,0.18-1.08,0.27-1.85,0.27c-0.75,0-1.35-0.25-1.83-0.75s-0.73-1.19-0.73-2.07
			c0-0.79,0.15-1.58,0.44-2.35c0.29-0.77,0.77-1.47,1.44-2.09s1.47-0.93,2.41-0.93c0.74,0,1.29,0.18,1.67,0.54s0.57,0.84,0.57,1.47
			c0,0.34-0.06,0.63-0.18,0.9C204.82,53.49,204.64,53.72,204.4,53.94z M202.69,51.29c-0.51,0-1,0.24-1.45,0.71s-0.78,1.11-0.98,1.9
			l0.8,0.02c0.69,0,1.21-0.04,1.57-0.14s0.62-0.23,0.78-0.39s0.29-0.34,0.36-0.49c0.08-0.16,0.11-0.34,0.11-0.53
			c0-0.32-0.1-0.58-0.28-0.78C203.41,51.39,203.11,51.29,202.69,51.29z"/>
		<path class="st2" d="M212.3,51.77c-0.37-0.19-0.68-0.34-0.94-0.43c-0.26-0.09-0.55-0.13-0.89-0.13c-0.53,0-0.96,0.1-1.29,0.3
			s-0.49,0.49-0.49,0.85c0,0.27,0.05,0.49,0.18,0.65c0.12,0.16,0.35,0.31,0.66,0.44l0.98,0.42c0.6,0.25,1.02,0.53,1.27,0.84
			s0.38,0.69,0.38,1.13c0,0.83-0.31,1.49-0.95,1.98c-0.63,0.49-1.45,0.73-2.45,0.73c-0.51,0-1.01-0.06-1.47-0.19
			c-0.47-0.13-0.88-0.31-1.22-0.55l0.5-0.92c0.71,0.48,1.48,0.73,2.32,0.73c0.54,0,1-0.12,1.35-0.37c0.36-0.25,0.54-0.56,0.54-0.95
			c0-0.32-0.06-0.58-0.21-0.77c-0.13-0.19-0.4-0.38-0.78-0.54l-0.92-0.41c-0.54-0.24-0.93-0.51-1.17-0.8s-0.35-0.66-0.35-1.11
			c0-0.7,0.29-1.29,0.89-1.74s1.35-0.68,2.29-0.68c0.89,0,1.63,0.19,2.25,0.6L212.3,51.77z"/>
		<path class="st2" d="M218.47,51.46h-1.68l-0.98,4.57c-0.06,0.32-0.1,0.61-0.1,0.84c0,0.28,0.05,0.49,0.17,0.6
			c0.12,0.12,0.31,0.17,0.61,0.17s0.57-0.05,0.81-0.15v0.78c-0.44,0.21-0.93,0.31-1.44,0.31c-0.92,0-1.37-0.42-1.37-1.27
			c0-0.23,0.01-0.41,0.02-0.55s0.04-0.34,0.11-0.58l0.98-4.72h-1.04l0.17-0.92h1.03c0.14-0.56,0.23-0.94,0.27-1.1
			c0.05-0.17,0.14-0.47,0.27-0.89l1.33-0.28c-0.13,0.35-0.25,0.73-0.37,1.14s-0.21,0.79-0.28,1.14h1.95L218.47,51.46z"/>
		<path class="st2" d="M225.44,53.94c-0.64,0.58-1.76,0.89-3.37,0.89h-0.97c-0.08,0.34-0.11,0.66-0.11,0.98
			c0,0.53,0.14,0.94,0.43,1.23s0.66,0.43,1.11,0.43c0.5,0,0.91-0.06,1.23-0.18c0.32-0.13,0.67-0.36,1.05-0.69l0.52,0.76
			c-0.41,0.41-0.84,0.7-1.32,0.89c-0.47,0.18-1.08,0.27-1.85,0.27c-0.75,0-1.35-0.25-1.83-0.75s-0.73-1.19-0.73-2.07
			c0-0.79,0.15-1.58,0.44-2.35c0.29-0.77,0.77-1.47,1.44-2.09s1.47-0.93,2.41-0.93c0.74,0,1.29,0.18,1.67,0.54s0.57,0.84,0.57,1.47
			c0,0.34-0.06,0.63-0.18,0.9C225.86,53.49,225.68,53.72,225.44,53.94z M223.73,51.29c-0.51,0-1,0.24-1.45,0.71s-0.78,1.11-0.98,1.9
			l0.8,0.02c0.69,0,1.21-0.04,1.57-0.14s0.62-0.23,0.78-0.39s0.29-0.34,0.36-0.49c0.08-0.16,0.11-0.34,0.11-0.53
			c0-0.32-0.1-0.58-0.28-0.78C224.44,51.39,224.14,51.29,223.73,51.29z M223.53,49.49l-0.41-0.74l3.26-2.05l0.67,1.21L223.53,49.49z
			"/>
		<path class="st2" d="M232.23,51.46h-1.68l-0.98,4.57c-0.06,0.32-0.1,0.61-0.1,0.84c0,0.28,0.05,0.49,0.17,0.6
			c0.12,0.12,0.31,0.17,0.61,0.17s0.57-0.05,0.81-0.15v0.78c-0.44,0.21-0.93,0.31-1.44,0.31c-0.92,0-1.37-0.42-1.37-1.27
			c0-0.23,0.01-0.41,0.02-0.55s0.04-0.34,0.11-0.58l1.01-4.72h-1.04l0.17-0.92h1.03c0.14-0.56,0.23-0.94,0.27-1.1
			c0.05-0.17,0.14-0.47,0.27-0.89l1.33-0.28c-0.13,0.35-0.25,0.73-0.37,1.14s-0.21,0.79-0.28,1.14h1.95L232.23,51.46z"/>
		<path class="st2" d="M234.45,58.33h-1.3l1.67-7.77l1.33-0.21L234.45,58.33z M235.99,49.08c-0.27,0-0.5-0.09-0.68-0.27
			s-0.27-0.4-0.27-0.66c0-0.27,0.09-0.5,0.27-0.69c0.18-0.19,0.41-0.28,0.69-0.28c0.27,0,0.5,0.09,0.68,0.27s0.27,0.41,0.27,0.68
			s-0.09,0.5-0.27,0.68C236.49,48.99,236.26,49.08,235.99,49.08z"/>
		<path class="st2" d="M243.25,51.95c-0.23-0.19-0.48-0.34-0.74-0.42c-0.26-0.09-0.54-0.13-0.84-0.13s-0.61,0.08-0.9,0.23
			c-0.29,0.15-0.56,0.39-0.81,0.73s-0.48,0.85-0.7,1.55c-0.23,0.7-0.34,1.34-0.34,1.95c0,1.13,0.49,1.69,1.47,1.69
			c0.65,0,1.27-0.28,1.86-0.84l0.5,0.78c-0.82,0.69-1.69,1.03-2.6,1.03c-1.7,0-2.55-0.88-2.55-2.64c0-0.85,0.19-1.73,0.61-2.64
			c0.4-0.91,0.92-1.61,1.55-2.12s1.35-0.77,2.2-0.77c0.76,0,1.4,0.22,1.89,0.66L243.25,51.95z"/>
		<path class="st2" d="M251.19,52.59l-0.68,3.23c-0.1,0.48-0.14,0.83-0.14,1.08c0,0.22,0.03,0.4,0.1,0.55
			c0.06,0.15,0.17,0.29,0.3,0.44l-0.97,0.74c-0.23-0.24-0.38-0.48-0.47-0.71c-0.08-0.24-0.12-0.56-0.12-0.98
			c-0.27,0.49-0.64,0.85-1.11,1.14c-0.47,0.27-1.01,0.41-1.6,0.41c-0.52,0-0.96-0.21-1.32-0.63c-0.36-0.41-0.54-1.03-0.54-1.85
			c0-0.79,0.14-1.59,0.43-2.39s0.77-1.55,1.46-2.25c0.68-0.69,1.63-1.05,2.86-1.05c0.85,0,1.59,0.22,2.2,0.64L251.19,52.59z
			 M249.28,51.31c-0.48,0-0.89,0.09-1.23,0.26c-0.35,0.17-0.69,0.47-1.05,0.9c-0.36,0.42-0.63,0.96-0.8,1.61
			c-0.18,0.65-0.27,1.3-0.27,1.96c0,0.52,0.09,0.88,0.27,1.09c0.18,0.22,0.47,0.32,0.85,0.32c0.41,0,0.83-0.17,1.27-0.52
			c0.42-0.34,0.78-0.8,1.07-1.39l0.84-4.03C249.98,51.38,249.67,51.31,249.28,51.31z"/>
	</g>
</g>
</svg>
