<?xml version="1.0" encoding="UTF-8" standalone="no"?>
<svg
   xmlns:dc="http://purl.org/dc/elements/1.1/"
   xmlns:cc="http://creativecommons.org/ns#"
   xmlns:rdf="http://www.w3.org/1999/02/22-rdf-syntax-ns#"
   xmlns:svg="http://www.w3.org/2000/svg"
   xmlns="http://www.w3.org/2000/svg"
   xmlns:sodipodi="http://sodipodi.sourceforge.net/DTD/sodipodi-0.dtd"
   xmlns:inkscape="http://www.inkscape.org/namespaces/inkscape"
   version="1.1"
   id="svg833"
   width="437.46204"
   height="116.99623"
   viewBox="0 0 437.46204 116.99623"
   sodipodi:docname="logo_redsalud.svg"
   inkscape:version="1.0.1 (3bc2e813f5, 2020-09-07)">
  <metadata
     id="metadata839">
    <rdf:RDF>
      <cc:Work
         rdf:about="">
        <dc:format>image/svg+xml</dc:format>
        <dc:type
           rdf:resource="http://purl.org/dc/dcmitype/StillImage" />
        <dc:title></dc:title>
      </cc:Work>
    </rdf:RDF>
  </metadata>
  <defs
     id="defs837" />
  <sodipodi:namedview
     pagecolor="#ffffff"
     bordercolor="#666666"
     borderopacity="1"
     objecttolerance="10"
     gridtolerance="10"
     guidetolerance="10"
     inkscape:pageopacity="0"
     inkscape:pageshadow="2"
     inkscape:window-width="1920"
     inkscape:window-height="986"
     id="namedview835"
     showgrid="false"
     fit-margin-top="0"
     fit-margin-left="0"
     fit-margin-right="0"
     fit-margin-bottom="0"
     inkscape:zoom="2.21875"
     inkscape:cx="227.03832"
     inkscape:cy="7.1604173"
     inkscape:window-x="-11"
     inkscape:window-y="-11"
     inkscape:window-maximized="1"
     inkscape:current-layer="g841" />
  <g
     inkscape:groupmode="layer"
     inkscape:label="Image"
     id="g841"
     transform="translate(-42.338212,-47.785261)">
    <path
       style="fill:#ffffff;fill-opacity:1"
       d="m 44.371497,162.55879 c -4.115237,-4.38047 -1.62083,-10.68555 4.227402,-10.68555 6.024752,0 8.846974,6.75131 4.598284,11 -2.654686,2.65469 -6.153436,2.53003 -8.825686,-0.31445 z m 110.598953,-2.43555 c -2.7315,-3.11063 -2.95232,-5.75265 -0.71821,-8.59287 4.00635,-5.09324 10.94494,-2.71001 10.94494,3.75931 0,5.74112 -6.664,8.89079 -10.22673,4.83356 z m 191.22673,-0.70869 c 0,-1.18536 0.62373,-1.42287 2.5,-0.95195 3.25479,0.8169 3.22042,-0.8873 -0.0613,-3.03755 -3.72029,-2.43763 -2.99676,-5.9498 1.31127,-6.36517 2.33462,-0.2251 3.25,0.1006 3.25,1.15638 0,0.97741 -0.66995,1.29454 -2,0.94673 -2.82291,-0.73821 -2.48518,1.16233 0.56127,3.15844 3.95075,2.58863 2.98957,5.96484 -1.81127,6.36218 -2.88148,0.23848 -3.75,-0.0554 -3.75,-1.26906 z m 13.65499,-0.37005 c -3.74381,-4.13686 -0.79299,-10.17126 4.97375,-10.17126 3.95471,0 5.37126,1.62584 5.37126,6.16482 0,2.6987 -0.54774,4.05795 -1.93426,4.8 -2.95186,1.57979 -6.57201,1.23822 -8.41075,-0.79356 z m 7.15888,-3.93632 c 0.21694,-2.24545 -0.173,-3.43552 -1.26273,-3.85369 -3.39544,-1.30295 -6.00591,3.76398 -3.32195,6.44794 2.09656,2.09656 4.24916,0.8785 4.58468,-2.59425 z m 8.18613,-0.23494 c 0,-6.64694 0.91815,-7.36925 4.32811,-3.40494 l 2.23218,2.59506 1.38883,-2.59506 c 2.45222,-4.582 4.05088,-3.23826 4.05088,3.40494 0,4.66667 -0.33333,6 -1.5,6 -1.01996,0 -1.5,-1.02124 -1.5,-3.19113 0,-3.00873 -0.0822,-3.08018 -1.43817,-1.25 -1.42113,1.91813 -1.4563,1.91743 -2.9682,-0.0589 -1.47053,-1.92223 -1.53126,-1.87363 -1.56183,1.25 -0.0216,2.20809 -0.51268,3.25 -1.5318,3.25 -1.16667,0 -1.5,-1.33333 -1.5,-6 z m 18.57143,4.42857 c -0.86429,-0.86428 -1.57143,-2.85714 -1.57143,-4.42857 0,-3.80427 2.39197,-6 6.53624,-6 3.71859,0 5.46376,2.03234 5.46376,6.36283 0,3.30793 -2.47915,5.63717 -6,5.63717 -1.57143,0 -3.56429,-0.70714 -4.42857,-1.57143 z m 6.92857,-4.42857 c 0,-3.06667 -0.30952,-3.5 -2.5,-3.5 -1.85467,0 -2.58495,0.59957 -2.82908,2.32273 -0.50992,3.59911 0.56925,5.35317 3.07461,4.99741 1.84889,-0.26255 2.25447,-0.94979 2.25447,-3.82014 z m 8.03483,5.05636 c -0.69943,-1.13171 -0.0636,-1.39132 2.71517,-1.10866 2.27611,0.23153 2.24279,-1.47877 -0.0612,-3.141 -2.77857,-2.00461 -3.48072,-3.75001 -2.15244,-5.3505 1.57715,-1.90035 6.96365,-1.93888 6.96365,-0.0498 0,0.91405 -0.70014,1.22329 -2,0.88337 -2.62418,-0.68624 -2.58013,1.32941 0.0599,2.74232 1.45117,0.77665 1.96834,1.89527 1.75,3.78519 -0.25393,2.19801 -0.8802,2.73809 -3.46608,2.9891 -1.73588,0.1685 -3.44994,-0.169 -3.80902,-0.75 z m 20.12016,-0.8851 c -2.1857,-2.41517 -2.10326,-6.4556 0.17375,-8.51627 2.18606,-1.97836 8.17126,-2.24613 8.17126,-0.36557 0,0.73489 -1.12817,1.27247 -2.62329,1.25 -1.4428,-0.0217 -3.128,0.74808 -3.74488,1.71058 -1.6202,2.52795 0.43929,5.30125 3.75891,5.06174 1.69016,-0.12195 2.60926,0.31835 2.60926,1.25 0,2.14983 -6.31341,1.85441 -8.34501,-0.39048 z m 13.91644,0.25731 c -2.12179,-2.12179 -1.98626,-6.74318 0.25731,-8.77358 2.18606,-1.97836 8.17126,-2.24613 8.17126,-0.36557 0,0.73489 -1.12817,1.27247 -2.62329,1.25 -1.4428,-0.0217 -3.128,0.74808 -3.74488,1.71058 -1.6202,2.52795 0.43929,5.30125 3.75891,5.06174 1.69016,-0.12195 2.60926,0.31835 2.60926,1.25 0,1.99532 -6.40122,1.89419 -8.42857,-0.13317 z m 12.42857,-4.92857 c 0,-5.11111 0.32051,-6.5 1.5,-6.5 0.825,0 1.5,0.8687 1.5,1.93045 0,1.2406 0.80404,2.04464 2.25,2.25 1.87042,0.26564 2.30187,1.03653 2.5575,4.56955 0.18193,2.51457 -0.12432,4.25 -0.75,4.25 -0.58163,0 -1.0575,-0.8632 -1.0575,-1.91821 0,-2.82908 -1.08128,-5.14959 -2.10478,-4.51703 -0.49237,0.3043 -0.89522,1.87672 -0.89522,3.49426 0,1.94754 -0.50669,2.94098 -1.5,2.94098 -1.17949,0 -1.5,-1.38889 -1.5,-6.5 z m 13.65499,4.67126 c -3.65877,-4.04289 -0.70539,-10.17126 4.90171,-10.17126 2.14412,0 3.4433,0.48651 3.4433,1.28942 0,0.73489 -1.12817,1.27247 -2.62329,1.25 -1.4428,-0.0217 -3.128,0.74808 -3.74488,1.71058 -1.58536,2.47359 0.41767,5.26058 3.74488,5.21058 1.49512,-0.0225 2.62329,0.51511 2.62329,1.25 0,2.00882 -6.41412,1.59429 -8.34501,-0.53932 z m -347.39263,-2.18217 c -8.48675,-1.93517 -24.336603,-7.84737 -29.570045,-11.03001 l -2.964303,-1.8027 -11.967335,6.00428 c -13.46315,6.75477 -16.760674,7.11487 -16.760674,1.83032 0,-2.74706 0.696969,-3.31943 9.25,-7.59642 5.0875,-2.54402 9.474177,-4.83522 9.74817,-5.09154 0.273994,-0.25631 -0.851006,-1.421 -2.5,-2.58819 C 70.719712,132.3584 56.851141,118.21718 52.132974,111.54281 45.87345,102.68802 43.802206,96.465177 43.755396,86.373239 43.72579,79.990158 44.16505,77.533801 45.928714,74.219966 53.196265,60.564611 71.128205,57.887069 84.977539,68.389316 l 5.719644,4.337328 6,-6.335772 C 118.85609,49.164771 122.83354,48.93173 127.8685,47.98658 c 3.78737,-0.710954 13.93647,0.466767 19.01626,3.443719 14.8117,8.680237 14.8334,28.762614 0.0523,48.428459 -10.05582,13.379002 -19.78273,21.814032 -37.54647,32.559722 l -11.306561,6.8396 2.806561,1.4729 c 8.44902,4.43409 28.89924,9.52463 41.70528,10.38142 4.55681,0.30487 6.74492,2.72112 4.9905,5.51084 -1.61087,2.56146 -15.38904,2.68755 -26.12686,0.23909 z M 99.611013,128.24008 c 13.912187,-7.77 20.557987,-12.43227 28.787057,-20.19516 14.39527,-13.579765 21.79695,-26.104821 21.79832,-36.886885 7e-4,-5.4832 -0.35326,-6.618439 -3.0053,-9.638946 -1.65334,-1.883059 -4.48768,-4.126807 -6.29852,-4.986107 -3.77869,-1.793107 -7.61271,-2.799771 -12.19539,-1.696533 -12.24842,2.948695 -23.22323,13.15407 -30.258157,22.325094 l -2.089939,2.788303 3.383199,5.985494 c 5.704377,10.092068 5.816557,17.4324 0.349957,22.89899 -3.99738,3.99739 -9.676957,4.19775 -14.509405,0.51186 -5.862943,-4.47188 -6.638317,-13.140824 -2.125969,-23.769014 l 2.036237,-4.796063 -2.89296,-3.080036 c -8.316281,-8.854059 -23.010387,-9.037024 -28.377197,-0.353342 -2.817857,4.559387 -2.675032,13.307471 0.336797,20.629005 2.586661,6.28798 9.059446,15.06092 16.305598,22.09993 5.390319,5.23622 16.34094,13.72867 17.755674,13.76992 0.502608,0.0147 5.452608,-2.50827 10.999998,-5.60651 z M 95.155267,98.500794 c -0.05042,-3.762454 -3.347373,-10.424723 -4.353361,-8.797 -0.381321,0.616989 -0.951017,3.297736 -1.265993,5.957216 -0.447724,3.780325 -0.196741,5.21136 1.150239,6.55834 2.322194,2.32219 4.525504,0.48892 4.469115,-3.718556 z m 80.900163,36.703056 c -1.22349,-3.38123 -1.69372,-36.39234 0.6249,-38.316627 1.04335,-0.865901 4.84791,-1.124094 12.83013,-0.870705 10.58651,0.336062 11.59075,0.546147 14.98458,3.134741 5.12026,3.905411 6.61952,9.181141 4.08116,14.361111 -1.03346,2.10896 -3.3207,4.79404 -5.08275,5.96683 l -3.20372,2.13235 2.31246,2.17245 c 1.27185,1.19484 4.06353,2.65382 6.20372,3.24216 2.1402,0.58835 4.22188,1.58213 4.62596,2.2084 1.37714,2.1344 0.76968,5.56597 -1.16895,6.6035 -4.80288,2.57042 -10.95346,-0.13957 -19.03158,-8.38546 -3.00621,-3.06865 -7.70609,-5.57936 -7.70609,-5.57936 0,0 -0.32807,1.76827 -0.32807,5.92857 0,4.05628 0.45982,6.26549 -0.61534,7.34065 -2.08791,2.08791 -7.49645,2.90777 -8.52641,0.0614 z m 22.07885,-23.58061 c 1.57831,-4.06944 -0.88453,-6.25 -7.05907,-6.25 h -5.37803 l -0.3075,4.25 -0.3075,4.25 h 6.08973 c 5.39003,0 6.18998,-0.25852 6.96237,-2.25 z m 103.43133,23.24531 c -4.8857,-1.47485 -6.71838,-3.98943 -4.51411,-6.1937 1.23013,-1.23013 2.13869,-1.33979 4.29815,-0.51877 3.82762,1.45526 14.11176,1.97565 16.24219,0.41785 1.18217,-0.86443 1.66452,-2.28694 1.44113,-4.25 -0.31005,-2.72449 -0.87241,-3.1042 -7.33579,-4.9532 -10.25953,-2.93497 -13.10977,-4.34561 -14.37028,-7.11213 -2.01981,-4.43301 -1.37728,-9.07674 1.7384,-12.563794 2.57725,-2.884445 3.5451,-3.253093 9.54346,-3.635039 8.65968,-0.551407 15.58842,1.810046 15.58842,5.312843 0,3.03835 -1.61865,3.50825 -6.37573,1.85091 -8.09876,-2.82156 -15.15677,-1.06374 -14.46924,3.60362 0.42164,2.86231 1.43773,3.44705 10.46458,6.02212 10.07952,2.87537 12.38039,4.92335 12.38039,11.01964 0,4.01268 -0.49811,5.34861 -2.88383,7.73432 -4.83393,4.83393 -13.84395,5.65126 -21.74774,3.26533 z m 28.21193,0.44219 c -1.76388,-1.76388 -1.55856,-2.43599 6.85417,-22.4375 6.56714,-15.613556 8.23765,-17.853055 12.2615,-16.437943 2.37448,0.835063 3.71412,3.281553 10.06142,18.374543 4.02722,9.57617 7.18563,18.12046 7.01869,18.98731 -0.17926,0.93079 -1.32149,1.57609 -2.78984,1.57609 -1.95703,0 -2.89527,-0.90471 -4.40749,-4.25 l -1.92118,-4.25 h -9.38505 -9.38504 l -1.94313,4.39276 c -2.18854,4.94757 -4.1895,6.21929 -6.36405,4.04474 z m 24.48745,-15.6875 c -0.48548,-1.2375 -2.24095,-5.4 -3.90105,-9.25 -2.83085,-6.56513 -3.07832,-6.84469 -3.98345,-4.5 -0.53079,1.375 -2.13918,5.14349 -3.5742,8.37443 -1.43501,3.23094 -2.60911,6.26844 -2.60911,6.75 0,0.48156 2.80048,0.0868 6.91187,0.0868 7.34698,0 8.02348,0.75013 7.15594,-1.46127 z m 55.89408,15 c -7.24104,-3.65144 -8.96189,-8.22907 -8.96189,-23.83945 0,-10.33633 -0.35895,-10.974601 0.37739,-12.578988 1.63284,-3.557714 6.01584,-2.426241 6.51761,-0.04171 0.36244,1.722427 -0.30902,1.7828 0.10497,13.155548 0.49299,13.54214 0.53932,13.76841 3.30576,16.14462 2.06726,1.77565 3.99284,2.40998 7.31575,2.40998 9.44561,0 11.37849,-3.55039 11.37849,-20.90049 0,-11.179932 -0.0919,-8.21403 0.27818,-10.650236 0.25654,-1.688959 4.70398,-4.60765 6.19002,-0.123677 0.62933,1.898943 0.51145,5.311283 0.48791,11.546843 -0.0618,16.37453 -2.15823,21.43643 -10.45611,25.24683 -5.39416,2.477 -11.14857,2.34852 -16.53811,-0.36927 z m 34.78811,1.1699 c -1.56915,-0.91394 -1.75,-2.97573 -1.75,-19.95054 V 96.911343 l 2.54656,-0.639145 c 5.29763,-1.329622 19.75176,0.138443 24.24267,2.462258 10.97283,5.677884 13.21026,21.856504 4.33805,31.367994 -2.88749,3.09554 -4.92562,4.22241 -9.64425,5.33228 -6.96744,1.63881 -17.21515,1.82494 -19.73303,0.35841 z m 20.56736,-6.85046 c 4.12543,-1.56849 6.95241,-6.59607 7.03799,-12.51658 0.13954,-9.65411 -5.44023,-14.54294 -16.60535,-14.54912 l -6.75,-0.004 v 14 14 h 6.9349 c 3.8142,0 8.0363,-0.41875 9.38246,-0.93056 z m -247.65069,6.26389 c -0.36667,-0.36666 -0.66667,-9.09352 -0.66667,-19.39301 0,-16.153485 0.21733,-18.809739 1.58179,-19.333332 0.86998,-0.333844 7.36284,-0.606989 14.42857,-0.606989 13.49359,0 15.98964,0.760449 15.98964,4.871431 0,3.40351 -2.14257,4.12857 -12.2,4.12857 h -9.8 v 3 3 h 7.34501 c 6.07999,0 7.65738,0.34516 9.15867,2.00406 1.49857,1.65591 1.61608,2.43767 0.67642,4.5 -1.07496,2.3593 -1.57636,2.49594 -9.15866,2.49594 h -8.02144 v 3.5 3.5 h 9.8 c 10.30549,0 12.2,0.6988 12.2,4.5 0,4.03668 -1.70226,4.5 -16.53333,4.5 -7.77334,0 -14.43334,-0.3 -14.8,-0.66667 z m 36.53333,-0.53333 c -1.68814,-1.68814 -1.68814,-35.911865 0,-37.600001 1.50258,-1.502578 18.76664,-1.614702 24.01895,-0.155994 7.30941,2.030024 12.02466,7.729215 13.27098,16.040275 1.44606,9.64301 -4.38008,19.40379 -13.01248,21.80034 -5.45628,1.51478 -22.73828,1.45455 -24.27745,-0.0846 z m 21.65497,-9.225 c 7.33234,-3.7917 6.52862,-16.85122 -1.20294,-19.54646 -1.62276,-0.5657 -4.90833,-1.02854 -7.30125,-1.02854 h -4.35078 v 11 11 h 5.04966 c 2.77731,0 6.2897,-0.64125 7.80531,-1.425 z m 94.2788,10.18088 c 1e-5,0 -0.13377,-10.62392 -0.13377,-19.99901 0,-8.91098 0.52763,-18.858562 0.52763,-18.858562 3.08289,-1.354756 4.69317,-0.605795 6.32674,0.109908 0,0 0.14563,0.566866 0.14563,16.559174 v 16.43261 h 21.37052 c 0.74789,0 0.99264,3.66756 0.0474,5.50134 0,0 -2.67303,0.49866 -13.35134,0.49866 -11.82551,0 -14.9328,-0.24412 -14.9328,-0.24412 z"
       id="path845"
       sodipodi:nodetypes="ssssssssssssssssssssssssssssscssssssssssssssssssssssssssssssssssssssssssssssssssssssssssssssssssscscsssssssssccsssscsssccssssssccsssscsssscsssssssssssscssssscssssscccssssssssssssssssssssssssscccssscsssssscscssssscsssscsssssscsssccsccsssssscccsssscccssssssscssssscsccssscscccsccsccsc" />
  </g>
</svg>
